<?xml version="1.0" encoding="UTF-8"?>
<svg version="1.1" xmlns="http://www.w3.org/2000/svg" width="800" height="638">
<path d="M0 0 C2.03477158 -0.00417806 4.06954084 -0.00965816 6.1043058 -0.01631981 C11.66892839 -0.03073088 17.23340231 -0.02654326 22.79803288 -0.019153 C28.80973063 -0.01441293 34.82139661 -0.02693855 40.83308411 -0.03717041 C51.92037247 -0.05335518 63.00762205 -0.05580739 74.09491731 -0.05086542 C84.33951981 -0.04630152 94.5841048 -0.0469158 104.82870674 -0.05270576 C106.20491846 -0.05346264 107.58113018 -0.05421862 108.9573419 -0.05497371 C111.03136853 -0.05611895 113.10539516 -0.05726883 115.17942178 -0.05843295 C134.45118394 -0.06913148 153.72294029 -0.07386979 172.99470425 -0.06596279 C174.08346251 -0.06551703 174.08346251 -0.06551703 175.19421589 -0.06506227 C181.08788387 -0.06261353 186.98155179 -0.06000184 192.87521969 -0.05737813 C215.8636233 -0.04727567 238.85195386 -0.05563372 261.84034729 -0.07887268 C287.69122198 -0.10496328 313.54205271 -0.11778855 339.39294106 -0.11068493 C342.15092821 -0.10996891 344.90891537 -0.10929452 347.66690254 -0.10864449 C348.3459473 -0.10847468 349.02499206 -0.10830487 349.72461394 -0.10812991 C359.95984271 -0.10583019 370.19503057 -0.11378818 380.43025017 -0.12693596 C392.07388339 -0.14186661 403.71743757 -0.14229087 415.36107188 -0.12486505 C421.29901698 -0.11635456 427.23677948 -0.11420701 433.17471504 -0.1295166 C438.61590859 -0.14337158 444.05676323 -0.13858976 449.49793721 -0.11927737 C451.46077163 -0.11551962 453.42363326 -0.11843275 455.38644343 -0.12888902 C469.587299 -0.19912913 482.0224339 1.34521932 494.87721252 7.95018005 C495.53785706 8.2867865 496.19850159 8.62339294 496.87916565 8.97019958 C515.22485042 18.76425752 528.63745207 36.1512906 534.75221252 55.88768005 C536.72714751 62.40696038 537.9295048 68.63965252 537.97242737 75.46434021 C537.98283051 76.65031296 537.99323364 77.83628571 538.00395203 79.05819702 C538.01111237 80.33481705 538.01827271 81.61143707 538.02565002 82.92674255 C538.04357642 84.97477408 538.06364365 87.02277792 538.08382225 89.07078838 C538.09789751 90.50332534 538.11149129 91.9358671 538.12462807 93.36841297 C538.13533608 193.68437668 538.13533608 193.68437668 584.09767151 279.20530701 C596.21645248 290.53732691 609.94087007 294.86015951 625.81471252 298.38768005 C625.81471252 312.24768005 625.81471252 326.10768005 625.81471252 340.38768005 C620.86471252 341.37768005 615.91471252 342.36768005 610.81471252 343.38768005 C600.85279867 346.5155883 592.7473421 351.67819545 584.81471252 358.38768005 C584.15986877 358.94068787 583.50502502 359.49369568 582.83033752 360.0634613 C554.65828638 386.10322418 546.08505226 432.38197341 541.81471252 468.38768005 C541.67049866 469.57377869 541.52628479 470.75987732 541.37770081 471.98191833 C539.50643016 488.16241037 538.73440606 504.3049073 538.54908752 520.5868988 C538.54051916 521.30306932 538.5319508 522.01923985 538.52312279 522.7571125 C538.4376157 530.03351394 538.37328647 537.30917158 538.37076855 544.58610344 C538.33705697 578.41830017 538.33705697 578.41830017 530.06471252 593.70018005 C529.7210968 594.3576825 529.37748108 595.01518494 529.02345276 595.69261169 C518.80381158 614.75639691 503.32880107 628.45432952 482.81471252 635.38768005 C471.44434243 638.67041187 460.52828881 638.81540305 448.79510498 638.77536011 C446.79048198 638.77953925 444.78586135 638.78501994 442.78124505 638.79167992 C437.30448386 638.80607704 431.82787389 638.80190776 426.35110462 638.79451311 C420.43207395 638.7897695 414.51307543 638.80230185 408.59405518 638.81253052 C397.67899856 638.82870956 386.76399224 638.83116877 375.84892601 638.82622553 C365.76192145 638.82165983 355.67493468 638.82227812 345.58793068 638.82806587 C344.2323545 638.82882275 342.87677833 638.82957874 341.52120215 638.83033382 C339.4782053 638.83147907 337.43520845 638.83262896 335.39221161 638.83379306 C316.41016835 638.84449058 297.428131 638.84923104 278.44608593 638.8413229 C277.37386021 638.84087714 277.37386021 638.84087714 276.27997336 638.84042237 C270.47599493 638.8379737 264.67201657 638.83536198 258.86803822 638.83273824 C236.23524456 638.82263821 213.60252513 638.83098961 190.96974182 638.85423279 C165.51143377 638.88033571 140.05317038 638.8931452 114.59484845 638.88604504 C111.8775462 638.88532903 109.16024394 638.88465464 106.44294167 638.88400459 C105.77392773 638.88383478 105.10491379 638.88366497 104.4156267 638.88349002 C94.34021026 638.88119219 84.26483544 638.88913931 74.18942833 638.90229607 C62.72376116 638.91703479 51.25819781 638.91763158 39.79253265 638.90022516 C33.94737016 638.89172655 28.102393 638.88953792 22.2572403 638.90487671 C16.89734675 638.91876749 11.53779655 638.9139042 6.17792264 638.89463747 C4.24803894 638.89089061 2.31812745 638.89376111 0.38826861 638.90424912 C-14.40366579 638.97886528 -29.35576824 637.874236 -42.62278748 630.63768005 C-43.27763123 630.29478943 -43.93247498 629.9518988 -44.60716248 629.59861755 C-50.34705341 626.49658577 -55.36992603 622.79377932 -60.18528748 618.38768005 C-60.86720154 617.79728943 -61.5491156 617.2068988 -62.25169373 616.59861755 C-76.37814059 603.60560381 -84.94980078 583.81042435 -86.46662903 564.87565613 C-86.5740013 561.27024171 -86.60077072 557.6743467 -86.59153748 554.06736755 C-86.59963745 552.72787456 -86.60934307 551.38839046 -86.62052917 550.04891968 C-86.64244229 547.23512222 -86.65730269 544.42142696 -86.66636658 541.6075592 C-86.69327717 534.28510063 -86.7873374 526.96334508 -86.88841248 519.6415863 C-86.9030315 518.56489087 -86.9030315 518.56489087 -86.91794586 517.46644402 C-87.65618657 465.27196606 -93.25422864 404.86469187 -128.18528748 363.38768005 C-129.02640076 362.37447693 -129.02640076 362.37447693 -129.88450623 361.34080505 C-141.52386785 348.55803007 -157.70560328 343.38398627 -174.18528748 340.38768005 C-174.18528748 326.52768005 -174.18528748 312.66768005 -174.18528748 298.38768005 C-167.91528748 296.73768005 -161.64528748 295.08768005 -155.18528748 293.38768005 C-147.19817111 289.92157295 -140.81564399 285.96176097 -134.18528748 280.38768005 C-132.96905701 279.47115662 -132.96905701 279.47115662 -131.72825623 278.53611755 C-98.92710827 250.82393418 -92.00328564 193.53598156 -88.48707581 154.02046204 C-87.52076473 142.38847661 -87.04721466 130.8413092 -87.00950623 119.16893005 C-86.99364571 117.05598805 -86.97494988 114.94308111 -86.9563036 112.83016205 C-86.91143539 107.71572991 -86.87299153 102.6014203 -86.85935974 97.48680115 C-86.76301967 66.07796797 -86.76301967 66.07796797 -82.18528748 53.38768005 C-81.7971991 52.28472595 -81.40911072 51.18177185 -81.00926208 50.0453949 C-73.23335161 28.99263433 -56.75563585 13.91065745 -36.80638123 4.6415863 C-24.41496928 0.35070903 -12.97210898 -0.04350697 0 0 Z " fill="#7C11F7" transform="translate(174.18528747558594,-0.3876800537109375)"/>
<path d="M0 0 C186.08965517 0 186.08965517 0 215 24 C215.59296875 24.44730469 216.1859375 24.89460938 216.796875 25.35546875 C229.99355867 35.67672822 239.01565901 53.16949848 241.70703125 69.52392578 C242.30627691 74.58855035 242.3986716 79.65443199 242.4375 84.75 C242.44773193 85.77907471 242.45796387 86.80814941 242.46850586 87.8684082 C242.27125529 105.12024628 235.82207466 120.70430827 225 134 C224.39542969 134.77988281 223.79085937 135.55976563 223.16796875 136.36328125 C213.42233108 148.24270064 199.42464968 155.37809287 185 160 C185.9796875 160.27585937 186.959375 160.55171875 187.96875 160.8359375 C213.8796995 168.26322272 235.58232539 178.6627489 249.55200195 202.94384766 C257.14920897 216.77581169 259.31725701 228.95962367 259.4375 244.625 C259.44789307 245.82801758 259.45828613 247.03103516 259.46899414 248.27050781 C259.22136594 273.32023497 249.7270169 294.5976313 232 312 C177.1598836 364.40836811 44.66214444 341 0 341 C0 228.47 0 115.94 0 0 Z " fill="#F6EFFD" transform="translate(277,148)"/>
<path d="M0 0 C14.23125 -0.04125 28.4625 -0.0825 43.125 -0.125 C47.5917627 -0.14320801 52.05852539 -0.16141602 56.66064453 -0.18017578 C62.18334961 -0.18920898 62.18334961 -0.18920898 64.7819519 -0.19088745 C66.56801352 -0.19392622 68.35407146 -0.20089167 70.1401062 -0.21115112 C84.16539447 -0.28757525 97.78388652 0.02826655 111.1875 4.6875 C111.94724121 4.94877686 112.70698242 5.21005371 113.48974609 5.47924805 C126.5145722 10.16303203 135.83926436 17.65346674 142.375 29.9375 C148.73481421 43.69405466 148.9286416 59.50032039 144.26953125 73.83984375 C140.36440943 83.56059315 134.53910797 91.92381433 125.625 97.5625 C125.01994629 97.94672119 124.41489258 98.33094238 123.79150391 98.72680664 C107.20942812 108.81107698 88.77381773 109.29931741 69.921875 109.1953125 C68.12711715 109.19236561 66.33235757 109.19032916 64.53759766 109.18920898 C57.94170526 109.17879649 51.34584986 109.15087416 44.75 109.125 C29.9825 109.08375 15.215 109.0425 0 109 C0 73.03 0 37.06 0 0 Z " fill="#7811F1" transform="translate(333,335)"/>
<path d="M0 0 C12.931875 -0.04125 25.86375 -0.0825 39.1875 -0.125 C43.24571045 -0.14320801 47.3039209 -0.16141602 51.48510742 -0.18017578 C56.5045166 -0.18920898 56.5045166 -0.18920898 58.86665344 -0.19088745 C60.4894267 -0.19392527 62.11219592 -0.20088867 63.73493958 -0.21115112 C83.47215037 -0.32955128 103.71505471 1.03629575 119 15 C128.72338812 25.47603531 131.50074177 37.20557094 131.1875 51.15625 C130.53992884 64.4314588 124.99503332 75.44976801 115.4375 84.625 C102.66309881 95.26629435 84.38568013 99.1992132 68.11523438 99.11352539 C67.36094398 99.11364593 66.60665359 99.11376646 65.82950592 99.11389065 C63.41755598 99.11315157 61.0056859 99.10556979 58.59375 99.09765625 C57.09277382 99.09618371 55.59179712 99.09516492 54.09082031 99.09460449 C48.56053898 99.08938778 43.03026868 99.07542653 37.5 99.0625 C25.125 99.041875 12.75 99.02125 0 99 C0 66.33 0 33.66 0 0 Z " fill="#7C11F2" transform="translate(333,193)"/>
<path d="M0 0 C3.44428265 1.44781793 5.36130962 3.27694609 7.75 6.125 C8.36359375 6.84945313 8.9771875 7.57390625 9.609375 8.3203125 C10.29773438 9.15175781 10.29773438 9.15175781 11 10 C10.34 10.66 9.68 11.32 9 12 C7.49405319 10.38050958 5.99539332 8.75424026 4.5 7.125 C3.6646875 6.22007812 2.829375 5.31515625 1.96875 4.3828125 C0 2 0 2 0 0 Z " fill="#EFE4FC" transform="translate(510,332)"/>
</svg>
