<?xml version="1.0" encoding="UTF-8"?>
<svg version="1.1" xmlns="http://www.w3.org/2000/svg" width="664" height="394">
<path d="M0 0 C219.12 0 438.24 0 664 0 C664 130.02 664 260.04 664 394 C444.88 394 225.76 394 0 394 C0 263.98 0 133.96 0 0 Z " fill="#FEFEFE" transform="translate(0,0)"/>
<path d="M0 0 C9.07480005 7.72584328 17.10522152 18.75742502 18.3125 30.96875 C18.84107143 45.38303571 18.84107143 45.38303571 17.3125 49.96875 C-6.7775 49.96875 -30.8675 49.96875 -55.6875 49.96875 C-50.29202374 62.66548625 -50.29202374 62.66548625 -40.3359375 70.11328125 C-29.68242147 73.24343802 -19.68540067 73.14007793 -9.6875 67.96875 C-7.09777574 66.11894696 -4.9732859 64.20374066 -2.6875 61.96875 C0.93840381 63.52511242 3.48108915 65.7480423 6.375 68.40625 C7.23222656 69.18871094 8.08945312 69.97117187 8.97265625 70.77734375 C10.78846434 72.47795867 12.57093926 74.19292904 14.3125 75.96875 C5.31580258 86.46489699 -6.30495681 92.9746463 -20.17822266 94.1862793 C-36.56911119 94.94439306 -50.12692694 92.73214288 -63.09765625 81.96875 C-72.94558113 72.76200887 -78.44306703 61.1990753 -78.92578125 47.7734375 C-79.3111152 27.14418514 -79.3111152 27.14418514 -74.6875 17.96875 C-74.03394531 16.65583984 -74.03394531 16.65583984 -73.3671875 15.31640625 C-66.57787013 2.98062469 -55.75445459 -4.77626336 -42.296875 -8.734375 C-26.87933143 -10.48846678 -12.73693506 -9.63434831 0 0 Z " fill="#210555" transform="translate(271.6875,158.03125)"/>
<path d="M0 0 C7.59 0 15.18 0 23 0 C23.33 28.05 23.66 56.1 24 85 C32.16276833 76.12012817 32.16276833 76.12012817 40.140625 67.10546875 C42.93126078 63.94548412 45.78224064 60.83633328 48.70703125 57.79980469 C51.24624698 55.12008568 53.35451229 52.54281029 55.203125 49.33984375 C57.61813523 45.42090971 59.78123475 42.09379954 64 40 C72.87916165 38.39911284 82.06380687 39.19984283 91 40 C89.71104283 42.81351786 88.33731495 44.9325707 86.20703125 47.171875 C85.66272461 47.74969727 85.11841797 48.32751953 84.55761719 48.92285156 C83.98172852 49.52581055 83.40583984 50.12876953 82.8125 50.75 C81.62547304 52.00963593 80.43926755 53.2700465 79.25390625 54.53125 C78.68687988 55.13324219 78.11985352 55.73523438 77.53564453 56.35546875 C75.1880728 58.86949787 72.93304995 61.45766206 70.6875 64.0625 C67.84840724 67.3221991 64.92635711 70.50742611 62.015625 73.703125 C61.01789063 74.84007812 61.01789063 74.84007812 60 76 C59.37609375 76.65484375 58.7521875 77.3096875 58.109375 77.984375 C56.73775193 79.95248438 56.73775193 79.95248438 57.48046875 82.1875 C59.64639373 86.19640999 61.94472909 90.1072305 64.3125 94 C64.8394043 94.87213135 65.36630859 95.7442627 65.90917969 96.64282227 C72.70807191 107.86780534 79.61972477 119.02610812 86.59765625 130.140625 C86.97760742 130.74914307 87.35755859 131.35766113 87.74902344 131.98461914 C88.73175141 133.55820215 89.71918277 135.12884519 90.70703125 136.69921875 C92 139 92 139 92 141 C69.95671258 143.66905902 69.95671258 143.66905902 63.98046875 139.63769531 C60.68490562 135.81203191 58.95525233 131.19846766 57.11767578 126.54638672 C55.1116836 121.97615988 52.29793609 117.90995642 49.5625 113.75 C48.56113137 112.18399623 47.56227522 110.61638191 46.56640625 109.046875 C46.1192627 108.34498047 45.67211914 107.64308594 45.21142578 106.91992188 C43.76990175 104.63532998 42.37267234 102.32656328 41 100 C37.72344492 101.40526214 35.84567314 103.02917473 33.5625 105.75 C32.72912109 106.73226562 32.72912109 106.73226562 31.87890625 107.734375 C31.25886719 108.48203125 30.63882812 109.2296875 30 110 C29.11828125 110.81210938 28.2365625 111.62421875 27.328125 112.4609375 C23.47704468 117.08427962 24.21653505 123.15832089 24.1875 128.875 C24.16236328 130.0403125 24.13722656 131.205625 24.11132812 132.40625 C24.05263504 135.27047239 24.0234116 138.13527197 24 141 C16.08 141 8.16 141 0 141 C0 94.47 0 47.94 0 0 Z " fill="#220757" transform="translate(375,110)"/>
<path d="M0 0 C2.15796759 1.91493434 4.06347174 3.85411733 6 6 C4.40153531 10.24908336 1.1869608 12.82225739 -2.125 15.75 C-2.96998047 16.50990234 -2.96998047 16.50990234 -3.83203125 17.28515625 C-5.21651531 18.52884532 -6.60761488 19.76516305 -8 21 C-8.69222656 20.41992188 -8.69222656 20.41992188 -9.3984375 19.828125 C-19.27111991 11.94558805 -28.58697335 9.70205142 -41.04541016 10.72949219 C-47.90590584 11.67895874 -53.60084105 15.47603525 -57.75 20.93359375 C-63.12935418 29.82633863 -64.56829793 39.09781178 -62.26953125 49.21484375 C-59.69496857 57.71615482 -56.45821831 62.83244207 -48.6875 67.375 C-40.21387235 71.3251905 -31.41674438 71.53645141 -22.48828125 69.00390625 C-17.31604097 66.9617302 -13.25917878 64.59152373 -9 61 C-4.87582937 62.6616804 -1.93445961 65.62338018 1.25 68.625 C1.80429688 69.140625 2.35859375 69.65625 2.9296875 70.1875 C4.2902712 71.45425035 5.64565837 72.72657815 7 74 C5.70640961 77.88077116 3.36866656 79.22499054 0.125 81.4375 C-0.46071777 81.83783447 -1.04643555 82.23816895 -1.64990234 82.65063477 C-15.26181205 91.65705269 -32.34771284 94.02648472 -48.3125 91.25 C-61.70183653 88.09956788 -73.13638562 80.27517183 -80.50390625 68.62109375 C-87.91501661 54.83864075 -89.28005142 38.65113941 -85.4375 23.5625 C-80.95929215 9.9386564 -72.59312989 0.34233083 -60.14453125 -6.48828125 C-41.08829545 -15.64947784 -16.58433871 -12.78891791 0 0 Z " fill="#210556" transform="translate(134,160)"/>
<path d="M0 0 C7.92 0 15.84 0 24 0 C24 46.53 24 93.06 24 141 C16.08 141 8.16 141 0 141 C0 94.47 0 47.94 0 0 Z " fill="#2A0E5D" transform="translate(155,110)"/>
<path d="M0 0 C0 8.25 0 16.5 0 25 C-2.805 25.20625 -5.61 25.4125 -8.5 25.625 C-15.76386564 26.32287541 -20.94049205 27.37675857 -26 33 C-26.763125 33.7425 -27.52625 34.485 -28.3125 35.25 C-33.15596228 43.14304965 -33.46062643 51.75727763 -33.51171875 60.7890625 C-33.52966995 61.97349945 -33.54762115 63.1579364 -33.56611633 64.37826538 C-33.61989989 68.1271417 -33.65401292 71.87589304 -33.6875 75.625 C-33.7207012 78.18100685 -33.75519342 80.73699729 -33.79101562 83.29296875 C-33.87801587 89.52866067 -33.93836067 95.76380062 -34 102 C-41.59 102 -49.18 102 -57 102 C-57 68.67 -57 35.34 -57 1 C-49.41 1 -41.82 1 -34 1 C-33.67 5.29 -33.34 9.58 -33 14 C-31.576875 12.618125 -30.15375 11.23625 -28.6875 9.8125 C-19.33261232 1.47072955 -13.07323989 0 0 0 Z " fill="#200455" transform="translate(361,149)"/>
<path d="M0 0 C7.31386955 4.61758652 9.60382236 10.12396708 12.375 18.4375 C-4.125 18.4375 -20.625 18.4375 -37.625 18.4375 C-36.2032762 11.328881 -32.85823413 5.76177291 -26.9375 1.4375 C-19.79722544 -2.87360917 -7.73367281 -3.52764023 0 0 Z " fill="#FAF8FB" transform="translate(254.625,171.5625)"/>
<path d="M0 0 C1.32 0 2.64 0 4 0 C3.6749605 0.54515636 3.349921 1.09031273 3.01503181 1.65198898 C1.7986683 4.46572831 1.75375605 6.50572954 1.75949097 9.56817627 C1.75674164 10.70117157 1.75399231 11.83416687 1.75115967 13.00149536 C1.75835022 14.24011322 1.76554077 15.47873108 1.77294922 16.75488281 C1.77265717 18.06244537 1.77236511 19.37000793 1.77206421 20.7171936 C1.77149042 24.29954214 1.78324893 27.88175673 1.79721212 31.46407413 C1.80971511 35.20901371 1.81088964 38.95395635 1.81326294 42.69891357 C1.81947898 49.78908663 1.83589147 56.879198 1.85596192 63.9693439 C1.87831707 72.04182578 1.88931338 80.11431061 1.89935279 88.18681574 C1.92025759 104.79124762 1.95583886 121.3956135 2 138 C7.94 137.67 13.88 137.34 20 137 C20.33 91.79 20.66 46.58 21 0 C21.33 0 21.66 0 22 0 C22 45.87 22 91.74 22 139 C14.74 139 7.48 139 0 139 C0 93.13 0 47.26 0 0 Z " fill="#1B054A" transform="translate(156,111)"/>
<path d="M0 0 C0.33 0 0.66 0 1 0 C1 17.49 1 34.98 1 53 C-0.65 53 -2.3 53 -4 53 C-3.01 52.505 -3.01 52.505 -2 52 C-1.98969254 51.45178085 -1.97938507 50.90356171 -1.96876526 50.33872986 C-1.86024271 44.61185883 -1.74568462 38.8851307 -1.62768555 33.15844727 C-1.58448277 31.02371218 -1.54279789 28.88894579 -1.50268555 26.75415039 C-1.44462646 23.67845241 -1.38103616 20.60290984 -1.31640625 17.52734375 C-1.29969376 16.57915268 -1.28298126 15.63096161 -1.26576233 14.65403748 C-1.15561517 9.68156501 -0.82891423 4.90563828 0 0 Z " fill="#1C0645" transform="translate(326,197)"/>
<path d="M0 0 C7.59 0 15.18 0 23 0 C23 4.95 23 9.9 23 15 C22.34 14.67 21.68 14.34 21 14 C21 10.7 21 7.4 21 4 C14.81173338 2.45293335 8.81693336 2.00339797 3 5 C2.01 5.495 2.01 5.495 1 6 C0.67 4.02 0.34 2.04 0 0 Z M16 4 C16.66 4 17.32 4 18 4 C18 6.31 18 8.62 18 11 C16 9 16 9 15.875 6.375 C15.91625 5.59125 15.9575 4.8075 16 4 Z " fill="#240D4F" transform="translate(304,150)"/>
<path d="M0 0 C8.91 0 17.82 0 27 0 C25.11656068 3.76687864 24.30867531 4.79421646 21 7 C21.33 5.68 21.66 4.36 22 3 C14.74 2.67 7.48 2.34 0 2 C0 1.34 0 0.68 0 0 Z " fill="#39255D" transform="translate(439,150)"/>
<path d="M0 0 C0.66 0.33 1.32 0.66 2 1 C-0.07995738 4.11993607 -1.67738067 5.38615633 -5 7 C-7.06570753 8.59876627 -9.0217792 10.29153659 -11 12 C-9.65422692 7.71866696 -7.97986553 5.81390203 -4.375 3.1875 C-3.55773437 2.58292969 -2.74046875 1.97835937 -1.8984375 1.35546875 C-0.95871094 0.68451172 -0.95871094 0.68451172 0 0 Z " fill="#E5DCED" transform="translate(231,171)"/>
<path d="M0 0 C0 0.66 0 1.32 0 2 C-1.65 2.33 -3.3 2.66 -5 3 C-5 3.66 -5 4.32 -5 5 C-9.95 5 -14.9 5 -20 5 C-20 4.67 -20 4.34 -20 4 C-19.11957031 3.87882813 -18.23914063 3.75765625 -17.33203125 3.6328125 C-16.17058594 3.46523437 -15.00914062 3.29765625 -13.8125 3.125 C-12.66394531 2.96257812 -11.51539063 2.80015625 -10.33203125 2.6328125 C-6.82125187 1.96605252 -3.52032497 0 0 0 Z " fill="#4A396C" transform="translate(262,227)"/>
<path d="M0 0 C0.66 0.66 1.32 1.32 2 2 C1.5390625 5.2578125 1.5390625 5.2578125 0.625 9.125 C0.32851563 10.40632812 0.03203125 11.68765625 -0.2734375 13.0078125 C-0.51320312 13.99523437 -0.75296875 14.98265625 -1 16 C-1.66 16 -2.32 16 -3 16 C-2.57910004 10.39538469 -2.08386889 5.27913453 0 0 Z " fill="#311C5A" transform="translate(50,180)"/>
<path d="M0 0 C1.078125 1.78515625 1.078125 1.78515625 2 4 C0.75 7.4375 0.75 7.4375 -1 11 C-1.67276716 12.6642135 -2.34206835 14.32986582 -3 16 C-4.49828872 12.11764181 -3.43110582 9.56550712 -2.0625 5.75 C-1.68222656 4.67234375 -1.30195313 3.5946875 -0.91015625 2.484375 C-0.45962891 1.25460938 -0.45962891 1.25460938 0 0 Z " fill="#39245E" transform="translate(197,176)"/>
<path d="M0 0 C2.66666667 2.66666667 5.33333333 5.33333333 8 8 C6.824375 7.9690625 6.824375 7.9690625 5.625 7.9375 C3.01885039 7.81315937 3.01885039 7.81315937 1 9 C0 2.25 0 2.25 0 0 Z " fill="#270F58" transform="translate(220,219)"/>
<path d="M0 0 C0.66 0 1.32 0 2 0 C0.55575365 3.23861303 -1.25772247 5.61969163 -3.625 8.25 C-4.25664063 8.95640625 -4.88828125 9.6628125 -5.5390625 10.390625 C-6.02117187 10.92171875 -6.50328125 11.4528125 -7 12 C-7.33 11.34 -7.66 10.68 -8 10 C-7.04367001 8.70684939 -6.08486149 7.41553147 -5.125 6.125 C-4.59132813 5.40570313 -4.05765625 4.68640625 -3.5078125 3.9453125 C-2 2 -2 2 0 0 Z " fill="#E1D8EC" transform="translate(81,175)"/>
<path d="M0 0 C1 2 1 2 0.375 4.4375 C-1.29368348 7.54731922 -2.81017219 8.56457749 -6 10 C-6.66 9.67 -7.32 9.34 -8 9 C-5.36 6.03 -2.72 3.06 0 0 Z " fill="#331E5B" transform="translate(412,180)"/>
<path d="M0 0 C0.33 0.99 0.66 1.98 1 3 C-0.36328125 5.04296875 -0.36328125 5.04296875 -2.3125 7.1875 C-2.94800781 7.90292969 -3.58351563 8.61835938 -4.23828125 9.35546875 C-6 11 -6 11 -8 11 C-6.63629701 8.00779732 -5.05091917 5.70973471 -2.875 3.25 C-2.33617187 2.63640625 -1.79734375 2.0228125 -1.2421875 1.390625 C-0.62730469 0.70226562 -0.62730469 0.70226562 0 0 Z " fill="#341F5D" transform="translate(438,151)"/>
<path d="M0 0 C0.99 0.33 1.98 0.66 3 1 C2.67 1.78375 2.34 2.5675 2 3.375 C0.88133489 5.84332497 0.88133489 5.84332497 1 8 C-0.65 8 -2.3 8 -4 8 C-2.66666667 5.33333333 -1.33333333 2.66666667 0 0 Z " fill="#281156" transform="translate(431,186)"/>
<path d="M0 0 C0.33 0.66 0.66 1.32 1 2 C2.84971696 3.05021103 2.84971696 3.05021103 5 4 C6.33333333 4.66666667 7.66666667 5.33333333 9 6 C8.67 6.99 8.34 7.98 8 9 C6.70684939 8.04367001 5.41553147 7.08486149 4.125 6.125 C3.40570313 5.59132812 2.68640625 5.05765625 1.9453125 4.5078125 C0 3 0 3 -2 1 C-1.34 0.67 -0.68 0.34 0 0 Z " fill="#291752" transform="translate(118,172)"/>
<path d="M0 0 C0.66 0 1.32 0 2 0 C3.32 2.64 4.64 5.28 6 8 C5.01 8 4.02 8 3 8 C2.67 6.35 2.34 4.7 2 3 C1.34 3 0.68 3 0 3 C0 2.01 0 1.02 0 0 Z " fill="#2D1856" transform="translate(435,200)"/>
<path d="M0 0 C0.66 0 1.32 0 2 0 C2 1.32 2 2.64 2 4 C0 5.75 0 5.75 -2 7 C-2.66 6.67 -3.32 6.34 -4 6 C-2.7260411 3.96166576 -1.38938077 1.96147874 0 0 Z " fill="#291355" transform="translate(57,168)"/>
<path d="M0 0 C0 3.58912412 -0.66436554 4.10857029 -3 6.6875 C-3.556875 7.31011719 -4.11375 7.93273437 -4.6875 8.57421875 C-5.120625 9.04472656 -5.55375 9.51523438 -6 10 C-6 6.41087588 -5.33563446 5.89142971 -3 3.3125 C-2.443125 2.68988281 -1.88625 2.06726563 -1.3125 1.42578125 C-0.879375 0.95527344 -0.44625 0.48476562 0 0 Z " fill="#E0D6EA" transform="translate(438,182)"/>
<path d="M0 0 C1.65 0 3.3 0 5 0 C3.35 1.98 1.7 3.96 0 6 C-1.125 2.25 -1.125 2.25 0 0 Z " fill="#2B1358" transform="translate(445,169)"/>
<path d="M0 0 C3.6875 0.875 3.6875 0.875 7 2 C7 2.33 7 2.66 7 3 C3.7 3.33 0.4 3.66 -3 4 C-3 3.34 -3 2.68 -3 2 C-2.01 1.34 -1.02 0.68 0 0 Z " fill="#1C034C" transform="translate(94,166)"/>
<path d="M0 0 C3.875 1.75 3.875 1.75 5 4 C2.03 4 -0.94 4 -4 4 C-2.68 2.68 -1.36 1.36 0 0 Z " fill="#3A2961" transform="translate(125,221)"/>
<path d="M0 0 C0.66 0.33 1.32 0.66 2 1 C1.67 2.32 1.34 3.64 1 5 C-0.98 5.33 -2.96 5.66 -5 6 C-3.35 4.02 -1.7 2.04 0 0 Z " fill="#38245F" transform="translate(211,158)"/>
</svg>
