<?xml version="1.0" encoding="UTF-8"?>
<svg version="1.1" xmlns="http://www.w3.org/2000/svg" width="400" height="400">
<path d="M0 0 C4.00870131 1.33623377 5.36340635 3.95293911 7.625 7.3125 C8.03234375 7.89451172 8.4396875 8.47652344 8.859375 9.07617188 C10.49127214 11.4618758 11.88320328 13.5304772 12.5859375 16.35546875 C12.72257812 16.89816406 12.85921875 17.44085938 13 18 C13.99 18.33 14.98 18.66 16 19 C17.5859375 20.828125 17.5859375 20.828125 19.375 23.25 C26.77041295 32.74669265 35.27004104 40.94101017 45 48 C45 48.66 45 49.32 45 50 C46.32 50.33 47.64 50.66 49 51 C49 51.66 49 52.32 49 53 C49.69867188 53.2475 50.39734375 53.495 51.1171875 53.75 C54.41217303 55.17872001 57.1472689 56.99092841 60.125 59 C99.16073632 84.62213536 147.80229565 95.71233938 193.9375 86.375 C201.43444115 84.76675545 208.7847262 82.7086407 216.125 80.5 C217.07238037 80.21560059 218.01976074 79.93120117 218.99584961 79.63818359 C224.87345454 77.81458302 230.4455684 75.64600875 236 73 C236.66225586 72.68530762 237.32451172 72.37061523 238.00683594 72.04638672 C269.97735709 56.62145075 295.40413277 35.90389939 316 7 C316.94267156 5.6809633 317.88537855 4.36195192 318.828125 3.04296875 C319.54484375 2.03878906 320.2615625 1.03460938 321 0 C322.3071363 4.34423488 321.53892115 8.11786037 320.75 12.5 C320.53585449 13.71538452 320.53585449 13.71538452 320.31738281 14.95532227 C313.45919762 53.01219431 294.58992971 86.29127942 268 114 C267.52498047 114.49693359 267.04996094 114.99386719 266.56054688 115.50585938 C261.37606571 120.89967356 256.21858222 125.80921633 250 130 C249.67 130.66 249.34 131.32 249 132 C248.01 132.33 247.02 132.66 246 133 C245.566875 133.433125 245.13375 133.86625 244.6875 134.3125 C242.36739482 136.63260518 239.78535904 138.28137421 237 140 C236.34 140 235.68 140 235 140 C235 140.66 235 141.32 235 142 C216.81808367 152.65800239 199.05831753 161.46758025 179 168 C178.02804688 168.31839844 177.05609375 168.63679687 176.0546875 168.96484375 C158.38378955 174.22065745 140.46459609 175.71787549 122.125 175.5625 C121.07782806 175.55923706 120.03065613 175.55597412 118.95175171 175.5526123 C103.42481161 175.48210734 88.92761533 174.59941154 74 170 C72.74316406 169.65453125 71.48632812 169.3090625 70.19140625 168.953125 C67.08645451 168.06077138 64.05143544 167.05907533 61 166 C59.845 165.63261719 58.69 165.26523437 57.5 164.88671875 C35.40967638 157.57882074 23.34660962 142.9395893 13 123 C12.68289062 122.4023584 12.36578125 121.8047168 12.0390625 121.18896484 C-6.22415241 86.42836937 -11.43418537 40.01138227 -1 2 C-0.67 1.34 -0.34 0.68 0 0 Z " fill="#F5AF18" transform="translate(76,225)"/>
<path d="M0 0 C1.91063232 0.00628418 1.91063232 0.00628418 3.85986328 0.01269531 C24.16907891 0.25255789 43.26656289 3.91870097 62.1875 11.3125 C63.99927734 11.993125 63.99927734 11.993125 65.84765625 12.6875 C72.54395551 15.2397158 78.84595963 18.01049009 84.9140625 21.87109375 C87.21006465 23.32680645 89.54901729 24.64010158 91.9375 25.9375 C95.49614859 27.9032899 98.92218913 29.88444833 102.1875 32.3125 C102.1875 32.9725 102.1875 33.6325 102.1875 34.3125 C102.73277344 34.37566406 103.27804688 34.43882813 103.83984375 34.50390625 C107.21791794 35.66740268 109.17045221 37.80381659 111.75 40.25 C114.50934016 42.85209147 117.03021117 45.20764078 120.1875 47.3125 C120.1875 47.9725 120.1875 48.6325 120.1875 49.3125 C120.8475 49.3125 121.5075 49.3125 122.1875 49.3125 C122.1875 49.9725 122.1875 50.6325 122.1875 51.3125 C119.5034518 52.6545241 117.01930806 52.44101597 114.06835938 52.5012207 C97.33326359 52.90050863 80.84769145 56.40259124 65.1875 62.3125 C63.95257813 62.74175781 62.71765625 63.17101562 61.4453125 63.61328125 C46.34813775 68.92779453 27.62540337 76.87459663 16.1875 88.3125 C15.1975 88.3125 14.2075 88.3125 13.1875 88.3125 C12.8575 89.3025 12.5275 90.2925 12.1875 91.3125 C10.47265625 92.8203125 10.47265625 92.8203125 8.25 94.4375 C0.81834487 100.04383632 -6.01215653 106.02063963 -11.8125 113.3125 C-12.56273438 114.03953125 -13.31296875 114.7665625 -14.0859375 115.515625 C-17.24384061 118.754964 -19.9278559 122.18829426 -22.625 125.8125 C-23.14980957 126.51592529 -23.67461914 127.21935059 -24.21533203 127.9440918 C-28.81437503 134.1830326 -32.93124962 140.59898583 -36.8125 147.3125 C-37.34359375 148.199375 -37.8746875 149.08625 -38.421875 150 C-46.51446714 164.01603586 -50.65364262 179.78588232 -54.8125 195.3125 C-54.9966748 195.98780762 -55.18084961 196.66311523 -55.37060547 197.35888672 C-64.33579402 231.41634753 -61.89318316 270.78093911 -49.5625 303.6875 C-49.11668579 304.89297485 -49.11668579 304.89297485 -48.66186523 306.12280273 C-46.22397884 312.55971745 -43.32323724 318.64722128 -40.09765625 324.72265625 C-38.8125 327.3125 -38.8125 327.3125 -38.8125 329.3125 C-43.11765286 327.86433158 -46.13247533 325.69254712 -49.625 322.8125 C-50.60082031 322.0184375 -51.57664062 321.224375 -52.58203125 320.40625 C-53.31808594 319.7153125 -54.05414063 319.024375 -54.8125 318.3125 C-54.8125 317.6525 -54.8125 316.9925 -54.8125 316.3125 C-55.8025 315.9825 -56.7925 315.6525 -57.8125 315.3125 C-57.8125 314.6525 -57.8125 313.9925 -57.8125 313.3125 C-59.1325 312.6525 -60.4525 311.9925 -61.8125 311.3125 C-61.8125 310.6525 -61.8125 309.9925 -61.8125 309.3125 C-62.8025 308.9825 -63.7925 308.6525 -64.8125 308.3125 C-64.8125 307.6525 -64.8125 306.9925 -64.8125 306.3125 C-65.37453125 306.10496094 -65.9365625 305.89742188 -66.515625 305.68359375 C-69.62438939 303.82785174 -71.45302982 301.24371448 -73.5625 298.375 C-73.99715576 297.79524414 -74.43181152 297.21548828 -74.87963867 296.61816406 C-75.76973561 295.42746207 -76.65605669 294.23392813 -77.53857422 293.03759766 C-78.70436933 291.45892608 -79.88466957 289.89099269 -81.06640625 288.32421875 C-85.14842241 282.84796558 -88.64668312 277.35393387 -91.8125 271.3125 C-92.50873976 270.05245738 -93.2068284 268.79343548 -93.90625 267.53515625 C-99.12526302 258.053159 -103.3692462 248.56921504 -106.8125 238.3125 C-107.03921387 237.64863281 -107.26592773 236.98476563 -107.49951172 236.30078125 C-114.52062628 215.57320822 -117.18897355 194.5278212 -117.07324219 172.70800781 C-117.06250177 170.31289384 -117.07323403 167.91852942 -117.0859375 165.5234375 C-117.10183954 148.68339481 -115.22164634 132.56769417 -110.8125 116.3125 C-110.60109375 115.52085449 -110.3896875 114.72920898 -110.171875 113.91357422 C-105.93094605 98.25973837 -100.20039246 83.24678389 -91.8125 69.3125 C-91.14154297 68.14074219 -91.14154297 68.14074219 -90.45703125 66.9453125 C-86.65975052 60.40951028 -82.3739765 54.33489232 -77.8125 48.3125 C-77.11954834 47.39621826 -77.11954834 47.39621826 -76.41259766 46.46142578 C-74.92967857 44.50903741 -73.43573421 42.56565425 -71.9375 40.625 C-71.46094971 40.00012695 -70.98439941 39.37525391 -70.4934082 38.73144531 C-69.31385372 37.22022712 -68.06844531 35.76085444 -66.8125 34.3125 C-66.1525 34.3125 -65.4925 34.3125 -64.8125 34.3125 C-64.4825 33.3225 -64.1525 32.3325 -63.8125 31.3125 C-63.1525 31.3125 -62.4925 31.3125 -61.8125 31.3125 C-61.1525 29.9925 -60.4925 28.6725 -59.8125 27.3125 C-59.1525 27.3125 -58.4925 27.3125 -57.8125 27.3125 C-57.3175 25.8275 -57.3175 25.8275 -56.8125 24.3125 C-56.1525 24.3125 -55.4925 24.3125 -54.8125 24.3125 C-54.59851563 23.75046875 -54.38453125 23.1884375 -54.1640625 22.609375 C-49.68510665 14.99773904 -39.33082027 9.74182389 -31.625 5.8125 C-30.99706543 5.48668945 -30.36913086 5.16087891 -29.72216797 4.82519531 C-20.21220186 0.20164682 -10.41588742 -0.04688735 0 0 Z " fill="#8D2476" transform="translate(118.8125,29.6875)"/>
<path d="M0 0 C1.5400621 0.00589142 1.5400621 0.00589142 3.11123657 0.01190186 C18.87900451 0.09680086 33.53175895 1.16508722 48.75 5.5625 C50.50349264 6.02630612 52.25739903 6.48855089 54.01171875 6.94921875 C78.17322337 13.53290312 100.56039159 24.81728038 120.75 39.5625 C121.74 40.2225 122.73 40.8825 123.75 41.5625 C123.75 42.2225 123.75 42.8825 123.75 43.5625 C125.07 43.8925 126.39 44.2225 127.75 44.5625 C127.75 45.2225 127.75 45.8825 127.75 46.5625 C128.31074219 46.80484375 128.87148438 47.0471875 129.44921875 47.296875 C132.21085633 48.8160101 134.25031442 50.67145257 136.5625 52.8125 C139.47195253 55.48731926 142.38354153 58.11688479 145.4375 60.625 C148.69422525 63.38246312 151.42041214 66.48756488 154.17578125 69.73828125 C155.82321717 71.70061047 155.82321717 71.70061047 158.125 73.875 C159.75 75.5625 159.75 75.5625 160.75 78.5625 C161.513125 79.325625 162.27625 80.08875 163.0625 80.875 C165.82380418 83.63630418 167.66984142 86.25871872 169.75 89.5625 C170.25273437 90.32175781 170.75546875 91.08101563 171.2734375 91.86328125 C181.04014731 106.77850551 189.84925922 123.35357692 194.75 140.5625 C195.07742188 141.69042969 195.40484375 142.81835938 195.7421875 143.98046875 C202.78748894 169.20470494 203.75988206 192.29431258 190.75 215.5625 C188.51131915 219.29675052 186.16474639 222.94038041 183.75 226.5625 C183.33492188 227.22636719 182.91984375 227.89023438 182.4921875 228.57421875 C181.63282839 229.93964489 180.70101781 231.25925338 179.75 232.5625 C179.09 232.5625 178.43 232.5625 177.75 232.5625 C177.64292725 233.15401855 177.53585449 233.74553711 177.42553711 234.35498047 C176.65925395 236.85903985 175.73640388 237.99701732 173.94140625 239.8828125 C173.07636475 240.80163208 173.07636475 240.80163208 172.19384766 241.73901367 C171.57300293 242.38201416 170.9521582 243.02501465 170.3125 243.6875 C169.3541626 244.6916394 169.3541626 244.6916394 168.37646484 245.71606445 C167.09151386 247.05865901 165.80314949 248.39799585 164.51123047 249.73388672 C163.04476448 251.25645814 161.59967196 252.79957978 160.16015625 254.34765625 C142.08155229 273.35336811 114.61394662 290.21133863 88.75 295.5625 C87.43 295.5625 86.11 295.5625 84.75 295.5625 C86.29447248 291.53475803 88.11897193 287.69317953 90 283.8125 C99.162501 264.41350521 104.85691172 243.91477479 106.75 222.5625 C106.86085938 221.58023438 106.97171875 220.59796875 107.0859375 219.5859375 C109.96633166 193.19529916 105.85588333 166.38766369 96.75 141.5625 C96.35554687 140.38300781 95.96109375 139.20351562 95.5546875 137.98828125 C90.48937982 123.20528074 83.02687268 109.01792977 73.30859375 96.75390625 C71.75 94.5625 71.75 94.5625 70.72265625 91.83984375 C70.24119141 90.71255859 70.24119141 90.71255859 69.75 89.5625 C68.76 89.2325 67.77 88.9025 66.75 88.5625 C63.75 85.11805556 63.75 85.11805556 63.75 82.5625 C62.76 82.2325 61.77 81.9025 60.75 81.5625 C59.20703125 79.9609375 59.20703125 79.9609375 57.5625 77.9375 C54.41791738 74.20162834 51.03268255 71.09106451 47.25390625 68.0078125 C46.75761719 67.53085938 46.26132813 67.05390625 45.75 66.5625 C45.75 65.9025 45.75 65.2425 45.75 64.5625 C45.1725 64.315 44.595 64.0675 44 63.8125 C41.45120619 62.39650344 39.80276785 60.61526785 37.75 58.5625 C36.265 58.0675 36.265 58.0675 34.75 57.5625 C34.15960938 56.96953125 33.56921875 56.3765625 32.9609375 55.765625 C30.35192169 53.16582833 27.47538227 51.26089352 24.375 49.3125 C23.75995605 48.92336426 23.14491211 48.53422852 22.51123047 48.13330078 C20.59741068 46.93198533 18.67607751 45.74405165 16.75 44.5625 C16.16863281 44.20575195 15.58726562 43.84900391 14.98828125 43.48144531 C6.47784148 38.31578364 -2.24753064 34.15062715 -11.42138672 30.32958984 C-13.23796904 29.5675469 -15.04292225 28.77797484 -16.84765625 27.98828125 C-34.98826587 20.38630363 -53.85833002 18.84453682 -73.25 17.5625 C-73.25 16.5725 -73.25 15.5825 -73.25 14.5625 C-53.60641674 6.67481255 -53.60641674 6.67481255 -44.25 4.5625 C-43.23324692 4.32909409 -43.23324692 4.32909409 -42.19595337 4.0909729 C-28.04391735 0.91061865 -14.48152503 -0.12790659 0 0 Z " fill="#ED2F2E" transform="translate(197.25,-0.5625)"/>
</svg>
