<?xml version="1.0" encoding="UTF-8"?>
<svg version="1.1" xmlns="http://www.w3.org/2000/svg" width="349" height="112">
<path d="M0 0 C115.17 0 230.34 0 349 0 C349 36.96 349 73.92 349 112 C233.83 112 118.66 112 0 112 C0 75.04 0 38.08 0 0 Z " fill="#FDFDFD" transform="translate(0,0)"/>
<path d="M0 0 C4.75017907 4.59406989 6.80900455 7.77878826 7.203125 14.42578125 C7.38303821 29.34358496 7.38303821 29.34358496 2.453125 34.671875 C-5.31563635 41.89063555 -14.04551542 41.59471849 -24.109375 41.37890625 C-29.89590831 41.07197796 -34.49626669 39.7629877 -39 36 C-44.42190791 29.62925821 -45.48622527 23.12395803 -45.3046875 14.96484375 C-44.55960884 7.7146552 -40.82884762 2.9432883 -35.2734375 -1.58984375 C-25.38593028 -7.72281644 -9.510438 -6.12894894 0 0 Z " fill="#030303" transform="translate(104,38)"/>
<path d="M0 0 C3.85119505 3.72671198 5.33095616 6.57843866 6.5625 11.8125 C6.5625 15.4425 6.5625 19.0725 6.5625 22.8125 C-4.6575 22.8125 -15.8775 22.8125 -27.4375 22.8125 C-23.27647911 27.87209167 -23.27647911 27.87209167 -19.8503418 28.38012695 C-18.95484619 28.35394287 -18.05935059 28.32775879 -17.13671875 28.30078125 C-15.67202148 28.27661133 -15.67202148 28.27661133 -14.17773438 28.25195312 C-13.17033203 28.21005859 -12.16292969 28.16816406 -11.125 28.125 C-10.09826172 28.10244141 -9.07152344 28.07988281 -8.01367188 28.05664062 C-5.48765334 27.99789601 -2.96238776 27.90822026 -0.4375 27.8125 C-0.4375 31.4425 -0.4375 35.0725 -0.4375 38.8125 C-10.65722892 41.84056783 -24.64940249 43.0541688 -34.68359375 38.7734375 C-40.60648746 35.5283777 -43.51629572 31.96147842 -45.7421875 25.6953125 C-47.51829085 18.33146829 -47.83289325 10.19725708 -43.828125 3.52734375 C-33.52193588 -9.18169283 -12.50591902 -9.97739987 0 0 Z " fill="#070707" transform="translate(263.4375,39.1875)"/>
<path d="M0 0 C3.94608611 2.1261617 5.41949376 4.73798343 6.76171875 8.94921875 C6.92699397 11.70113998 6.99537447 14.34585063 6.95703125 17.09375 C6.95420135 17.86353683 6.95137146 18.63332367 6.94845581 19.42643738 C6.93731032 21.871693 6.91221656 24.31657487 6.88671875 26.76171875 C6.87668165 28.4251249 6.86755708 30.08853682 6.859375 31.75195312 C6.83909563 35.81796623 6.79993742 39.88317686 6.76171875 43.94921875 C0.82171875 43.94921875 -5.11828125 43.94921875 -11.23828125 43.94921875 C-11.73328125 28.60421875 -11.73328125 28.60421875 -12.23828125 12.94921875 C-18.92205348 11.31676322 -18.92205348 11.31676322 -23.23828125 13.94921875 C-23.56828125 23.84921875 -23.89828125 33.74921875 -24.23828125 43.94921875 C-30.17828125 43.94921875 -36.11828125 43.94921875 -42.23828125 43.94921875 C-42.23828125 29.09921875 -42.23828125 14.24921875 -42.23828125 -1.05078125 C-36.62828125 -1.05078125 -31.01828125 -1.05078125 -25.23828125 -1.05078125 C-25.23828125 -0.06078125 -25.23828125 0.92921875 -25.23828125 1.94921875 C-24.53703125 1.66046875 -23.83578125 1.37171875 -23.11328125 1.07421875 C-14.6206674 -2.24897798 -8.68057958 -3.32784897 0 0 Z " fill="#050505" transform="translate(158.23828125,35.05078125)"/>
<path d="M0 0 C6.27 0 12.54 0 19 0 C20.17194297 3.60252876 21.3377536 7.20684371 22.5 10.8125 C22.83386719 11.83666016 23.16773438 12.86082031 23.51171875 13.91601562 C23.82753906 14.89892578 24.14335937 15.88183594 24.46875 16.89453125 C24.76201172 17.80050049 25.05527344 18.70646973 25.35742188 19.63989258 C26 22 26 22 26 25 C26.66 25 27.32 25 28 25 C28.11472656 24.35289063 28.22945312 23.70578125 28.34765625 23.0390625 C29.19470464 19.09293289 30.3042661 15.2471578 31.4375 11.375 C31.65470703 10.611875 31.87191406 9.84875 32.09570312 9.0625 C32.31033203 8.32773437 32.52496094 7.59296875 32.74609375 6.8359375 C32.93872803 6.17126465 33.1313623 5.5065918 33.32983398 4.82177734 C34 3 34 3 36 0 C37.87939453 -0.34057617 37.87939453 -0.34057617 40.1328125 -0.29296875 C40.93847656 -0.28330078 41.74414062 -0.27363281 42.57421875 -0.26367188 C43.83685547 -0.2259668 43.83685547 -0.2259668 45.125 -0.1875 C45.97449219 -0.17396484 46.82398438 -0.16042969 47.69921875 -0.14648438 C49.79974837 -0.11108219 51.89995293 -0.05727401 54 0 C52.08763622 5.91914397 49.99809867 11.72844775 47.6796875 17.5 C47.37555939 18.26175537 47.07143127 19.02351074 46.75808716 19.80834961 C46.12238355 21.39862002 45.48539931 22.98837908 44.84716797 24.57763672 C43.86686584 27.020268 42.89218534 29.46509236 41.91796875 31.91015625 C41.29720717 33.46107049 40.67612525 35.01185657 40.0546875 36.5625 C39.76302704 37.2946875 39.47136658 38.026875 39.17086792 38.78125 C37.11499206 43.88500794 37.11499206 43.88500794 36 45 C33.02539596 45.2069804 30.10268416 45.32453078 27.125 45.375 C25.88169922 45.43107422 25.88169922 45.43107422 24.61328125 45.48828125 C22.3119149 45.52174215 20.25275116 45.47429373 18 45 C16.09375 42.90625 16.09375 42.90625 15 40 C14.57460937 38.95070312 14.14921875 37.90140625 13.7109375 36.8203125 C13.27007812 35.60085937 12.82921875 34.38140625 12.375 33.125 C9.34923036 24.84839607 6.1373998 16.64986588 2.89599609 8.45556641 C2.52039551 7.50214355 2.14479492 6.5487207 1.7578125 5.56640625 C1.4189502 4.70990479 1.08008789 3.85340332 0.73095703 2.97094727 C0 1 0 1 0 0 Z " fill="#040404" transform="translate(165,34)"/>
<path d="M0 0 C0 3.96 0 7.92 0 12 C-0.7425 11.835 -1.485 11.67 -2.25 11.5 C-5.56243819 11.05834157 -8.72580324 10.83228599 -12.0625 10.75 C-13.06410156 10.72421875 -14.06570312 10.6984375 -15.09765625 10.671875 C-18.45304886 11.05121952 -20.29516594 12.01356215 -23 14 C-24.7196266 17.4392532 -24.38219964 21.23164562 -24 25 C-22.27310955 28.28931514 -21.5579199 28.8140267 -18 30 C-11.65020979 30.4849751 -6.08492254 29.80294001 0 28 C0 32.29 0 36.58 0 41 C-5.88186502 42.96062167 -9.90283976 43.33480104 -15.9375 43.3125 C-17.23977539 43.33666992 -17.23977539 43.33666992 -18.56835938 43.36132812 C-26.64929586 43.36743616 -32.46226196 41.24372948 -38.48828125 35.71875 C-43.04760246 30.53502562 -43.51333535 24.3521074 -43.2734375 17.671875 C-42.6422226 11.50400369 -40.92731241 7.53218716 -36.4375 3.1875 C-25.72819942 -5.38777176 -12.29187187 -4.09729062 0 0 Z " fill="#030303" transform="translate(55,36)"/>
<path d="M0 0 C15.65834237 -2.21116759 15.65834237 -2.21116759 20.93261719 1.27880859 C24.49018659 4.7404783 27.14612179 8.83637855 29.75927734 13.03417969 C31.48970839 15.77590161 33.45568239 18.31113505 35.4375 20.875 C36.13617188 21.81730469 36.83484375 22.75960937 37.5546875 23.73046875 C39.49244176 26.33655727 41.46462561 28.91468075 43.4453125 31.48828125 C44.04287354 32.26510254 44.64043457 33.04192383 45.25610352 33.84228516 C46.44743487 35.38897106 47.64059234 36.93425235 48.83569336 38.47802734 C49.64598999 39.53111084 49.64598999 39.53111084 50.47265625 40.60546875 C50.96000244 41.23606201 51.44734863 41.86665527 51.94946289 42.51635742 C53 44 53 44 53 45 C49.79291312 45.23389694 46.58802405 45.37487528 43.375 45.5 C42.01955078 45.60054687 42.01955078 45.60054687 40.63671875 45.703125 C34.02012922 45.8963101 34.02012922 45.8963101 31.01269531 43.25390625 C27 38.03575103 27 38.03575103 27 35 C26.34 35 25.68 35 25 35 C24.7525 35.53625 24.505 36.0725 24.25 36.625 C23.8375 37.40875 23.425 38.1925 23 39 C22.525625 40.03125 22.05125 41.0625 21.5625 42.125 C19 45 19 45 16.79980469 45.48583984 C14.09424511 45.59140507 11.45346552 45.52266828 8.75 45.375 C7.34621094 45.33439453 7.34621094 45.33439453 5.9140625 45.29296875 C3.6070276 45.22234523 1.30469231 45.12380579 -1 45 C2.97497532 38.76379036 7.31464376 33.08702156 12.14453125 27.48046875 C13.96514184 25.04659986 14.74310798 23.97154254 15 21 C13.75126002 18.61319623 13.75126002 18.61319623 11.81640625 16.26953125 C11.13642578 15.38458984 10.45644531 14.49964844 9.75585938 13.58789062 C8.67014648 12.21407227 8.67014648 12.21407227 7.5625 10.8125 C6.14546463 8.98697278 4.7300082 7.16021844 3.31640625 5.33203125 C2.68162354 4.52483643 2.04684082 3.7176416 1.39282227 2.88598633 C0 1 0 1 0 0 Z " fill="#050505" transform="translate(267,34)"/>
<path d="M0 0 C2.90717073 2.21863029 3.83981643 3.51944929 5 7 C5.38758867 12.1355499 5.24778867 15.86645079 2 20 C-1.05123119 21.08642323 -3.78420657 21.36635621 -7 21 C-9.55151968 19.15014823 -10.60976715 17.7804657 -12 15 C-12.23739868 10.17289357 -12.41748143 6.32601941 -10 2 C-6.2794164 -0.48038907 -4.40203429 -0.46337203 0 0 Z " fill="#F3F3F3" transform="translate(89,46)"/>
<path d="M0 0 C0.89267578 0.01804688 1.78535156 0.03609375 2.70507812 0.0546875 C4.90863504 0.10182241 7.11002601 0.16759343 9.3125 0.25 C6.64048391 5.2007214 3.73303919 9.43543643 0.0625 13.6875 C-0.62585938 14.49864258 -0.62585938 14.49864258 -1.328125 15.32617188 C-2.44291876 16.63837703 -3.56448861 17.94482073 -4.6875 19.25 C-8.26187526 15.72368357 -11.52279202 12.13806981 -14.6875 8.25 C-14.05974433 6.89791086 -13.38330267 5.56836295 -12.6875 4.25 C-12.3678125 3.54875 -12.048125 2.8475 -11.71875 2.125 C-8.34604792 -0.98826346 -4.40044328 -0.16739067 0 0 Z " fill="#090909" transform="translate(309.6875,33.75)"/>
<path d="M0 0 C2.8125 2.375 2.8125 2.375 5 5 C5 5.66 5 6.32 5 7 C-0.28 7 -5.56 7 -11 7 C-7.90536634 1.84227724 -6.15316662 -1.02552777 0 0 Z " fill="#F3F3F3" transform="translate(246,45)"/>
</svg>
