<?xml version="1.0" encoding="UTF-8"?>
<svg version="1.1" xmlns="http://www.w3.org/2000/svg" width="360" height="360">
<path d="M0 0 C118.8 0 237.6 0 360 0 C360 118.8 360 237.6 360 360 C241.2 360 122.4 360 0 360 C0 241.2 0 122.4 0 0 Z " fill="#F6DE1D" transform="translate(0,0)"/>
<path d="M0 0 C118.8 0 237.6 0 360 0 C360 118.8 360 237.6 360 360 C241.2 360 122.4 360 0 360 C0 241.2 0 122.4 0 0 Z M77 58 C76.44183594 58.47840332 75.88367188 58.95680664 75.30859375 59.44970703 C48.10116941 83.05104294 30.35846009 114.83469576 23 150 C22.66162109 151.54494141 22.66162109 151.54494141 22.31640625 153.12109375 C15.05367887 193.24140157 25.78790224 236.23512946 48.45703125 269.671875 C74.05621489 306.33066871 112.26185829 329.17808816 156 337 C172.39226074 339.59412927 190.74228578 339.27210054 207 336 C207.76908691 335.84934082 208.53817383 335.69868164 209.33056641 335.54345703 C251.51677897 327.07693548 288.06513566 303.09488167 312.1796875 267.38671875 C335.4123909 231.87612226 343.31388507 188.5953859 335.03515625 147.05859375 C326.44857965 106.56020464 303.0281166 70.99822347 268.6640625 47.70703125 C209.54253206 9.82417377 131.15594469 11.4931113 77 58 Z " fill="#000000" transform="translate(0,0)"/>
<path d="M0 0 C5.83365787 4.40617225 10.63936849 9.74030274 14.6875 15.8125 C14.6875 16.8025 14.6875 17.7925 14.6875 18.8125 C13.14624023 20.09936523 13.14624023 20.09936523 10.99609375 21.37109375 C10.21556641 21.83966797 9.43503906 22.30824219 8.63085938 22.79101562 C7.80392578 23.27248047 6.97699219 23.75394531 6.125 24.25 C5.32513672 24.72759766 4.52527344 25.20519531 3.70117188 25.69726562 C-0.93813903 28.45812901 -5.61790264 31.14697693 -10.3125 33.8125 C-14.1875 28.1875 -14.1875 28.1875 -15.3125 24.8125 C-17.60784258 23.67704438 -17.60784258 23.67704438 -20.3125 22.8125 C-21.055 22.44125 -21.7975 22.07 -22.5625 21.6875 C-27.72835898 20.0438176 -32.50996055 20.20031679 -37.625 21.9375 C-40.93274657 24.24523016 -42.50728692 26.20207385 -44.3125 29.8125 C-44.85530757 34.07741665 -44.6324451 38.15828019 -42.6875 42.07421875 C-37.07314871 49.17190717 -26.0062132 52.27067692 -17.9375 55.6875 C-1.54624405 62.65329027 14.81303479 71.0660469 21.84765625 88.46484375 C25.62629086 99.02744562 25.63833185 114.36067924 20.9453125 124.6328125 C13.834395 136.95545835 3.70485684 144.74796813 -10 148.625 C-28.70878178 152.50879218 -49.05669427 150.78637669 -65.60595703 140.93261719 C-73.5010465 135.75054702 -81.23264751 128.40166313 -85.3125 119.8125 C-85.3125 118.8225 -85.3125 117.8325 -85.3125 116.8125 C-83.109375 115.18676758 -83.109375 115.18676758 -80.0625 113.45703125 C-78.9796875 112.83505859 -77.896875 112.21308594 -76.78125 111.57226562 C-75.6365625 110.92966797 -74.491875 110.28707031 -73.3125 109.625 C-72.1678125 108.97080078 -71.023125 108.31660156 -69.84375 107.64257812 C-67.00555184 106.02244001 -64.1617943 104.41301782 -61.3125 102.8125 C-58.68215327 105.39486363 -56.25374877 107.88871781 -54 110.8125 C-49.26343111 116.55558978 -42.67464079 119.89700063 -35.3125 120.8125 C-27.65453265 121.39915687 -21.41121856 120.72131674 -14.3125 117.8125 C-13.3225 117.4825 -12.3325 117.1525 -11.3125 116.8125 C-8.92979667 112.57658296 -8.25295115 107.62744995 -8.3125 102.8125 C-10.22959351 97.16772467 -13.63896258 94.35075897 -18.72265625 91.42578125 C-23.49982586 89.08292782 -28.28500123 86.81204262 -33.15625 84.671875 C-42.34720513 80.6327811 -51.14895851 76.73182068 -59.3125 70.8125 C-60.92125 69.6678125 -60.92125 69.6678125 -62.5625 68.5 C-72.26102017 59.02190074 -76.64134018 48.19230785 -76.8125 34.75 C-76.7046116 23.59921155 -73.62355721 14.5428512 -65.9375 6.25 C-48.35441465 -10.07715068 -20.65622853 -13.35665905 0 0 Z " fill="#030202" transform="translate(266.3125,108.1875)"/>
<path d="M0 0 C10.23 0 20.46 0 31 0 C31.09056455 15.29112769 31.16413498 30.58213304 31.20724869 45.87346172 C31.22780614 52.97474002 31.25579479 60.07583889 31.30175781 67.17700195 C31.34183606 73.3719786 31.36748225 79.5668252 31.37635398 85.7619279 C31.38153364 89.03720126 31.39571519 92.31201964 31.42292023 95.58719444 C31.45218754 99.25846282 31.45594615 102.92897453 31.45410156 106.6003418 C31.46848267 107.66634109 31.48286377 108.73234039 31.49768066 109.8306427 C31.42896922 122.56604462 27.67266412 133.82784662 18.96484375 143.1875 C9.2404491 152.51743067 -3.19424026 155.40554066 -16.375 155.3125 C-17.20572021 155.30758545 -18.03644043 155.3026709 -18.89233398 155.29760742 C-25.30259286 155.17564426 -31.01034981 154.40169415 -37 152 C-38.25296875 151.50693359 -38.25296875 151.50693359 -39.53125 151.00390625 C-49.04200999 146.76222471 -58.85399841 138.81157843 -63 129 C-62.87011719 127.08813477 -62.87011719 127.08813477 -62 125 C-59.80688477 123.26074219 -59.80688477 123.26074219 -56.94140625 121.546875 C-55.91595703 120.928125 -54.89050781 120.309375 -53.83398438 119.671875 C-52.75439453 119.03765625 -51.67480469 118.4034375 -50.5625 117.75 C-48.94891602 116.77546875 -48.94891602 116.77546875 -47.30273438 115.78125 C-39.30217634 111 -39.30217634 111 -37 111 C-35.703125 112.79296875 -35.703125 112.79296875 -34.25 115.1875 C-31.00500391 120.22557462 -27.85471638 124.04842787 -22 126 C-16.01681258 126.53550042 -11.11300338 126.49180719 -6 123 C-0.34521638 117.14325982 -0.69705172 109.56405021 -0.68115234 101.94580078 C-0.66608391 100.29125633 -0.66608391 100.29125633 -0.65071106 98.60328674 C-0.61988758 94.96730049 -0.60284596 91.33138786 -0.5859375 87.6953125 C-0.56722522 85.17039355 -0.54765176 82.64548084 -0.5272522 80.12057495 C-0.48117351 74.16029957 -0.44376292 68.20000995 -0.41057932 62.23965251 C-0.37229959 55.45119234 -0.32290486 48.66282712 -0.27259517 41.87444711 C-0.16939777 27.91636146 -0.08156502 13.95822796 0 0 Z " fill="#020101" transform="translate(132,103)"/>
<path d="M0 0 C5.03714845 0.77494592 8.69326582 3.7639001 12.3125 7.1875 C14.65864265 11.09773775 15.30289947 14.4565079 15 19 C13.74965111 23.67235637 11.7216015 26.90745576 7.5625 29.4375 C-1.23589455 33.29644498 -11.56956242 33.21075625 -20.62109375 30.1015625 C-28.22329114 26.58133317 -33.43995137 20.8847793 -38 14 C-44.95436577 17.73728711 -51.79841216 21.61361043 -58.56640625 25.6796875 C-61 27 -61 27 -63 27 C-57.29603452 40.39191896 -46.6087547 49.37030354 -33.375 54.9375 C-31.58813767 55.63739192 -29.79812236 56.32956606 -28 57 C-29.578125 57.69921875 -29.578125 57.69921875 -32 58 C-34.37658974 57.03121773 -36.50686434 56.02691931 -38.75 54.8125 C-39.37108643 54.49023438 -39.99217285 54.16796875 -40.63208008 53.8359375 C-43.29803796 52.45062692 -45.9445962 51.02983282 -48.58984375 49.60546875 C-50.3606107 48.67227127 -52.17661806 47.82568239 -54 47 C-55.485 47.495 -55.485 47.495 -57 48 C-57.08636719 47.443125 -57.17273438 46.88625 -57.26171875 46.3125 C-58.07308273 41.90582592 -59.0589465 38.58232941 -61.625 34.875 C-64.13661438 31.17055401 -64.63410264 28.52930459 -64 24 C-63.34 23.34 -62.68 22.68 -62 22 C-61.01 22 -60.02 22 -59 22 C-59 20.68 -59 19.36 -59 18 C-56.6875 16.4375 -56.6875 16.4375 -54 15 C-53.566875 14.46375 -53.13375 13.9275 -52.6875 13.375 C-49.86758255 11.07728949 -46.56539134 11.33956108 -43 11 C-42.34 10.67 -41.68 10.34 -41 10 C-36.76510325 10.29206184 -34.68938485 12.94718476 -32 16 C-31.505 17.485 -31.505 17.485 -31 19 C-30.01 18.67 -29.02 18.34 -28 18 C-27.44661458 19.72526042 -26.89322917 21.45052083 -26.33984375 23.17578125 C-23.85176241 26.56334389 -19.94086257 27.69349982 -15.92993164 28.3269043 C-13.80510514 28.51270696 -11.69421423 28.61923834 -9.5625 28.6875 C-8.83095703 28.72166016 -8.09941406 28.75582031 -7.34570312 28.79101562 C-5.56430438 28.87251753 -3.78218251 28.93795523 -2 29 C-1.505 27.515 -1.505 27.515 -1 26 C0.65 26 2.3 26 4 26 C4.226875 25.38125 4.45375 24.7625 4.6875 24.125 C6.37929835 21.38589791 7.99244161 20.94975528 11 20 C11 16.7 11 13.4 11 10 C9.35 9.34 7.7 8.68 6 8 C6.33 6.68 6.66 5.36 7 4 C5.02 3.67 3.04 3.34 1 3 C0.505 1.515 0.505 1.515 0 0 Z " fill="#F0DD26" transform="translate(244,198)"/>
<path d="M0 0 C0.99 0.495 0.99 0.495 2 1 C2.04687493 15.52610563 2.08193108 30.05219939 2.10362434 44.57836533 C2.11390441 51.32424204 2.1279016 58.07007156 2.15087891 64.81591797 C2.1726911 71.33225248 2.18458628 77.84853809 2.18975449 84.36490631 C2.19343523 86.84464538 2.20062263 89.32438192 2.21146011 91.80410004 C2.22608632 95.29100726 2.2279733 98.77771522 2.22705078 102.26464844 C2.23424133 103.27813858 2.24143188 104.29162872 2.24884033 105.33583069 C2.2208633 115.17898171 1.12373303 124.53097002 -3.0625 133.5 C-5.11608079 137.81584627 -5.11608079 137.81584627 -6.54296875 142.34765625 C-6.69378906 142.89292969 -6.84460938 143.43820313 -7 144 C-8.65697379 144.69040574 -10.3255761 145.3530635 -12 146 C-12.66 146.763125 -13.32 147.52625 -14 148.3125 C-18.03285973 152.7263139 -24.50756618 154.11021677 -30 156 C-29.01 156.99 -29.01 156.99 -28 158 C-28.77085937 158.06058594 -29.54171875 158.12117187 -30.3359375 158.18359375 C-31.33882812 158.26738281 -32.34171875 158.35117187 -33.375 158.4375 C-34.37273437 158.51871094 -35.37046875 158.59992188 -36.3984375 158.68359375 C-38.97927613 158.84965626 -38.97927613 158.84965626 -41 160 C-49.43396938 160.71427754 -56.93605844 159.40202515 -65 157 C-65 156.34 -65 155.68 -65 155 C-68.3 154.01 -71.6 153.02 -75 152 C-75 151.34 -75 150.68 -75 150 C-74.45472656 150.19335938 -73.90945312 150.38671875 -73.34765625 150.5859375 C-72.59355469 150.84632813 -71.83945313 151.10671875 -71.0625 151.375 C-70.33160156 151.63023437 -69.60070312 151.88546875 -68.84765625 152.1484375 C-61.77727582 154.26276251 -55.13629252 155.36591879 -47.75 155.3125 C-46.92443604 155.30686035 -46.09887207 155.3012207 -45.24829102 155.29541016 C-31.69201397 155.02905786 -20.36848322 151.78103705 -10.6875 141.9375 C-4.55282281 134.63549557 -0.91163298 124.50301776 -0.84178162 114.96331787 C-0.8319928 113.94812073 -0.82220398 112.93292358 -0.81211853 111.88696289 C-0.80636307 110.77925537 -0.8006076 109.67154785 -0.79467773 108.53027344 C-0.78477814 107.35926086 -0.77487854 106.18824829 -0.76467896 104.98175049 C-0.73306868 101.10764596 -0.70830825 97.23352916 -0.68359375 93.359375 C-0.66356046 90.67465455 -0.6420749 87.98994624 -0.62062073 85.30523682 C-0.5707378 78.95885325 -0.52578268 72.61244473 -0.48259836 66.26601243 C-0.43318835 59.03990909 -0.3782842 51.81385075 -0.32291877 44.58779097 C-0.20916629 29.72523621 -0.10231263 14.86263809 0 0 Z " fill="#E6DB53" transform="translate(163,102)"/>
<path d="M0 0 C0.33 0.66 0.66 1.32 1 2 C-0.98 1.34 -2.96 0.68 -5 0 C-5 -0.66 -5 -1.32 -5 -2 C-7.31 -2.66 -9.62 -3.32 -12 -4 C-12 -4.66 -12 -5.32 -12 -6 C-12.5775 -6.12375 -13.155 -6.2475 -13.75 -6.375 C-16.02335767 -7.00648824 -17.9253529 -7.88858191 -20 -9 C-20 -9.66 -20 -10.32 -20 -11 C-25.33835539 -12.92471317 -30.34979382 -14.39891424 -36 -15 C-36.33 -14.34 -36.66 -13.68 -37 -13 C-37.061875 -13.61875 -37.12375 -14.2375 -37.1875 -14.875 C-37.828919 -17.27761141 -37.828919 -17.27761141 -40.5625 -18.25 C-41.366875 -18.4975 -42.17125 -18.745 -43 -19 C-43 -19.66 -43 -20.32 -43 -21 C-44.98 -20.34 -46.96 -19.68 -49 -19 C-48.67 -19.66 -48.34 -20.32 -48 -21 C-51.71099985 -22.85549992 -56.22003616 -22.79616649 -60.32226562 -23.25 C-65.89825283 -23.89825283 -65.89825283 -23.89825283 -67 -25 C-68.51469448 -25.23192865 -70.03754562 -25.41215238 -71.5625 -25.5625 C-72.80193359 -25.68818359 -72.80193359 -25.68818359 -74.06640625 -25.81640625 C-74.70449219 -25.87699219 -75.34257812 -25.93757813 -76 -26 C-76 -26.66 -76 -27.32 -76 -28 C-98.93620446 -27.53200909 -98.93620446 -27.53200909 -121.76171875 -25.40234375 C-125 -25 -125 -25 -129 -25 C-129 -24.01 -129 -23.02 -129 -22 C-130.27875 -22.0825 -131.5575 -22.165 -132.875 -22.25 C-137.74365534 -22.28076559 -141.36147749 -20.90482203 -145.73828125 -18.875 C-148 -18 -148 -18 -152 -18 C-152.33 -17.34 -152.66 -16.68 -153 -16 C-154.86582318 -15.12077072 -156.76902062 -14.31998079 -158.6875 -13.5625 C-162.08213973 -12.20222225 -165.40773972 -10.86601117 -168.625 -9.125 C-169.40875 -8.75375 -170.1925 -8.3825 -171 -8 C-171.66 -8.33 -172.32 -8.66 -173 -9 C-121.20394827 -38.80789225 -47.76727285 -39.27531324 0 0 Z " fill="#EDE258" transform="translate(273,51)"/>
<path d="M0 0 C0.66 0.33 1.32 0.66 2 1 C1.34 3.31 0.68 5.62 0 8 C0.33 8.33 0.66 8.66 1 9 C1.27314815 14.73611111 1.27314815 14.73611111 1 17 C0.34 17.66 -0.32 18.32 -1 19 C-3.36487184 28.39402695 -3.27722488 38.06804815 -3.1875 47.6875 C-3.18603846 49.05664 -3.18538375 50.4257811 -3.18554688 51.79492188 C-3.51014825 58.08235984 -3.51014825 58.08235984 -2 64 C-1.77532169 65.53668865 -1.59203195 67.07968054 -1.4375 68.625 C-1.35371094 69.44226563 -1.26992188 70.25953125 -1.18359375 71.1015625 C-1.12300781 71.72804688 -1.06242187 72.35453125 -1 73 C-0.67 73 -0.34 73 0 73 C0.10957031 74.03640625 0.21914063 75.0728125 0.33203125 76.140625 C0.49153639 77.51049264 0.65172884 78.88028037 0.8125 80.25 C0.88275391 80.93191406 0.95300781 81.61382812 1.02539062 82.31640625 C1.52770317 86.45546165 2.33533648 88.83571207 5 92 C5.90158338 94.64207321 6.40690851 97.26265467 7 100 C7.66 100 8.32 100 9 100 C9.33 101.98 9.66 103.96 10 106 C9.34 106 8.68 106 8 106 C9.21055102 108.46916361 10.44171611 110.92369095 11.6875 113.375 C12.19700195 114.42300781 12.19700195 114.42300781 12.71679688 115.4921875 C14.896649 119.75929385 14.896649 119.75929385 18.76953125 122.4765625 C19.50558594 122.64929688 20.24164063 122.82203125 21 123 C21 125.97 21 128.94 21 132 C3.30712054 116.74751771 -3.90070996 81.73764332 -5.83447266 59.68188477 C-7.09684761 39.22880385 -6.09688533 19.63110595 0 0 Z " fill="#ECE359" transform="translate(27,135)"/>
<path d="M0 0 C-5.53409353 7.32453555 -12.6657818 12.6046482 -20 18 C-20.59490234 18.43779785 -21.18980469 18.8755957 -21.80273438 19.32666016 C-34.23201339 28.33412721 -49.8620998 37.72243629 -65 41 C-66.32 40.67 -67.64 40.34 -69 40 C-62.73 37.69 -56.46 35.38 -50 33 C-50.33 32.34 -50.66 31.68 -51 31 C-48.03 30.01 -45.06 29.02 -42 28 C-42 27.34 -42 26.68 -42 26 C-40.35 25.67 -38.7 25.34 -37 25 C-37 24.34 -37 23.68 -37 23 C-35.35 23 -33.7 23 -32 23 C-32.66 21.35 -33.32 19.7 -34 18 C-30.98968256 17.06576355 -30.13349732 16.95550089 -27 18 C-26.67 17.34 -26.34 16.68 -26 16 C-24.35 16.33 -22.7 16.66 -21 17 C-21 16.01 -21 15.02 -21 14 C-19.68 13.67 -18.36 13.34 -17 13 C-17.226875 12.401875 -17.45375 11.80375 -17.6875 11.1875 C-18 9 -18 9 -16.8125 7.25 C-15 6 -15 6 -11 6 C-10.67 4.68 -10.34 3.36 -10 2 C-8.68 2 -7.36 2 -6 2 C-6.495 1.01 -6.495 1.01 -7 0 C-4.3333581 -1.33332095 -2.83319697 -0.67102033 0 0 Z " fill="#EDE03F" transform="translate(293,290)"/>
<path d="M0 0 C3.42612376 2.7896921 4.99259411 6.64741205 6.8125 10.5625 C7.1621582 11.314104 7.51181641 12.06570801 7.87207031 12.84008789 C15.65656299 29.98552187 21.47738989 49.081514 22 68 C22.03109863 68.8058252 22.06219727 69.61165039 22.09423828 70.44189453 C22.73225827 88.49561602 21.39869596 106.66094494 16 124 C12.8011832 118.02887531 13.13258914 114.30326895 14.875 107.8125 C15.06191406 107.07580078 15.24882812 106.33910156 15.44140625 105.58007812 C16.85017469 100.14982531 16.85017469 100.14982531 18 99 C23.30149174 74.38869529 17.60089052 49.75786102 11 26 C10.69191406 24.71996094 10.38382812 23.43992187 10.06640625 22.12109375 C9.71449219 21.09113281 9.36257813 20.06117187 9 19 C8.01 18.67 7.02 18.34 6 18 C6 16.68 6 15.36 6 14 C5.15291504 11.89864489 5.15291504 11.89864489 4 9.875 C2 6.19444444 2 6.19444444 2 4 C1.34 4 0.68 4 0 4 C0 2.68 0 1.36 0 0 Z " fill="#ECE560" transform="translate(316,100)"/>
<path d="M0 0 C2.97 0.495 2.97 0.495 6 1 C6 1.66 6 2.32 6 3 C6.61875 3.28875 7.2375 3.5775 7.875 3.875 C10 5 10 5 12 7 C13.64991582 7.70710678 15.31562256 8.37943989 17 9 C17 9.66 17 10.32 17 11 C18.32 11 19.64 11 21 11 C21 11.66 21 12.32 21 13 C21.79019531 13.24878906 22.58039063 13.49757813 23.39453125 13.75390625 C27.01601688 15.00553563 30.53583425 16.41341682 34.07885742 17.8684082 C41.95439091 21.09601337 49.66673169 24.18010664 58 26 C59.1250293 26.25265625 60.25005859 26.5053125 61.40917969 26.765625 C73.80572438 29.34778706 85.94495958 29.34787964 98.5625 29.1875 C100.65298503 29.17240917 102.74348073 29.15872864 104.83398438 29.14648438 C109.88959299 29.11386589 114.94467404 29.0623325 120 29 C120 28.34 120 27.68 120 27 C120.70125 26.93941406 121.4025 26.87882812 122.125 26.81640625 C127.76817235 26.31802826 133.38364117 25.74178324 139 25 C136.27211987 26.81858675 134.97646609 27.38853648 131.90234375 28.03515625 C131.09990234 28.20466797 130.29746094 28.37417969 129.47070312 28.54882812 C128.63474609 28.71833984 127.79878906 28.88785156 126.9375 29.0625 C126.12861328 29.23587891 125.31972656 29.40925781 124.48632812 29.58789062 C84.26007424 37.9270902 42.47664844 28.65955245 8 7 C5.23836712 5.11669711 2.4907155 3.23545584 0 1 C0 0.67 0 0.34 0 0 Z " fill="#E9E15A" transform="translate(85,306)"/>
<path d="M0 0 C0.33 0 0.66 0 1 0 C0.19500136 6.03748977 -0.88482498 12.01270113 -2 18 C-3.485 18.495 -3.485 18.495 -5 19 C-5.0825 19.61875 -5.165 20.2375 -5.25 20.875 C-5.62125 21.926875 -5.62125 21.926875 -6 23 C-8.30368736 24.06652192 -10.64018187 25.06421005 -13 26 C-13.515625 26.515625 -14.03125 27.03125 -14.5625 27.5625 C-16 29 -16 29 -19.125 30 C-20.548125 30.495 -20.548125 30.495 -22 31 C-22.33 31.99 -22.66 32.98 -23 34 C-26.125 34.9140625 -26.125 34.9140625 -30 35.625 C-34.32655949 36.08625139 -34.32655949 36.08625139 -38 38 C-40.50227813 38.40810965 -42.98466321 38.75851647 -45.5 39.0625 C-46.22380859 39.15192871 -46.94761719 39.24135742 -47.69335938 39.33349609 C-52.83078834 39.93715549 -57.82395227 40.18485885 -63 40 C-62.34 39.34 -61.68 38.68 -61 38 C-61.68707031 37.96261719 -62.37414062 37.92523438 -63.08203125 37.88671875 C-63.98308594 37.82097656 -64.88414062 37.75523437 -65.8125 37.6875 C-67.15248047 37.60048828 -67.15248047 37.60048828 -68.51953125 37.51171875 C-71.35920148 36.92589702 -72.09207133 36.08247869 -74 34 C-73.40791748 34.06856201 -72.81583496 34.13712402 -72.20581055 34.20776367 C-56.56003012 35.909949 -40.93102172 36.53643828 -26 31 C-24.84371094 30.58427734 -24.84371094 30.58427734 -23.6640625 30.16015625 C-13.98162371 26.00780602 -7.471237 18.2645757 -3.15625 8.89453125 C-1.98450104 5.96120024 -0.96254062 3.00793943 0 0 Z " fill="#EBE25C" transform="translate(290,222)"/>
<path d="M0 0 C13.41433195 -0.43981416 27.70158015 0.2475133 40 6 C40.98613281 6.45826172 40.98613281 6.45826172 41.9921875 6.92578125 C43.34502861 7.58349893 44.67670044 8.28470294 46 9 C46 9.66 46 10.32 46 11 C46.598125 11.28875 47.19625 11.5775 47.8125 11.875 C50 13 50 13 53 15 C52.67 15.99 52.34 16.98 52 18 C51.30777344 17.32904297 51.30777344 17.32904297 50.6015625 16.64453125 C39.80859352 6.64077147 28.61665568 3.64309299 14.1875 3.625 C12.66286133 3.58826172 12.66286133 3.58826172 11.10742188 3.55078125 C-0.612901 3.50596166 -11.23430196 7.49637914 -19.75 15.625 C-20.4925 16.40875 -21.235 17.1925 -22 18 C-23.31175986 19.02813611 -24.6369893 20.04084432 -26 21 C-25.67 19.68 -25.34 18.36 -25 17 C-24.34 17 -23.68 17 -23 17 C-22.67 15.35 -22.34 13.7 -22 12 C-22.66 11.67 -23.32 11.34 -24 11 C-21.616756 8.616756 -20.45352292 8.54841764 -17.1875 8 C-13.5749056 7.34126354 -10.34892125 6.56282991 -7 5 C-7 4.34 -7 3.68 -7 3 C-5.5459375 2.814375 -5.5459375 2.814375 -4.0625 2.625 C-3.051875 2.41875 -2.04125 2.2125 -1 2 C-0.67 1.34 -0.34 0.68 0 0 Z " fill="#E8DD53" transform="translate(222,98)"/>
<path d="M0 0 C0.66 0.33 1.32 0.66 2 1 C0.1875 3 0.1875 3 -2 5 C-2.99 5 -3.98 5 -5 5 C-5.33 6.65 -5.66 8.3 -6 10 C-7.27875 10.226875 -8.5575 10.45375 -9.875 10.6875 C-12.08003077 11.16289943 -12.08003077 11.16289943 -14 12 C-15.29660434 14.49034386 -15.29660434 14.49034386 -16 17 C-18 17.625 -18 17.625 -20 18 C-20.66 18.99 -21.32 19.98 -22 21 C-22.7425 21.268125 -23.485 21.53625 -24.25 21.8125 C-28.9830506 23.8563173 -32.16248535 27.248833 -34.375 31.875 C-34.58125 32.57625 -34.7875 33.2775 -35 34 C-35.66 34 -36.32 34 -37 34 C-37.12375 34.78375 -37.2475 35.5675 -37.375 36.375 C-38 39 -38 39 -40 41 C-40.99 41 -41.98 41 -43 41 C-43.33 43.64 -43.66 46.28 -44 49 C-44.33 48.34 -44.66 47.68 -45 47 C-46.65 47.66 -48.3 48.32 -50 49 C-47.80289382 42.59273225 -43.35347715 38.07108327 -39 33 C-38.27167969 32.14664063 -37.54335938 31.29328125 -36.79296875 30.4140625 C-26.48060786 18.633816 -14.00895471 7.30148699 0 0 Z " fill="#EBE148" transform="translate(98,43)"/>
<path d="M0 0 C0.33 0 0.66 0 1 0 C1.07013036 15.0208588 1.12300789 30.04170489 1.15543652 45.06269264 C1.17089499 52.03745629 1.19196486 59.01211812 1.22631836 65.98681641 C1.25945215 72.71709977 1.2768509 79.44725548 1.28463173 86.17762375 C1.29017711 88.74606364 1.30100575 91.31449772 1.31719017 93.88289261 C1.33894963 97.47885934 1.34196746 101.07438824 1.34057617 104.67041016 C1.351362 105.73352417 1.36214783 106.79663818 1.3732605 107.89196777 C1.35041625 113.34429654 1.13841232 117.32312155 -2 122 C-6.99292043 126.6184514 -10.90125832 127.28996889 -17.48828125 127.22265625 C-20.87873167 126.9221031 -23.19232528 125.89518043 -26 124 C-26.66 123.01 -27.32 122.02 -28 121 C-26.68 121.33 -25.36 121.66 -24 122 C-24 122.66 -24 123.32 -24 124 C-18.06 124 -12.12 124 -6 124 C-5.67 122.68 -5.34 121.36 -5 120 C-4.01 120 -3.02 120 -2 120 C-1.24440284 116.62439637 -0.86822578 113.48951238 -0.84178162 110.03288269 C-0.8319928 109.05838165 -0.82220398 108.08388062 -0.81211853 107.07984924 C-0.80636307 106.02249069 -0.8006076 104.96513214 -0.79467773 103.87573242 C-0.78477814 102.75334167 -0.77487854 101.63095093 -0.76467896 100.47454834 C-0.73311579 96.76820986 -0.7083269 93.06185858 -0.68359375 89.35546875 C-0.66301976 86.78428313 -0.64202317 84.21310086 -0.62062073 81.641922 C-0.57108417 75.56827209 -0.52580694 69.49460414 -0.48259836 63.42090636 C-0.4331554 56.50432551 -0.37826353 49.58779123 -0.32291877 42.67125547 C-0.20922529 28.44754743 -0.10235891 14.2237939 0 0 Z " fill="#FEF654" transform="translate(130,103)"/>
<path d="M0 0 C0.99 0.33 1.98 0.66 3 1 C3 1.99 3 2.98 3 4 C3.66 4.33 4.32 4.66 5 5 C6.3703055 6.97485205 7.70672372 8.97386717 9 11 C8.67 11.66 8.34 12.32 8 13 C6.99421411 11.71283353 5.99553202 10.42011342 5 9.125 C4.443125 8.40570313 3.88625 7.68640625 3.3125 6.9453125 C2 5 2 5 2 3 C-6.49034505 7.77194576 -14.84120345 12.67180634 -23 18 C-21.63112217 25.61657664 -15.49209203 32.11717096 -9.578125 36.74609375 C-7.92460986 38.05990157 -6.46769741 39.48367406 -5 41 C-10.66568552 40.59530818 -12.94475953 38.68658225 -17 35 C-17.66 34.67 -18.32 34.34 -19 34 C-19 32.35 -19 30.7 -19 29 C-19.66 29 -20.32 29 -21 29 C-21.33 28.01 -21.66 27.02 -22 26 C-22.495 25.608125 -22.99 25.21625 -23.5 24.8125 C-25.92429683 21.88314133 -25.69386801 18.73481025 -26 15 C-22.535 14.505 -22.535 14.505 -19 14 C-19 13.01 -19 12.02 -19 11 C-18.154375 10.7525 -17.30875 10.505 -16.4375 10.25 C-9.69073255 7.91132027 -9.69073255 7.91132027 -5 3 C-3.66666667 2.66666667 -2.33333333 2.33333333 -1 2 C-0.67 1.34 -0.34 0.68 0 0 Z " fill="#EBE057" transform="translate(93,211)"/>
<path d="M0 0 C1.914962 0.96429581 3.77960736 2.02724031 5.6328125 3.10546875 C5.6328125 4.09546875 5.6328125 5.08546875 5.6328125 6.10546875 C2.6328125 7.10546875 2.6328125 7.10546875 0.4453125 6.16796875 C-0.1528125 5.81734375 -0.7509375 5.46671875 -1.3671875 5.10546875 C-1.3671875 4.44546875 -1.3671875 3.78546875 -1.3671875 3.10546875 C-5.6571875 3.10546875 -9.9471875 3.10546875 -14.3671875 3.10546875 C-13.3771875 4.59046875 -13.3771875 4.59046875 -12.3671875 6.10546875 C-14.6796875 8.60546875 -14.6796875 8.60546875 -17.3671875 11.10546875 C-18.3571875 11.10546875 -19.3471875 11.10546875 -20.3671875 11.10546875 C-19.7071875 14.73546875 -19.0471875 18.36546875 -18.3671875 22.10546875 C-21.3671875 20.10546875 -21.3671875 20.10546875 -22.0546875 18.41796875 C-22.71085739 13.56231158 -22.99459391 10.27065208 -20.6171875 5.85546875 C-15.28372843 -0.66320344 -8.09051251 -3.05730588 0 0 Z " fill="#EEE24B" transform="translate(243.3671875,128.89453125)"/>
<path d="M0 0 C0.33 0 0.66 0 1 0 C1.0463197 13.73431564 1.0818674 27.46861272 1.10362434 41.20299053 C1.11406603 47.58026067 1.12823239 53.9574774 1.15087891 60.3347168 C1.17259336 66.48792357 1.18456573 72.64107894 1.18975449 78.79432106 C1.19345274 81.1430829 1.20067438 83.4918419 1.21146011 85.84058189 C1.22595627 89.12775144 1.2279787 92.41470798 1.22705078 95.7019043 C1.23424133 96.6751062 1.24143188 97.64830811 1.24884033 98.65100098 C1.23492239 103.20086718 1.18876379 106.87835784 -1 111 C-1.33 111 -1.66 111 -2 111 C-2.12522526 105.49008847 -2.12522526 105.49008847 -1.5059824 103.06658554 C-0.96776972 100.86836178 -0.86146665 98.94559803 -0.84178162 96.68463135 C-0.82709839 95.40163902 -0.82709839 95.40163902 -0.81211853 94.09272766 C-0.80636307 93.16268417 -0.8006076 92.23264069 -0.79467773 91.27441406 C-0.78477814 90.28871933 -0.77487854 89.3030246 -0.76467896 88.28746033 C-0.73309786 85.0302063 -0.70831983 81.77293769 -0.68359375 78.515625 C-0.6630213 76.25689312 -0.64202475 73.99816507 -0.62062073 71.73944092 C-0.56543011 65.79485166 -0.5160075 59.85022784 -0.46777344 53.90557861 C-0.41753648 47.83936486 -0.36186186 41.77320131 -0.30664062 35.70703125 C-0.19909585 23.80473038 -0.09764265 11.90238593 0 0 Z " fill="#ECDD2B" transform="translate(129,112)"/>
<path d="M0 0 C4.875 2.625 4.875 2.625 6 6 C6.99 5.67 7.98 5.34 9 5 C9.350625 6.093125 9.70125 7.18625 10.0625 8.3125 C11.43035382 11.44716501 11.96450236 11.97826675 15.0625 13.875 C19.59088605 15.42895142 24.24566957 15.76772737 29 16 C29.81339844 16.04125 30.62679687 16.0825 31.46484375 16.125 C35.72369897 16.23838051 39.2067338 16.18400175 43 14 C43.66 13.01 44.32 12.02 45 11 C45 11.66 45 12.32 45 13 C45.66 13.33 46.32 13.66 47 14 C39.0725334 19.71515034 30.86123176 20.08702654 21.3125 18.57421875 C11.84625477 16.16328442 5.01021242 10.24260753 0 2 C0 1.34 0 0.68 0 0 Z " fill="#ECE45F" transform="translate(207,211)"/>
<path d="M0 0 C1 3 1 3 -0.51953125 6.51953125 C-1.27001886 7.95782505 -2.03538485 9.38841687 -2.8125 10.8125 C-3.21903809 11.56716553 -3.62557617 12.32183105 -4.04443359 13.09936523 C-9.72535353 23.40890193 -16.58261848 33.71132462 -25 42 C-25.33 42 -25.66 42 -26 42 C-26 40.35 -26 38.7 -26 37 C-25.01 37 -24.02 37 -23 37 C-23 35.68 -23 34.36 -23 33 C-22.401875 32.979375 -21.80375 32.95875 -21.1875 32.9375 C-18.56685398 32.09543384 -18.56685398 32.09543384 -17.25 28.4375 C-16.8375 27.303125 -16.425 26.16875 -16 25 C-15.34 25 -14.68 25 -14 25 C-14 24.34 -14 23.68 -14 23 C-13.34 22.67 -12.68 22.34 -12 22 C-11.835 21.34 -11.67 20.68 -11.5 20 C-11.335 19.34 -11.17 18.68 -11 18 C-10.34 17.67 -9.68 17.34 -9 17 C-7.9350799 14.56376587 -7.9350799 14.56376587 -7 11.6875 C-5.85036229 8.32391153 -4.67103808 5.14065639 -3 2 C-2.01 2 -1.02 2 0 2 C0 1.34 0 0.68 0 0 Z " fill="#EAE051" transform="translate(323,243)"/>
<path d="M0 0 C0.80824219 0.144375 1.61648437 0.28875 2.44921875 0.4375 C3.51785156 0.623125 4.58648437 0.80875 5.6875 1 C6.74324219 1.185625 7.79898438 1.37125 8.88671875 1.5625 C11.64904062 1.95068074 14.21742043 2.08259976 17 2 C17 2.99 17 3.98 17 5 C17.639375 5.268125 18.27875 5.53625 18.9375 5.8125 C21 7 21 7 22 10 C23.32 10 24.64 10 26 10 C28.90266086 12.39042659 30.34762931 14.69525863 32 18 C33.29470975 19.37086915 34.62150897 20.71340837 36 22 C35.01 22 34.02 22 33 22 C32.13375 21.05125 31.2675 20.1025 30.375 19.125 C26.60064572 15.16515395 22.31100845 12.55083849 17.625 9.8125 C16.91778809 9.39693848 16.21057617 8.98137695 15.48193359 8.55322266 C10.46582695 5.67784271 5.32167055 3.25519636 0 1 C0 0.67 0 0.34 0 0 Z " fill="#F3E03B" transform="translate(247,163)"/>
<path d="M0 0 C1.65 0.33 3.3 0.66 5 1 C5 1.66 5 2.32 5 3 C5.99338379 2.51213013 5.99338379 2.51213013 7.00683594 2.0144043 C10.68040229 0.76940689 14.06102924 0.73103241 17.890625 0.76953125 C18.63584412 0.76998947 19.38106323 0.77044769 20.14886475 0.7709198 C21.71547041 0.77392879 23.28207345 0.78177436 24.84863281 0.79418945 C27.25596601 0.81254549 29.66291633 0.81469828 32.0703125 0.81445312 C33.59375335 0.81936506 35.11719158 0.82519196 36.640625 0.83203125 C37.72491791 0.83370049 37.72491791 0.83370049 38.83111572 0.83540344 C43.8839159 0.8839159 43.8839159 0.8839159 45 2 C46.7015625 1.9690625 46.7015625 1.9690625 48.4375 1.9375 C52 2 52 2 54 4 C52.97865967 3.98952637 51.95731934 3.97905273 50.9050293 3.96826172 C24.37721818 3.55699555 24.37721818 3.55699555 -2 6 C-1.34 4.02 -0.68 2.04 0 0 Z " fill="#180E02" transform="translate(148,18)"/>
<path d="M0 0 C0.66 0.33 1.32 0.66 2 1 C-1.75 4 -1.75 4 -4 4 C1.70396548 17.39191896 12.3912453 26.37030354 25.625 31.9375 C27.41186233 32.63739192 29.20187764 33.32956606 31 34 C29.421875 34.69921875 29.421875 34.69921875 27 35 C24.62341026 34.03121773 22.49313566 33.02691931 20.25 31.8125 C19.62891357 31.49023438 19.00782715 31.16796875 18.36791992 30.8359375 C15.70196204 29.45062692 13.0554038 28.02983282 10.41015625 26.60546875 C8.6393893 25.67227127 6.82338194 24.82568239 5 24 C4.01 24.33 3.02 24.66 2 25 C1.91363281 24.443125 1.82726562 23.88625 1.73828125 23.3125 C0.7508682 17.9496695 -0.89752501 14.28295454 -3.95703125 9.796875 C-5.31410034 7.45885334 -5.41391839 5.6490777 -5 3 C-4.34 3 -3.68 3 -3 3 C-3 2.34 -3 1.68 -3 1 C-2.01 0.67 -1.02 0.34 0 0 Z " fill="#EFE255" transform="translate(185,221)"/>
<path d="M0 0 C0.33 0 0.66 0 1 0 C1.85510042 9.31109342 -0.59059933 16.41984665 -4 25 C-4.50216364 26.58264845 -5.00261503 28.16584324 -5.5 29.75 C-7 33 -7 33 -9.375 34.1875 C-10.24125 34.455625 -11.1075 34.72375 -12 35 C-12.71027344 35.7734375 -13.42054688 36.546875 -14.15234375 37.34375 C-17.60911374 40.56817194 -20.78047418 41.80094997 -25.1875 43.3125 C-25.91130859 43.57611328 -26.63511719 43.83972656 -27.38085938 44.11132812 C-32.6544237 46 -32.6544237 46 -35 46 C-35 45.34 -35 44.68 -35 44 C-34.23816406 43.78085937 -33.47632813 43.56171875 -32.69140625 43.3359375 C-22.12942126 40.09218181 -13.21225023 35.45005646 -7 26 C-2.8328742 17.66574839 -1.01014609 9.21192926 0 0 Z " fill="#EAE05E" transform="translate(163,213)"/>
<path d="M0 0 C0.33 0 0.66 0 1 0 C1.56423118 11.64510469 0.1115843 21.77607091 -3 33 C-6.1988168 27.02887531 -5.86741086 23.30326895 -4.125 16.8125 C-3.93808594 16.07580078 -3.75117188 15.33910156 -3.55859375 14.58007812 C-2.14982531 9.14982531 -2.14982531 9.14982531 -1 8 C-0.76924918 6.65252916 -0.58846937 5.29622435 -0.4375 3.9375 C-0.293125 2.638125 -0.14875 1.33875 0 0 Z " fill="#F0E23F" transform="translate(335,191)"/>
<path d="M0 0 C-2.05233685 2.2477975 -3.00667261 3.0022242 -6 4 C-7.89470816 4.0685495 -9.7916834 4.08480372 -11.6875 4.0625 C-12.68136719 4.05347656 -13.67523438 4.04445313 -14.69921875 4.03515625 C-15.83810547 4.01775391 -15.83810547 4.01775391 -17 4 C-17 4.66 -17 5.32 -17 6 C-20.86207074 6.90816798 -24.43148656 7.11643845 -28.39453125 7.09765625 C-29.59658203 7.09443359 -30.79863281 7.09121094 -32.03710938 7.08789062 C-33.28298828 7.07951172 -34.52886719 7.07113281 -35.8125 7.0625 C-37.07771484 7.05798828 -38.34292969 7.05347656 -39.64648438 7.04882812 C-42.7643711 7.03706251 -45.88216133 7.02062272 -49 7 C-49 6.67 -49 6.34 -49 6 C-48.29504395 5.9906543 -47.59008789 5.98130859 -46.86376953 5.97167969 C-43.61684848 5.91743138 -40.37128512 5.83389276 -37.125 5.75 C-36.01640625 5.73582031 -34.9078125 5.72164063 -33.765625 5.70703125 C-27.26538748 5.51584779 -22.07037589 4.70019649 -16.14111328 1.97680664 C-10.74368938 -0.48557569 -5.85827699 -1.46456925 0 0 Z " fill="#F1DF29" transform="translate(222,329)"/>
<path d="M0 0 C0.98575223 3.43678606 0.97727816 6.46841785 0.83251953 10.04150391 C0.41772589 21.77108266 2.33379998 32.73616568 10.04296875 42.11328125 C14.30584941 46.22300452 19.15659546 49.61431916 24 53 C23.01 53.495 23.01 53.495 22 54 C20.0546875 53.22265625 20.0546875 53.22265625 17.875 52.0625 C16.78832031 51.49208984 16.78832031 51.49208984 15.6796875 50.91015625 C15.12539062 50.60980469 14.57109375 50.30945313 14 50 C14 49.34 14 48.68 14 48 C13.34 48 12.68 48 12 48 C0.17080376 34.96960502 -1.76685099 21.93006347 -1.19287109 5.06201172 C-1 3 -1 3 0 0 Z " fill="#E6DD5C" transform="translate(190,130)"/>
<path d="M0 0 C4.75 0.75 4.75 0.75 7 3 C7.45899081 4.42455074 7.87042543 5.86476366 8.25 7.3125 C9.7770754 12.24186775 11.95744306 13.94562364 16 17 C16 17.99 16 18.98 16 20 C16.8353125 20.309375 16.8353125 20.309375 17.6875 20.625 C19.94696811 21.96846753 20.9998656 23.05157702 22.625 25.0625 C24.67119397 28.00824713 24.67119397 28.00824713 27 29 C26.67 29.66 26.34 30.32 26 31 C16.08021839 22.92774218 6.48449595 13.10995552 0 2 C0 1.34 0 0.68 0 0 Z " fill="#E2D859" transform="translate(48,267)"/>
<path d="M0 0 C-0.34294784 3.2008465 -0.94441182 3.95413975 -3.5 6.0625 C-4.325 6.701875 -5.15 7.34125 -6 8 C-6.33 8.99 -6.66 9.98 -7 11 C-9.28891028 12.37334617 -11.45752447 13.15250816 -14 14 C-14.33 14.66 -14.66 15.32 -15 16 C-15.33 16.66 -15.66 17.32 -16 18 C-16.99 18.33 -17.98 18.66 -19 19 C-16.73915252 10.36767326 -11.10948407 5.81812717 -4 1 C-2 0 -2 0 0 0 Z " fill="#140E03" transform="translate(213,106)"/>
<path d="M0 0 C0.66 0.33 1.32 0.66 2 1 C-0.98192177 5.53770704 -4.3456352 7.51081834 -9.07421875 9.88671875 C-11.15684654 10.85492235 -11.15684654 10.85492235 -12 13 C-15.0625 13.625 -15.0625 13.625 -18 14 C-18.33 14.99 -18.66 15.98 -19 17 C-20.32 16.34 -21.64 15.68 -23 15 C-18.62107565 12.06361193 -14.23662187 9.13593481 -9.84228516 6.22265625 C-8.32339325 5.21462409 -6.80773751 4.20171747 -5.29296875 3.1875 C-3.56856922 2.06136153 -1.79034549 1.01803959 0 0 Z " fill="#EEE346" transform="translate(279,127)"/>
<path d="M0 0 C0.66 0.33 1.32 0.66 2 1 C1.34 3.31 0.68 5.62 0 8 C0.33 8.33 0.66 8.66 1 9 C1.27314815 14.73611111 1.27314815 14.73611111 1 17 C0.34 17.66 -0.32 18.32 -1 19 C-1.45662153 21.19291082 -1.820412 23.40585889 -2.125 25.625 C-2.29257812 26.81351563 -2.46015625 28.00203125 -2.6328125 29.2265625 C-2.75398438 30.14179688 -2.87515625 31.05703125 -3 32 C-3.33 32 -3.66 32 -4 32 C-6.15194525 21.21434668 -3.63526302 10.22318508 0 0 Z " fill="#EBDF46" transform="translate(27,135)"/>
<path d="M0 0 C29.32965517 10.65931034 29.32965517 10.65931034 34 20 C32.02 19.34 30.04 18.68 28 18 C28 17.34 28 16.68 28 16 C25.69 15.34 23.38 14.68 21 14 C21 13.34 21 12.68 21 12 C20.4225 11.87625 19.845 11.7525 19.25 11.625 C16.97664233 10.99351176 15.0746471 10.11141809 13 9 C13 8.34 13 7.68 13 7 C12.39671875 6.80664062 11.7934375 6.61328125 11.171875 6.4140625 C10.37265625 6.15367188 9.5734375 5.89328125 8.75 5.625 C7.96109375 5.36976562 7.1721875 5.11453125 6.359375 4.8515625 C4.13372042 4.04826333 2.09068328 3.10288338 0 2 C0 1.34 0 0.68 0 0 Z " fill="#E8E055" transform="translate(240,33)"/>
<path d="M0 0 C1.5078125 2.1875 1.5078125 2.1875 3.125 5 C3.66382812 5.928125 4.20265625 6.85625 4.7578125 7.8125 C5.16773437 8.534375 5.57765625 9.25625 6 10 C5.01 10.33 4.02 10.66 3 11 C0 6.25 0 6.25 0 4 C-1.65 4 -3.3 4 -5 4 C-5 4.66 -5 5.32 -5 6 C-7 8 -7 8 -10 10 C-14 10 -14 10 -17 9 C-14.54481265 7.49462965 -12.0861548 5.99555574 -9.625 4.5 C-8.92632812 4.07074219 -8.22765625 3.64148438 -7.5078125 3.19921875 C-2.2265625 0 -2.2265625 0 0 0 Z " fill="#191202" transform="translate(95,214)"/>
<path d="M0 0 C0.33 0.66 0.66 1.32 1 2 C0.22265625 4.1640625 0.22265625 4.1640625 -0.9375 6.625 C-1.31777344 7.44226563 -1.69804687 8.25953125 -2.08984375 9.1015625 C-2.54037109 10.04128906 -2.54037109 10.04128906 -3 11 C-3.66 11 -4.32 11 -5 11 C-5.02917234 14.87498404 -5.04685673 18.74993958 -5.0625 22.625 C-5.07087891 23.71941406 -5.07925781 24.81382812 -5.08789062 25.94140625 C-5.09111328 27.00488281 -5.09433594 28.06835938 -5.09765625 29.1640625 C-5.10289307 30.13811035 -5.10812988 31.1121582 -5.11352539 32.11572266 C-4.99414506 35.14875321 -4.55866724 38.01915268 -4 41 C-4.99 40.67 -5.98 40.34 -7 40 C-7 33.07 -7 26.14 -7 19 C-7.66 19 -8.32 19 -9 19 C-8.64850615 13.55184534 -8.64850615 13.55184534 -8 11 C-6.0625 9.875 -6.0625 9.875 -4 9 C-2.82917122 6.07085835 -2.82917122 6.07085835 -2 3 C-1.34 2.01 -0.68 1.02 0 0 Z " fill="#F0E63F" transform="translate(195,119)"/>
<path d="M0 0 C0.64453125 1.8359375 0.64453125 1.8359375 1 4 C-1.3125 6.625 -1.3125 6.625 -4 9 C-4.66 9.66 -5.32 10.32 -6 11 C-6.99 11.495 -6.99 11.495 -8 12 C-8.65213292 14.02463255 -8.65213292 14.02463255 -9 16 C-9.61875 16.103125 -10.2375 16.20625 -10.875 16.3125 C-13.36526484 16.87525373 -13.36526484 16.87525373 -15 20 C-16.96752828 21.06246527 -18.96587579 22.07137808 -21 23 C-19.43278388 18.93473636 -16.51467977 16.5379699 -13.3125 13.75 C-8.49220938 9.45588825 -4.08259672 5.01699386 0 0 Z " fill="#120B01" transform="translate(302,280)"/>
<path d="M0 0 C1.11375 0.928125 1.11375 0.928125 2.25 1.875 C6.91473167 5.05242592 12.52304819 5.326459 18 6 C17.67 6.66 17.34 7.32 17 8 C13.2022654 8.07911947 9.57995617 8.00185626 5.8125 7.5 C1.9798515 6.91331064 1.9798515 6.91331064 -2 7 C-2.66 6.67 -3.32 6.34 -4 6 C-4 4.68 -4 3.36 -4 2 C-2.68 2 -1.36 2 0 2 C0 1.34 0 0.68 0 0 Z " fill="#0E0C09" transform="translate(101,224)"/>
<path d="M0 0 C0.66 0.33 1.32 0.66 2 1 C0.02851185 5.56555151 -1.86422673 8.20835304 -6 11 C-11.51437694 12.83812565 -17.07172353 12.72310368 -22.5 10.6875 C-25 9 -25 9 -27 6 C-25.68 6.33 -24.36 6.66 -23 7 C-23 7.66 -23 8.32 -23 9 C-17.06 9 -11.12 9 -5 9 C-4.67 7.68 -4.34 6.36 -4 5 C-3.01 5 -2.02 5 -1 5 C-0.67 3.35 -0.34 1.7 0 0 Z " fill="#E8DE5A" transform="translate(129,218)"/>
<path d="M0 0 C5 5 5 5 5 9 C5.82567667 10.76063215 5.82567667 10.76063215 6.9375 12.5 C8.30339281 14.73242697 9.15844227 16.47532682 10 19 C9.34 19.33 8.68 19.66 8 20 C6.56154242 17.77144622 5.12420781 15.54218143 3.6875 13.3125 C3.08131836 12.37374023 3.08131836 12.37374023 2.46289062 11.41601562 C0.24859361 7.97755441 -1.91924912 4.52178871 -4 1 C-2.125 0.375 -2.125 0.375 0 0 Z " fill="#1F1703" transform="translate(308,80)"/>
<path d="M0 0 C1.49080078 0.02707031 1.49080078 0.02707031 3.01171875 0.0546875 C3.77097656 0.07789062 4.53023437 0.10109375 5.3125 0.125 C5.3125 0.455 5.3125 0.785 5.3125 1.125 C1.89614488 2.1052559 -1.52063745 3.08401446 -4.9375 4.0625 C-5.90558594 4.34029297 -6.87367188 4.61808594 -7.87109375 4.90429688 C-9.27294922 5.30551758 -9.27294922 5.30551758 -10.703125 5.71484375 C-11.56196289 5.96097412 -12.42080078 6.20710449 -13.30566406 6.46069336 C-15.42558984 7.05195187 -17.54949846 7.60348343 -19.6875 8.125 C-19.3575 6.475 -19.0275 4.825 -18.6875 3.125 C-16.06332066 2.52518758 -13.76268381 2.12320991 -11.0625 2.1875 C-6.98489126 2.08019451 -4.48943004 -0.10563365 0 0 Z " fill="#1F1402" transform="translate(140.6875,23.875)"/>
<path d="M0 0 C1.01578125 0.13277344 2.0315625 0.26554687 3.078125 0.40234375 C11.37464723 1.47175414 19.65352005 2.39930637 28 3 C23.66514632 5.32224304 20.16048478 6.13471301 15.25 6.0625 C14.45078125 6.05347656 13.6515625 6.04445313 12.828125 6.03515625 C12.22484375 6.02355469 11.6215625 6.01195312 11 6 C11.66 5.34 12.32 4.68 13 4 C12.31292969 3.96261719 11.62585938 3.92523438 10.91796875 3.88671875 C10.01691406 3.82097656 9.11585938 3.75523437 8.1875 3.6875 C6.84751953 3.60048828 6.84751953 3.60048828 5.48046875 3.51171875 C2.69396 2.93686419 1.75864246 2.1793144 0 0 Z " fill="#F9E539" transform="translate(216,256)"/>
<path d="M0 0 C5.08515942 4.46877646 8.88789969 9.99809225 12 16 C11.67 16.66 11.34 17.32 11 18 C10.34 17.01 9.68 16.02 9 15 C8.01 15.33 7.02 15.66 6 16 C3.11336032 11.48178138 3.11336032 11.48178138 2.5 8.875 C2.14268124 6.86323537 2.14268124 6.86323537 0.375 5.5 C-0.07875 5.005 -0.5325 4.51 -1 4 C-0.6875 1.8125 -0.6875 1.8125 0 0 Z " fill="#F1DF1E" transform="translate(304,82)"/>
<path d="M0 0 C0.66 0 1.32 0 2 0 C4.36724448 3.55086672 4.24079681 5.11174259 4.1875 9.3125 C4.18105469 10.42238281 4.17460937 11.53226563 4.16796875 12.67578125 C4.0071722 15.85805714 3.59153978 18.87193763 3 22 C0.94872156 18.92308234 0.72739128 18.06355001 0.5859375 14.55078125 C0.54726563 13.70322266 0.50859375 12.85566406 0.46875 11.98242188 C0.4378125 11.10134766 0.406875 10.22027344 0.375 9.3125 C0.33632813 8.41982422 0.29765625 7.52714844 0.2578125 6.60742188 C0.16359782 4.4051538 0.07798412 2.20289278 0 0 Z " fill="#F2E53A" transform="translate(290,202)"/>
<path d="M0 0 C1.25541557 3.76624671 0.37061958 5.37188934 -1 9 C-1.66 9 -2.32 9 -3 9 C-3.33 9.99 -3.66 10.98 -4 12 C-5.375 15.125 -5.375 15.125 -7 18 C-7.99 18.33 -8.98 18.66 -10 19 C-10.33 19.99 -10.66 20.98 -11 22 C-13.0625 22.6875 -13.0625 22.6875 -15 23 C-14.64808594 22.47792969 -14.29617188 21.95585937 -13.93359375 21.41796875 C-10.38127794 16.12195746 -6.92436459 10.77230618 -3.515625 5.3828125 C-2.36545317 3.57455267 -1.18875485 1.78313228 0 0 Z " fill="#201804" transform="translate(318,256)"/>
<path d="M0 0 C4.3590077 3.48720616 4.94552183 6.72760915 6 12 C6.66 12 7.32 12 8 12 C8.33 13.98 8.66 15.96 9 18 C7.68 18 6.36 18 5 18 C3.96983978 15.37831689 2.95061606 12.75326119 1.9375 10.125 C1.49567383 9.00544922 1.49567383 9.00544922 1.04492188 7.86328125 C0.30479514 5.93024437 -0.35355735 3.96634968 -1 2 C-0.67 1.34 -0.34 0.68 0 0 Z " fill="#EEE143" transform="translate(28,223)"/>
<path d="M0 0 C5.03714845 0.77494592 8.69326582 3.7639001 12.3125 7.1875 C14.62609128 11.04348546 15.23579106 14.51996984 15 19 C13.5625 22.5625 13.5625 22.5625 12 25 C11.67 24.34 11.34 23.68 11 23 C11.33 22.34 11.66 21.68 12 21 C12.14640501 19.35857459 12.22096589 17.7101859 12.25 16.0625 C12.27578125 15.18722656 12.3015625 14.31195313 12.328125 13.41015625 C11.93770992 10.54246454 11.25322599 9.74460945 9 8 C8.34 7.67 7.68 7.34 7 7 C7 6.01 7 5.02 7 4 C4.03 3.505 4.03 3.505 1 3 C0.67 2.01 0.34 1.02 0 0 Z " fill="#E6E165" transform="translate(244,198)"/>
<path d="M0 0 C0.33 0 0.66 0 1 0 C0.19500136 6.03748977 -0.88482498 12.01270113 -2 18 C-2.99 18.33 -3.98 18.66 -5 19 C-5.73323796 21.01508358 -5.73323796 21.01508358 -6 23 C-7.65 23.33 -9.3 23.66 -11 24 C-9 22 -9 22 -7 20 C-6.87625 19.319375 -6.7525 18.63875 -6.625 17.9375 C-5.8776449 14.42493105 -4.48360085 11.47820294 -2.98828125 8.2265625 C-1.79618892 5.54082088 -0.8637147 2.80707276 0 0 Z " fill="#EADD45" transform="translate(290,222)"/>
<path d="M0 0 C0 0.99 0 1.98 0 3 C-2 5 -2 5 -5.625 5.125 C-6.73875 5.08375 -7.8525 5.0425 -9 5 C-9 5.66 -9 6.32 -9 7 C-15.625 9.875 -15.625 9.875 -19 11 C-19.66 10.34 -20.32 9.68 -21 9 C-14.08190028 5.74132193 -7.21480664 2.54640234 0 0 Z " fill="#EEDE29" transform="translate(127,31)"/>
<path d="M0 0 C0.93423645 3.01031744 1.04449911 3.86650268 0 7 C-0.66 7 -1.32 7 -2 7 C-2.66 10.3 -3.32 13.6 -4 17 C-4.66 17 -5.32 17 -6 17 C-6.19335938 17.69867188 -6.38671875 18.39734375 -6.5859375 19.1171875 C-6.84632812 20.02726562 -7.10671875 20.93734375 -7.375 21.875 C-7.63023438 22.77992187 -7.88546875 23.68484375 -8.1484375 24.6171875 C-9 27 -9 27 -11 29 C-9.73476427 22.3691049 -7.78047851 16.67058085 -4.9375 10.5625 C-4.57333984 9.76134766 -4.20917969 8.96019531 -3.83398438 8.13476562 C-2.58988431 5.40510429 -1.34160442 2.68320884 0 0 Z " fill="#EFE75C" transform="translate(39,105)"/>
<path d="M0 0 C-3.87980833 2.58653889 -7.54174905 3.19113595 -12.0625 4.125 C-13.34217651 4.39328613 -13.34217651 4.39328613 -14.64770508 4.66699219 C-20.53740803 5.84504497 -25.98269093 6.39457764 -32 6 C-32 5.67 -32 5.34 -32 5 C-25.565 4.505 -25.565 4.505 -19 4 C-19 3.34 -19 2.68 -19 2 C-18.24074219 1.93941406 -17.48148438 1.87882812 -16.69921875 1.81640625 C-15.70535156 1.73261719 -14.71148437 1.64882813 -13.6875 1.5625 C-12.70136719 1.48128906 -11.71523437 1.40007812 -10.69921875 1.31640625 C-6.93675249 0.87536462 -3.85159286 -0.1040971 0 0 Z " fill="#EDE55B" transform="translate(224,331)"/>
<path d="M0 0 C1.32 0.66 2.64 1.32 4 2 C2.35 2.33 0.7 2.66 -1 3 C-1.33 5.31 -1.66 7.62 -2 10 C-2.99 10.33 -3.98 10.66 -5 11 C-7 8 -7 8 -7 6.0625 C-5.47841502 2.92423097 -2.9308084 1.74601352 0 0 Z " fill="#171105" transform="translate(76,224)"/>
<path d="M0 0 C0 0.66 0 1.32 0 2 C-6.50609061 4.95662295 -11.43471112 5.26771631 -18.5 4.6875 C-19.4178125 4.62626953 -20.335625 4.56503906 -21.28125 4.50195312 C-23.52242226 4.35020709 -25.76116889 4.18262465 -28 4 C-28 3.67 -28 3.34 -28 3 C-26.31583984 2.92652344 -26.31583984 2.92652344 -24.59765625 2.8515625 C-16.46397151 2.45845105 -7.91752936 0 0 0 Z " fill="#DED54D" transform="translate(260,255)"/>
<path d="M0 0 C7.32997481 0.48866499 7.32997481 0.48866499 10.375 2.8125 C11.87373708 4.83003068 12.88133431 6.76266862 14 9 C15.29470975 10.37086915 16.62150897 11.71340837 18 13 C15 13 15 13 13.45703125 11.64453125 C12.91433594 11.03996094 12.37164062 10.43539062 11.8125 9.8125 C8.6706588 6.5028254 5.45138747 4.20743647 1.50390625 1.9453125 C1.00761719 1.63335937 0.51132812 1.32140625 0 1 C0 0.67 0 0.34 0 0 Z " fill="#E8DD4D" transform="translate(265,172)"/>
<path d="M0 0 C-1.33333333 4 -2.66666667 8 -4 12 C-5.32 11.67 -6.64 11.34 -8 11 C-7.71915428 6.97454466 -7.21634296 5.25517374 -4.5625 2.125 C-2 0 -2 0 0 0 Z " fill="#161005" transform="translate(34,116)"/>
<path d="M0 0 C-1.15173355 2.46800047 -2.04783565 4.04783565 -4 6 C-4.99 6 -5.98 6 -7 6 C-7 6.66 -7 7.32 -7 8 C-11.455 8.495 -11.455 8.495 -16 9 C-11.97806144 5.49702126 -5.60566856 0 0 0 Z " fill="#150E02" transform="translate(202,214)"/>
<path d="M0 0 C0.99 0 1.98 0 3 0 C4.421875 1.6796875 4.421875 1.6796875 5.75 3.875 C6.19859375 4.59429687 6.6471875 5.31359375 7.109375 6.0546875 C7.40328125 6.69664062 7.6971875 7.33859375 8 8 C7.67 8.66 7.34 9.32 7 10 C4 10 4 10 2 9 C1.855625 8.38125 1.71125 7.7625 1.5625 7.125 C0.90282543 4.63289608 -0.08288629 3.6670554 -2 2 C-1.34 1.34 -0.68 0.68 0 0 Z " fill="#F4E12F" transform="translate(280,178)"/>
<path d="M0 0 C0.99 0.33 1.98 0.66 3 1 C-0.3 4.63 -3.6 8.26 -7 12 C-7.66 11.67 -8.32 11.34 -9 11 C-9 9.68 -9 8.36 -9 7 C-8.34 7 -7.68 7 -7 7 C-6.67 6.01 -6.34 5.02 -6 4 C-2.9375 2.8125 -2.9375 2.8125 0 2 C0 1.34 0 0.68 0 0 Z " fill="#140C03" transform="translate(65,66)"/>
<path d="M0 0 C0.66 0.33 1.32 0.66 2 1 C2 1.66 2 2.32 2 3 C-1.72965139 5.03435531 -3.66905042 6 -8 6 C-8 6.99 -8 7.98 -8 9 C-10.31 9.33 -12.62 9.66 -15 10 C-11.25 8 -11.25 8 -9 8 C-9 6.02 -9 4.04 -9 2 C-8.2575 2.04125 -7.515 2.0825 -6.75 2.125 C-3.88513262 1.99477876 -2.49469347 1.29035869 0 0 Z " fill="#EEDC23" transform="translate(82,216)"/>
<path d="M0 0 C0.33 0.66 0.66 1.32 1 2 C1.66 2.309375 2.32 2.61875 3 2.9375 C5 4 5 4 6 7 C6.66 7 7.32 7 8 7 C7.67 7.99 7.34 8.98 7 10 C5.989375 9.236875 4.97875 8.47375 3.9375 7.6875 C0.44221425 5.17660085 -2.9954434 3.55278725 -7 2 C-6.401875 1.855625 -5.80375 1.71125 -5.1875 1.5625 C-3.43849596 1.1127561 -1.71322977 0.57107659 0 0 Z " fill="#1B1204" transform="translate(247,194)"/>
<path d="M0 0 C1.21038612 4.84154446 -0.04936412 7.37877952 -1.9375 11.75 C-2.22818359 12.44738281 -2.51886719 13.14476562 -2.81835938 13.86328125 C-3.53551703 15.57975695 -4.26643402 17.29047232 -5 19 C-5.33 19 -5.66 19 -6 19 C-5.67 16.69 -5.34 14.38 -5 12 C-5.66 12 -6.32 12 -7 12 C-6.67 10.68 -6.34 9.36 -6 8 C-4.02 8.495 -4.02 8.495 -2 9 C-1.34 6.03 -0.68 3.06 0 0 Z " fill="#EEE54D" transform="translate(330,224)"/>
<path d="M0 0 C0.66 0.33 1.32 0.66 2 1 C2.375 3.1875 2.375 3.1875 2 6 C-0.75 8.5625 -0.75 8.5625 -2.3984375 9.796875 C-4.46154141 11.34671891 -6.21303412 13.14430467 -8 15 C-9.32 14.34 -10.64 13.68 -12 13 C-11.071875 12.5875 -10.14375 12.175 -9.1875 11.75 C-4.06877157 8.93971773 -2.47029026 5.17584625 0 0 Z " fill="#120A03" transform="translate(132,216)"/>
<path d="M0 0 C0.66 0.33 1.32 0.66 2 1 C-0.91786898 5.64375744 -2.75935018 8.08268909 -8 10 C-10.15413308 11.8835903 -12.04157479 13.90494047 -14 16 C-14.66 15.67 -15.32 15.34 -16 15 C-10.85228904 9.74723372 -5.66129431 4.69766975 0 0 Z " fill="#E7DF58" transform="translate(79,56)"/>
<path d="M0 0 C0.33 0.66 0.66 1.32 1 2 C1.66 2.33 2.32 2.66 3 3 C-2.22658885 6.85772034 -5.91797816 8.30539396 -12.4296875 7.66015625 C-13.56664062 7.46292969 -14.70359375 7.26570312 -15.875 7.0625 C-17.02742187 6.86785156 -18.17984375 6.67320312 -19.3671875 6.47265625 C-20.23601562 6.31667969 -21.10484375 6.16070312 -22 6 C-22 5.67 -22 5.34 -22 5 C-20.35451172 5.03480469 -20.35451172 5.03480469 -18.67578125 5.0703125 C-17.221361 5.08907921 -15.76693336 5.10727844 -14.3125 5.125 C-13.59126953 5.14175781 -12.87003906 5.15851563 -12.12695312 5.17578125 C-7.99444537 5.21352105 -4.62352873 5.09236267 -1 3 C-0.67 2.01 -0.34 1.02 0 0 Z " fill="#EBE431" transform="translate(251,222)"/>
<path d="M0 0 C2.97246802 2.54782974 4.41535288 5.45340883 6 9 C6 9.66 6 10.32 6 11 C4.02 11.99 4.02 11.99 2 13 C2 11.35 2 9.7 2 8 C1.01 7.67 0.02 7.34 -1 7 C-0.67 4.69 -0.34 2.38 0 0 Z " fill="#170F04" transform="translate(282,187)"/>
<path d="M0 0 C2.31 0 4.62 0 7 0 C7 0.66 7 1.32 7 2 C7.99 2.33 8.98 2.66 10 3 C9.67 3.66 9.34 4.32 9 5 C9.33 5.99 9.66 6.98 10 8 C4.98886765 6.5682479 3.05530451 4.01554307 0 0 Z " fill="#EDDF47" transform="translate(75,298)"/>
<path d="M0 0 C1.78769201 2.65544032 2.01159666 3.88672047 1.6796875 7.12890625 C1.41414063 8.26199219 1.14859375 9.39507812 0.875 10.5625 C0.62492187 11.69816406 0.37484375 12.83382812 0.1171875 14.00390625 C-1.09343469 17.25057484 -2.0542827 18.28268348 -5 20 C-3.33333333 13.33333333 -1.66666667 6.66666667 0 0 Z " fill="#1F1703" transform="translate(334,213)"/>
<path d="M0 0 C4.875 2.625 4.875 2.625 6 6 C6.99 5.67 7.98 5.34 9 5 C9.33 7.31 9.66 9.62 10 12 C6.60812721 10.58426179 4.90302459 8.95769034 2.75 6 C2.22921875 5.29875 1.7084375 4.5975 1.171875 3.875 C0 2 0 2 0 0 Z " fill="#E0D74B" transform="translate(207,211)"/>
<path d="M0 0 C0.33 0 0.66 0 1 0 C1.66 6.6 2.32 13.2 3 20 C-1.51183698 14.36020378 -1.51183698 14.36020378 -1.3125 8.875 C-1.28800781 7.84117187 -1.26351563 6.80734375 -1.23828125 5.7421875 C-1 3 -1 3 0 0 Z " fill="#231C06" transform="translate(21,192)"/>
<path d="M0 0 C0.66 0.33 1.32 0.66 2 1 C2 1.66 2 2.32 2 3 C1.34 3 0.68 3 0 3 C-0.33 3.66 -0.66 4.32 -1 5 C-1.33 4.67 -1.66 4.34 -2 4 C-2.99 5.485 -2.99 5.485 -4 7 C-5.96752828 8.06246527 -7.96587579 9.07137808 -10 10 C-10.33 9.01 -10.66 8.02 -11 7 C-10.01 7 -9.02 7 -8 7 C-7.67 6.01 -7.34 5.02 -7 4 C-4.78406817 2.28945613 -2.53809348 1.24678276 0 0 Z " fill="#F0E029" transform="translate(104,41)"/>
<path d="M0 0 C4.8 3.44615385 4.8 3.44615385 5.8125 6.25 C5.874375 6.8275 5.93625 7.405 6 8 C2.25 9.125 2.25 9.125 0 8 C0 7.34 0 6.68 0 6 C-0.66 5.67 -1.32 5.34 -2 5 C-1 2 -1 2 0 0 Z " fill="#EDE13D" transform="translate(250,134)"/>
<path d="M0 0 C-2.31 3.63 -4.62 7.26 -7 11 C-7.99 10.67 -8.98 10.34 -10 10 C-9.34 8.35 -8.68 6.7 -8 5 C-7.34 5 -6.68 5 -6 5 C-6 4.34 -6 3.68 -6 3 C-5.34 3 -4.68 3 -4 3 C-4 2.34 -4 1.68 -4 1 C-4.66 0.67 -5.32 0.34 -6 0 C-3 -1 -3 -1 0 0 Z " fill="#1B0F05" transform="translate(50,89)"/>
<path d="M0 0 C0.89138672 0.27263672 0.89138672 0.27263672 1.80078125 0.55078125 C8.17086777 2.48261153 14.57058358 4.27652526 21 6 C20.67 6.66 20.34 7.32 20 8 C16.37 7.34 12.74 6.68 9 6 C9 5.34 9 4.68 9 4 C6.36 3.67 3.72 3.34 1 3 C0.67 2.01 0.34 1.02 0 0 Z " fill="#211901" transform="translate(121,327)"/>
<path d="M0 0 C0 1.32 0 2.64 0 4 C-1.62463842 4.05395478 -3.24978541 4.09277195 -4.875 4.125 C-5.77992188 4.14820313 -6.68484375 4.17140625 -7.6171875 4.1953125 C-10 4 -10 4 -12 2 C-10.37787941 1.47026689 -8.75218416 0.95146893 -7.125 0.4375 C-6.22007812 0.14746094 -5.31515625 -0.14257812 -4.3828125 -0.44140625 C-2 -1 -2 -1 0 0 Z " fill="#151006" transform="translate(236,329)"/>
<path d="M0 0 C0.763125 0.165 1.52625 0.33 2.3125 0.5 C5.03596236 1.09145396 5.03596236 1.09145396 8 1 C6.25395451 2.4630657 4.50300547 3.9202808 2.75 5.375 C1.77546875 6.18710937 0.8009375 6.99921875 -0.203125 7.8359375 C-2.4552682 9.57851757 -4.40711386 10.876416 -7 12 C-6.67 11.01 -6.34 10.02 -6 9 C-5.34 8.67 -4.68 8.34 -4 8 C-3.67 7.01 -3.34 6.02 -3 5 C-0.9375 4.3125 -0.9375 4.3125 1 4 C0.67 2.68 0.34 1.36 0 0 Z " fill="#EBE15A" transform="translate(275,299)"/>
<path d="M0 0 C0.99 0.33 1.98 0.66 3 1 C5.33299825 1.03954234 7.66708189 1.04401732 10 1 C9.67 1.99 9.34 2.98 9 4 C8.01 4 7.02 4 6 4 C6 4.66 6 5.32 6 6 C3.69 5.34 1.38 4.68 -1 4 C-0.67 2.68 -0.34 1.36 0 0 Z " fill="#161008" transform="translate(209,249)"/>
<path d="M0 0 C0.66 0.33 1.32 0.66 2 1 C1.835 1.598125 1.67 2.19625 1.5 2.8125 C0.8885876 5.11344336 0.8885876 5.11344336 1 8 C1.99 8.33 2.98 8.66 4 9 C4 10.65 4 12.3 4 14 C1.04485124 11.24865461 -1.1524809 8.60266225 -3 5 C-3 4.01 -3 3.02 -3 2 C-2.01 1.34 -1.02 0.68 0 0 Z " fill="#1E1202" transform="translate(184,223)"/>
<path d="M0 0 C2.31 0.66 4.62 1.32 7 2 C3.58983503 4.86453858 0.09305456 6.34703566 -4 8 C-3.50168276 4.31245243 -2.89932357 2.39509338 0 0 Z " fill="#181104" transform="translate(108,32)"/>
<path d="M0 0 C6.24549638 3.12274819 12.18551539 8.54833528 15 15 C11.17598678 13.49770909 9.4791017 11.1988409 7 8 C6.01 7.34 5.02 6.68 4 6 C4 5.34 4 4.68 4 4 C3.34 4 2.68 4 2 4 C2 3.34 2 2.68 2 2 C1.34 2 0.68 2 0 2 C0 1.34 0 0.68 0 0 Z " fill="#E2D859" transform="translate(284,61)"/>
<path d="M0 0 C1.32 0 2.64 0 4 0 C5.5625 2.375 5.5625 2.375 7 5 C7.99 5.66 8.98 6.32 10 7 C10 7.99 10 8.98 10 10 C6.82028869 8.62442924 4.95149011 7.10041354 2.75 4.4375 C1.96882813 3.50744141 1.96882813 3.50744141 1.171875 2.55859375 C0 1 0 1 0 0 Z " fill="#1E1B04" transform="translate(74,238)"/>
<path d="M0 0 C0.66 0.33 1.32 0.66 2 1 C-0.05952358 2.29662538 -2.12237057 3.58735727 -4.1875 4.875 C-4.76564453 5.23980469 -5.34378906 5.60460937 -5.93945312 5.98046875 C-9.20278033 8.0085252 -12.38059362 9.70492051 -16 11 C-16 10.34 -16 9.68 -16 9 C-15.43410156 8.73445312 -14.86820313 8.46890625 -14.28515625 8.1953125 C-13.55167969 7.84210938 -12.81820312 7.48890625 -12.0625 7.125 C-11.33160156 6.77695313 -10.60070312 6.42890625 -9.84765625 6.0703125 C-7.83667541 5.1315023 -7.83667541 5.1315023 -7 3 C-3.5625 1.3125 -3.5625 1.3125 0 0 Z " fill="#EAE259" transform="translate(204,210)"/>
<path d="M0 0 C0.99 0.33 1.98 0.66 3 1 C3 3.31 3 5.62 3 8 C3.66 8.33 4.32 8.66 5 9 C4.01 10.485 4.01 10.485 3 12 C2.67 11.67 2.34 11.34 2 11 C1.01 11.99 0.02 12.98 -1 14 C-0.9278125 13.24074219 -0.855625 12.48148438 -0.78125 11.69921875 C-0.6884375 10.70535156 -0.595625 9.71148437 -0.5 8.6875 C-0.4071875 7.70136719 -0.314375 6.71523437 -0.21875 5.69921875 C0.04038857 2.95297861 0.04038857 2.95297861 0 0 Z " fill="#191204" transform="translate(258,208)"/>
<path d="M0 0 C8.78723404 -0.44680851 8.78723404 -0.44680851 13 3 C13.33 3.99 13.66 4.98 14 6 C9.27934033 4.45730076 4.58335908 2.92205381 0 1 C0 0.67 0 0.34 0 0 Z " fill="#EEDF28" transform="translate(114,322)"/>
<path d="M0 0 C-0.3125 1.9375 -0.3125 1.9375 -1 4 C-1.99 4.33 -2.98 4.66 -4 5 C-4 5.66 -4 6.32 -4 7 C-5.65 7 -7.3 7 -9 7 C-9.33 6.01 -9.66 5.02 -10 4 C-8.71086513 3.32845067 -7.41859796 2.66291141 -6.125 2 C-5.40570313 1.62875 -4.68640625 1.2575 -3.9453125 0.875 C-2 0 -2 0 0 0 Z " fill="#171102" transform="translate(256,319)"/>
<path d="M0 0 C0.66 0.33 1.32 0.66 2 1 C-2.81776765 8.66742597 -2.81776765 8.66742597 -8 10 C-8.33 9.01 -8.66 8.02 -9 7 C-6.03 4.69 -3.06 2.38 0 0 Z " fill="#1D1403" transform="translate(278,303)"/>
<path d="M0 0 C2.96404505 2.80804268 5.44499019 5.18315774 7 9 C5.68 9.33 4.36 9.66 3 10 C1.4375 7.625 1.4375 7.625 0 5 C0.33 4.34 0.66 3.68 1 3 C0.34 3 -0.32 3 -1 3 C-0.67 2.01 -0.34 1.02 0 0 Z " fill="#191303" transform="translate(48,269)"/>
<path d="M0 0 C1.5877405 0.90901174 3.17001197 1.82757924 4.75 2.75 C6.07257813 3.51570312 6.07257813 3.51570312 7.421875 4.296875 C9.96537343 5.97712548 11.92902925 7.77419032 14 10 C8.33431448 9.59530818 6.05524047 7.68658225 2 4 C1.34 3.67 0.68 3.34 0 3 C0 2.01 0 1.02 0 0 Z " fill="#EDE349" transform="translate(74,242)"/>
<path d="M0 0 C0.66 0 1.32 0 2 0 C2 0.66 2 1.32 2 2 C2.66 2.0825 3.32 2.165 4 2.25 C9.14008712 3.53502178 13.61109606 6.07406404 18 9 C13.88756685 8.55541263 10.09868515 7.48613569 6.1875 6.1875 C5.23230469 5.87167969 4.27710938 5.55585938 3.29296875 5.23046875 C1 4 1 4 0.17578125 1.86328125 C0.11777344 1.24839844 0.05976563 0.63351563 0 0 Z " fill="#EDE02D" transform="translate(212,184)"/>
<path d="M0 0 C3.63 0 7.26 0 11 0 C11 0.66 11 1.32 11 2 C13.64 2.33 16.28 2.66 19 3 C19 3.66 19 4.32 19 5 C17.52031676 4.85950482 16.04125484 4.71245174 14.5625 4.5625 C13.73878906 4.48128906 12.91507813 4.40007813 12.06640625 4.31640625 C10 4 10 4 9 3 C7.48530552 2.76807135 5.96245438 2.58784762 4.4375 2.4375 C3.61121094 2.35371094 2.78492188 2.26992188 1.93359375 2.18359375 C1.29550781 2.12300781 0.65742188 2.06242187 0 2 C0 1.34 0 0.68 0 0 Z " fill="#ECDD33" transform="translate(197,23)"/>
<path d="M0 0 C0.79921875 0.01804687 1.5984375 0.03609375 2.421875 0.0546875 C3.02515625 0.07789063 3.6284375 0.10109375 4.25 0.125 C4.25 0.785 4.25 1.445 4.25 2.125 C3.46625 2.269375 2.6825 2.41375 1.875 2.5625 C-0.71421018 3.00298925 -0.71421018 3.00298925 -2.75 4.125 C-4.74960012 4.164992 -6.75047242 4.16846799 -8.75 4.125 C-8.75 3.465 -8.75 2.805 -8.75 2.125 C-5.68753253 0.34090198 -3.52920727 -0.10380021 0 0 Z " fill="#04020E" transform="translate(122.75,329.875)"/>
<path d="M0 0 C0.66 0.33 1.32 0.66 2 1 C0.60667426 4.36720387 -0.9789286 5.9859524 -4 8 C-5.32 7.34 -6.64 6.68 -8 6 C-5.38485683 3.87961365 -2.80362384 1.86908256 0 0 Z " fill="#191203" transform="translate(267,311)"/>
<path d="M0 0 C4.75 0.75 4.75 0.75 7 3 C7.33 3.99 7.66 4.98 8 6 C6.68 6.33 5.36 6.66 4 7 C0 2.25 0 2.25 0 0 Z " fill="#EEE142" transform="translate(48,267)"/>
<path d="M0 0 C0.99 0 1.98 0 3 0 C2.745504 1.48206495 2.47088238 2.96068615 2.1875 4.4375 C2.03667969 5.26121094 1.88585937 6.08492188 1.73046875 6.93359375 C1.36888672 7.95646484 1.36888672 7.95646484 1 9 C0.01 9.33 -0.98 9.66 -2 10 C-2.33 11.65 -2.66 13.3 -3 15 C-3.33 15 -3.66 15 -4 15 C-4.20086443 11.28400809 -4.1519437 10.22791555 -2 7 C-1.34 7 -0.68 7 0 7 C0 4.69 0 2.38 0 0 Z " fill="#EFE028" transform="translate(314,251)"/>
<path d="M0 0 C1.2964351 0.76278623 2.58699148 1.53556959 3.875 2.3125 C4.59429687 2.74175781 5.31359375 3.17101562 6.0546875 3.61328125 C8 5 8 5 10 8 C6.67895374 7.44649229 3.83755508 6.85908781 1 5 C-0.25 2.875 -0.25 2.875 -1 1 C-0.67 0.67 -0.34 0.34 0 0 Z " fill="#E9DC39" transform="translate(294,73)"/>
<path d="M0 0 C0.99 0 1.98 0 3 0 C1.7156759 2.86503068 0.58401213 5.15427705 -2 7 C-5.1875 7.1875 -5.1875 7.1875 -8 7 C-6.62141149 4.24282298 -4.62533685 3.53678254 -2 2 C-1.34 1.34 -0.68 0.68 0 0 Z " fill="#EDDF24" transform="translate(278,246)"/>
<path d="M0 0 C2.125 0.375 2.125 0.375 4 1 C2.90220176 2.15193623 1.79650554 3.29634937 0.6875 4.4375 C0.07261719 5.07558594 -0.54226563 5.71367187 -1.17578125 6.37109375 C-3 8 -3 8 -6 9 C-5.43137108 5.70195229 -4.49977286 4.19980011 -2 2 C-1.34 1.34 -0.68 0.68 0 0 Z " fill="#130B02" transform="translate(278,240)"/>
<path d="M0 0 C3.3 0 6.6 0 10 0 C6 2 6 2 2 2 C2 2.66 2 3.32 2 4 C-2.455 4.495 -2.455 4.495 -7 5 C-7 4.34 -7 3.68 -7 3 C-5.5459375 2.814375 -5.5459375 2.814375 -4.0625 2.625 C-2.5465625 2.315625 -2.5465625 2.315625 -1 2 C-0.67 1.34 -0.34 0.68 0 0 Z " fill="#EEE038" transform="translate(222,98)"/>
<path d="M0 0 C0.99 0.66 1.98 1.32 3 2 C0.36 4.31 -2.28 6.62 -5 9 C-5.66 8.01 -6.32 7.02 -7 6 C-4.69 4.02 -2.38 2.04 0 0 Z " fill="#1A1105" transform="translate(74,57)"/>
<path d="M0 0 C1.65 0.33 3.3 0.66 5 1 C5 3.31 5 5.62 5 8 C2.69 6.35 0.38 4.7 -2 3 C-1.34 2.01 -0.68 1.02 0 0 Z " fill="#161105" transform="translate(274,48)"/>
<path d="M0 0 C3.72619658 4.62048376 7.36230673 9.30982806 11 14 C10.01 14 9.02 14 8 14 C7.34 12.68 6.68 11.36 6 10 C5.34 10 4.68 10 4 10 C3.67 9.01 3.34 8.02 3 7 C2.484375 6.525625 1.96875 6.05125 1.4375 5.5625 C0 4 0 4 0 0 Z " fill="#E8E061" transform="translate(68,230)"/>
<path d="M0 0 C6.16529701 0.31616908 10.17268433 3.49215061 15 7 C14.01 7.495 14.01 7.495 13 8 C10.71741367 6.92325298 8.5643566 5.80453884 6.375 4.5625 C5.76398438 4.22412109 5.15296875 3.88574219 4.5234375 3.53710938 C3.011647 2.69853808 1.50529601 1.85017423 0 1 C0 0.67 0 0.34 0 0 Z " fill="#211702" transform="translate(211,181)"/>
<path d="M0 0 C1.32 0 2.64 0 4 0 C4.309375 1.175625 4.309375 1.175625 4.625 2.375 C5.79029933 5.2945785 5.79029933 5.2945785 9 6.1875 C9.99 6.455625 10.98 6.72375 12 7 C12.66 7.66 13.32 8.32 14 9 C10.06946815 8.43450607 7.46592463 7.28617442 4.1875 5.0625 C3.39730469 4.53785156 2.60710937 4.01320312 1.79296875 3.47265625 C1.20128906 2.98667969 0.60960937 2.50070313 0 2 C0 1.34 0 0.68 0 0 Z " fill="#EEE558" transform="translate(226,151)"/>
<path d="M0 0 C3.73487777 0.4979837 5.81237635 0.87491756 9 3 C9 3.99 9 4.98 9 6 C6 7 6 7 3.8125 6.0625 C3.214375 5.711875 2.61625 5.36125 2 5 C2 4.34 2 3.68 2 3 C2.99 3 3.98 3 5 3 C2.525 2.01 2.525 2.01 0 1 C0 0.67 0 0.34 0 0 Z " fill="#F4E541" transform="translate(240,129)"/>
<path d="M0 0 C6.24675325 6.07792208 6.24675325 6.07792208 8 9 C7.67 9.99 7.34 10.98 7 12 C6.566875 11.360625 6.13375 10.72125 5.6875 10.0625 C4.08760823 7.73253997 4.08760823 7.73253997 1 7 C0.67 4.69 0.34 2.38 0 0 Z " fill="#281F07" transform="translate(273,115)"/>
<path d="M0 0 C0.66 0 1.32 0 2 0 C1.46884894 4.51478398 -0.36620292 7.34666857 -3 11 C-3.66 9.68 -4.32 8.36 -5 7 C-4.01 6.67 -3.02 6.34 -2 6 C-0.77479736 2.99152582 -0.77479736 2.99152582 0 0 Z " fill="#1D1502" transform="translate(157,232)"/>
<path d="M0 0 C-0.99 0.33 -1.98 0.66 -3 1 C-3.33 1.66 -3.66 2.32 -4 3 C-7.0625 3.625 -7.0625 3.625 -10 4 C-10.33 4.99 -10.66 5.98 -11 7 C-12.32 6.34 -13.64 5.68 -15 5 C-10.87384475 1.53402959 -5.43913747 -2.39322049 0 0 Z " fill="#ECE238" transform="translate(271,137)"/>
<path d="M0 0 C3.41021743 0.78697325 6.68885166 1.87119943 10 3 C8.35 4.32 6.7 5.64 5 7 C1.125 2.25 1.125 2.25 0 0 Z " fill="#1E1B03" transform="translate(252,135)"/>
<path d="M0 0 C4.62 0.66 9.24 1.32 14 2 C13.67 2.66 13.34 3.32 13 4 C8.17639811 4.19294408 4.50353262 3.75747614 0 2 C0 1.34 0 0.68 0 0 Z " fill="#130900" transform="translate(105,228)"/>
<path d="M0 0 C6.57142857 4 6.57142857 4 8 8 C5.0280615 6.87548273 2.66559313 5.77706209 0 4 C0 2.68 0 1.36 0 0 Z " fill="#161004" transform="translate(269,175)"/>
<path d="M0 0 C0.33 0.99 0.66 1.98 1 3 C0.67 3.66 0.34 4.32 0 5 C-2.97 4.01 -5.94 3.02 -9 2 C-5.23312136 0.11656068 -3.97041037 -0.22057835 0 0 Z " fill="#1B1404" transform="translate(97,250)"/>
<path d="M0 0 C0 0.33 0 0.66 0 1 C-4.7749209 1.95498418 -9.15139376 2.24243031 -14 2 C-14.66 1.34 -15.32 0.68 -16 0 C-10.42289352 -1.06795656 -5.60563042 -0.82622671 0 0 Z " fill="#E5D844" transform="translate(166,23)"/>
<path d="M0 0 C3.63 1.65 7.26 3.3 11 5 C6.58830306 6.10292424 5.04131206 5.88594563 1 4 C0.67 2.68 0.34 1.36 0 0 Z " fill="#1B1401" transform="translate(104,319)"/>
<path d="M0 0 C0.391875 0.556875 0.78375 1.11375 1.1875 1.6875 C3.03541001 4.14069996 3.03541001 4.14069996 5.625 6.625 C8 9 8 9 9 11 C5.49304707 10.4346089 3.97267387 9.31277274 1.6875 6.625 C1.15511719 6.01914062 0.62273438 5.41328125 0.07421875 4.7890625 C-0.28027344 4.19867188 -0.63476562 3.60828125 -1 3 C-0.67 2.01 -0.34 1.02 0 0 Z " fill="#EBE057" transform="translate(54,273)"/>
<path d="M0 0 C5.28 0.66 10.56 1.32 16 2 C16 2.33 16 2.66 16 3 C13.89646505 3.0810206 11.79204048 3.13919907 9.6875 3.1875 C8.51574219 3.22230469 7.34398437 3.25710938 6.13671875 3.29296875 C3 3 3 3 0 0 Z " fill="#F0E45C" transform="translate(216,256)"/>
<path d="M0 0 C1.89353366 1.89353366 3.4198632 3.84526801 5 6 C4.34 6.66 3.68 7.32 3 8 C3 7.34 3 6.68 3 6 C2.21625 5.9175 1.4325 5.835 0.625 5.75 C-2 5 -2 5 -3.3125 2.9375 C-3.539375 2.298125 -3.76625 1.65875 -4 1 C-2.125 0.375 -2.125 0.375 0 0 Z " fill="#100C06" transform="translate(308,80)"/>
<path d="M0 0 C0.33 0 0.66 0 1 0 C1 1.98 1 3.96 1 6 C0.34 6 -0.32 6 -1 6 C-1.2165625 7.175625 -1.2165625 7.175625 -1.4375 8.375 C-2 11 -2 11 -3 13 C-3.66 12.67 -4.32 12.34 -5 12 C-3.35 8.04 -1.7 4.08 0 0 Z " fill="#251F03" transform="translate(328,234)"/>
<path d="M0 0 C0.66 0.33 1.32 0.66 2 1 C-1.36328125 8.20703125 -1.36328125 8.20703125 -4 10 C-6.1875 9.6875 -6.1875 9.6875 -8 9 C-7.01 9 -6.02 9 -5 9 C-4.67 7.68 -4.34 6.36 -4 5 C-3.01 5 -2.02 5 -1 5 C-0.67 3.35 -0.34 1.7 0 0 Z " fill="#F1E65B" transform="translate(129,218)"/>
<path d="M0 0 C5.02692063 0.45699278 8.14896261 2.99241748 12 6 C11.01 6.495 11.01 6.495 10 7 C8.0546875 6.22265625 8.0546875 6.22265625 5.875 5.0625 C5.15054688 4.68222656 4.42609375 4.30195313 3.6796875 3.91015625 C3.12539062 3.60980469 2.57109375 3.30945313 2 3 C2 2.34 2 1.68 2 1 C1.34 0.67 0.68 0.34 0 0 Z " fill="#EBE158" transform="translate(202,177)"/>
<path d="M0 0 C1.45742463 -0.08096803 2.91612807 -0.13917774 4.375 -0.1875 C5.18710938 -0.22230469 5.99921875 -0.25710937 6.8359375 -0.29296875 C7.55007812 -0.19628906 8.26421875 -0.09960938 9 0 C9.66 0.99 10.32 1.98 11 3 C7.04 3 3.08 3 -1 3 C-0.67 2.01 -0.34 1.02 0 0 Z " fill="#D9CB3A" transform="translate(232,128)"/>
<path d="M0 0 C0.33 0.99 0.66 1.98 1 3 C0.67 3.66 0.34 4.32 0 5 C-3.37503669 3.8141763 -5.64722731 2.72426311 -8 0 C-5.13822943 -1.43088528 -3.06624227 -0.59991697 0 0 Z " fill="#1D1507" transform="translate(269,43)"/>
<path d="M0 0 C0.66 0.33 1.32 0.66 2 1 C-0.75 5.875 -0.75 5.875 -3 7 C-4.32 6.01 -5.64 5.02 -7 4 C-1.7265625 0.77734375 -1.7265625 0.77734375 0 0 Z " fill="#130F04" transform="translate(255,32)"/>
<path d="M0 0 C0.33 0.66 0.66 1.32 1 2 C0.05125 1.95875 -0.8975 1.9175 -1.875 1.875 C-5.10244856 1.65026182 -5.10244856 1.65026182 -7 4 C-10.125 3.625 -10.125 3.625 -13 3 C-8.48332093 -0.01111938 -5.3360009 -0.10067926 0 0 Z " fill="#F1DF29" transform="translate(142,28)"/>
<path d="M0 0 C1.74627478 2.61941217 2.38722388 4.03824877 3 7 C2.01 7.33 1.02 7.66 0 8 C-0.33 8.66 -0.66 9.32 -1 10 C-2.31223496 6.06329512 -1.24296256 3.87511856 0 0 Z " fill="#F0E126" transform="translate(163,224)"/>
<path d="M0 0 C3.96 1.98 3.96 1.98 8 4 C7.67 4.66 7.34 5.32 7 6 C6.34 6 5.68 6 5 6 C4.67 6.33 4.34 6.66 4 7 C2.35 5.35 0.7 3.7 -1 2 C-0.67 1.34 -0.34 0.68 0 0 Z " fill="#1A1606" transform="translate(257,168)"/>
<path d="M0 0 C1.1700097 3.91736581 0.69584017 6.97959015 0 11 C-1.65 11 -3.3 11 -5 11 C-4.34 10.67 -3.68 10.34 -3 10 C-2.08968728 7.65613191 -2.08968728 7.65613191 -1.375 4.9375 C-1.11460938 4.01839844 -0.85421875 3.09929687 -0.5859375 2.15234375 C-0.39257812 1.44207031 -0.19921875 0.73179688 0 0 Z " fill="#EBDD30" transform="translate(32,124)"/>
<path d="M0 0 C1.32 0.33 2.64 0.66 4 1 C2.35 4.3 0.7 7.6 -1 11 C-1.33 11 -1.66 11 -2 11 C-2.20395079 7.32888586 -1.76683472 5.20238793 0 2 C0 1.34 0 0.68 0 0 Z " fill="#201701" transform="translate(36,104)"/>
<path d="M0 0 C0.33 0.66 0.66 1.32 1 2 C0.22265625 3.9453125 0.22265625 3.9453125 -0.9375 6.125 C-1.31777344 6.84945312 -1.69804688 7.57390625 -2.08984375 8.3203125 C-2.54037109 9.15175781 -2.54037109 9.15175781 -3 10 C-3.66 10 -4.32 10 -5 10 C-5.33 10.99 -5.66 11.98 -6 13 C-6.33 12.34 -6.66 11.68 -7 11 C-5.56640625 8.3984375 -5.56640625 8.3984375 -3.5625 5.375 C-2.90378906 4.37210937 -2.24507812 3.36921875 -1.56640625 2.3359375 C-1.04949219 1.56507812 -0.53257813 0.79421875 0 0 Z " fill="#EAE161" transform="translate(47,92)"/>
<path d="M0 0 C0.66 0 1.32 0 2 0 C0.52307692 5.66153846 0.52307692 5.66153846 -2.125 7.375 C-3.053125 7.684375 -3.053125 7.684375 -4 8 C-3.40312566 4.65750371 -2.26396123 2.53563658 0 0 Z " fill="#F0E33F" transform="translate(83,53)"/>
<path d="M0 0 C1.46313772 0.76167457 2.92036661 1.53470707 4.375 2.3125 C5.18710937 2.74175781 5.99921875 3.17101563 6.8359375 3.61328125 C9 5 9 5 11 8 C9.02 7.34 7.04 6.68 5 6 C5 5.34 5 4.68 5 4 C2.525 3.01 2.525 3.01 0 2 C0 1.34 0 0.68 0 0 Z " fill="#EBE163" transform="translate(263,45)"/>
<path d="M0 0 C0.99 0 1.98 0 3 0 C1.6581656 4.02550319 -0.4227573 4.88285636 -4 7 C-4.66 7 -5.32 7 -6 7 C-5.34 5.35 -4.68 3.7 -4 2 C-3.01 2.33 -2.02 2.66 -1 3 C-0.67 2.01 -0.34 1.02 0 0 Z " fill="#1C1404" transform="translate(93,43)"/>
<path d="M0 0 C-1.65 1.65 -3.3 3.3 -5 5 C-5.66 3.35 -6.32 1.7 -7 0 C-4.3333581 -1.33332095 -2.83319697 -0.67102033 0 0 Z " fill="#E6DB3F" transform="translate(293,290)"/>
<path d="M0 0 C0.66 0.33 1.32 0.66 2 1 C0.515 3.475 0.515 3.475 -1 6 C-5.875 4.25 -5.875 4.25 -7 2 C-4.69 2 -2.38 2 0 2 C0 1.34 0 0.68 0 0 Z " fill="#F2D72B" transform="translate(249,133)"/>
<path d="M0 0 C2.97 0.495 2.97 0.495 6 1 C6 1.66 6 2.32 6 3 C6.99 3.33 7.98 3.66 9 4 C7.3125 4.8125 7.3125 4.8125 5 5 C2.25 2.5625 2.25 2.5625 0 0 Z " fill="#F0E34E" transform="translate(85,306)"/>
<path d="M0 0 C1.65 0.33 3.3 0.66 5 1 C2.31158141 3.25245881 0.35358125 4.88213958 -3 6 C-3 5.01 -3 4.02 -3 3 C-2.34 3 -1.68 3 -1 3 C-0.67 2.01 -0.34 1.02 0 0 Z " fill="#1E1607" transform="translate(142,248)"/>
<path d="M0 0 C0.99 0 1.98 0 3 0 C3 0.66 3 1.32 3 2 C3.66 2 4.32 2 5 2 C4.67 3.98 4.34 5.96 4 8 C1.84622436 5.37801226 0.59927826 3.35595828 0 0 Z " fill="#F1E128" transform="translate(35,241)"/>
<path d="M0 0 C2.475 0.99 2.475 0.99 5 2 C3.35 3.65 1.7 5.3 0 7 C-0.93423645 3.98968256 -1.04449911 3.13349732 0 0 Z " fill="#0F0A0B" transform="translate(148,241)"/>
<path d="M0 0 C2 3.75 2 3.75 2 6 C2.99 6.33 3.98 6.66 5 7 C4 9 4 9 2 10 C0.4375 8.375 0.4375 8.375 -1 6 C-0.6875 2.75 -0.6875 2.75 0 0 Z " fill="#EDDD2B" transform="translate(67,230)"/>
<path d="M0 0 C0.66 0 1.32 0 2 0 C2.66 3.3 3.32 6.6 4 10 C-0.875 5.375 -0.875 5.375 -2 2 C-1.34 2 -0.68 2 0 2 C0 1.34 0 0.68 0 0 Z " fill="#EFDF2E" transform="translate(98,212)"/>
<path d="M0 0 C2.475 0.99 2.475 0.99 5 2 C5 3.32 5 4.64 5 6 C4.34 5.67 3.68 5.34 3 5 C2.01 5.33 1.02 5.66 0 6 C0 4.02 0 2.04 0 0 Z " fill="#151407" transform="translate(225,153)"/>
<path d="M0 0 C0.66 0 1.32 0 2 0 C2.33 1.32 2.66 2.64 3 4 C2.01 4 1.02 4 0 4 C0 4.66 0 5.32 0 6 C-0.99 6.33 -1.98 6.66 -3 7 C-2.38722388 4.03824877 -1.74627478 2.61941217 0 0 Z " fill="#07040D" transform="translate(65,62)"/>
<path d="M0 0 C-0.75 2.4375 -0.75 2.4375 -2 5 C-4.125 5.8125 -4.125 5.8125 -6 6 C-5.67 4.35 -5.34 2.7 -5 1 C-2 0 -2 0 0 0 Z " fill="#100905" transform="translate(127,26)"/>
<path d="M0 0 C1.65 0 3.3 0 5 0 C5 0.99 5 1.98 5 3 C3.35 3.33 1.7 3.66 0 4 C0 2.68 0 1.36 0 0 Z " fill="#F0DF2A" transform="translate(233,323)"/>
<path d="M0 0 C2.31 0 4.62 0 7 0 C6.67 0.99 6.34 1.98 6 3 C3.69 3 1.38 3 -1 3 C-0.67 2.01 -0.34 1.02 0 0 Z " fill="#F5E00F" transform="translate(128,261)"/>
<path d="M0 0 C0.33 0.99 0.66 1.98 1 3 C-3.75 7.875 -3.75 7.875 -6 9 C-6.99 8.34 -7.98 7.68 -9 7 C-8.071875 6.5875 -7.14375 6.175 -6.1875 5.75 C-3.11945319 4.06558214 -1.80959535 2.91545917 0 0 Z " fill="#2B2605" transform="translate(129,222)"/>
<path d="M0 0 C0.33 0.66 0.66 1.32 1 2 C1.66 2.33 2.32 2.66 3 3 C-2.41538462 7.06153846 -2.41538462 7.06153846 -5.375 6.75 C-5.91125 6.5025 -6.4475 6.255 -7 6 C-6.030625 5.566875 -5.06125 5.13375 -4.0625 4.6875 C-0.72268235 3.2985139 -0.72268235 3.2985139 0 0 Z " fill="#EDE459" transform="translate(251,222)"/>
<path d="M0 0 C0.66 0.33 1.32 0.66 2 1 C2 1.66 2 2.32 2 3 C0.02 3.99 -1.96 4.98 -4 6 C-4 4.68 -4 3.36 -4 2 C-2.125 0.9375 -2.125 0.9375 0 0 Z " fill="#F3E02E" transform="translate(82,216)"/>
<path d="M0 0 C3.94139078 1.66751148 6.7892812 4.22710649 10 7 C9.34 7.66 8.68 8.32 8 9 C6.66368764 7.6905332 5.33102075 6.37734515 4 5.0625 C3.2575 4.33160156 2.515 3.60070312 1.75 2.84765625 C0 1 0 1 0 0 Z " fill="#DCD652" transform="translate(273,177)"/>
<path d="M0 0 C0.33 0 0.66 0 1 0 C1.66 3.96 2.32 7.92 3 12 C2.01 11.67 1.02 11.34 0 11 C0 7.37 0 3.74 0 0 Z " fill="#EFDF2F" transform="translate(188,148)"/>
<path d="M0 0 C0.33 0 0.66 0 1 0 C1.09038099 5.15171623 0.84681133 9.91913204 0 15 C-0.33 15 -0.66 15 -1 15 C-1.33 11.7 -1.66 8.4 -2 5 C-1.67 5 -1.34 5 -1 5 C-0.67 3.35 -0.34 1.7 0 0 Z " fill="#E8DC38" transform="translate(24,152)"/>
<path d="M0 0 C0.66 0.33 1.32 0.66 2 1 C-0.23775234 4.3566285 -0.93320048 4.57996014 -4.625 5.6875 C-5.44226563 5.93886719 -6.25953125 6.19023437 -7.1015625 6.44921875 C-7.72804688 6.63097656 -8.35453125 6.81273437 -9 7 C-6.25604436 4.05278838 -3.61662784 1.80831392 0 0 Z " fill="#E9E55B" transform="translate(271,132)"/>
<path d="M0 0 C1 3 1 3 -0.25 5.625 C-2 8 -2 8 -5 9 C-3.90931332 5.22454612 -3.0916909 2.52956528 0 0 Z " fill="#1E1202" transform="translate(199,116)"/>
<path d="M0 0 C2.94721162 2.74395564 5.19168608 5.38337216 7 9 C6.67 9.66 6.34 10.32 6 11 C3 7.25 3 7.25 3 5 C2.01 4.67 1.02 4.34 0 4 C0 2.68 0 1.36 0 0 Z " fill="#EEE35D" transform="translate(309,89)"/>
<path d="M0 0 C0.78375 0.04125 1.5675 0.0825 2.375 0.125 C2.705 0.785 3.035 1.445 3.375 2.125 C2.715 2.125 2.055 2.125 1.375 2.125 C1.045 2.785 0.715 3.445 0.375 4.125 C-2.1 3.135 -2.1 3.135 -4.625 2.125 C-2.625 0.125 -2.625 0.125 0 0 Z " fill="#06050B" transform="translate(93.625,315.875)"/>
<path d="M0 0 C0.99 0 1.98 0 3 0 C3 1.65 3 3.3 3 5 C1.68 5 0.36 5 -1 5 C-0.67 3.35 -0.34 1.7 0 0 Z " fill="#020010" transform="translate(285,309)"/>
<path d="M0 0 C2.25245881 2.68841859 3.88213958 4.64641875 5 8 C4.01 8.33 3.02 8.66 2 9 C2 7.68 2 6.36 2 5 C1.34 4.67 0.68 4.34 0 4 C-0.33 3.34 -0.66 2.68 -1 2 C-0.67 1.34 -0.34 0.68 0 0 Z " fill="#211B06" transform="translate(43,261)"/>
<path d="M0 0 C1.32 0.66 2.64 1.32 4 2 C3.67 2.66 3.34 3.32 3 4 C0.93359375 4.4140625 0.93359375 4.4140625 -1.5625 4.625 C-2.38878906 4.69976562 -3.21507812 4.77453125 -4.06640625 4.8515625 C-5.02353516 4.92503906 -5.02353516 4.92503906 -6 5 C-5.01 4.34 -4.02 3.68 -3 3 C-1.98131338 2.01904252 -0.97648017 1.02297922 0 0 Z " fill="#F2E02A" transform="translate(149,249)"/>
<path d="M0 0 C3.48624056 0.6456001 6.12498789 1.92360237 9 4 C9 4.99 9 5.98 9 7 C8.34 7 7.68 7 7 7 C7 6.01 7 5.02 7 4 C4.03 3.505 4.03 3.505 1 3 C0.67 2.01 0.34 1.02 0 0 Z " fill="#E4DC58" transform="translate(244,198)"/>
<path d="M0 0 C2.31 0.33 4.62 0.66 7 1 C7 1.66 7 2.32 7 3 C7.66 3 8.32 3 9 3 C9 3.66 9 4.32 9 5 C5.54074837 3.7508258 2.85306797 2.32472205 0 0 Z " fill="#EAE151" transform="translate(256,167)"/>
<path d="M0 0 C0.66 0 1.32 0 2 0 C1.34 2.97 0.68 5.94 0 9 C-0.99 9 -1.98 9 -3 9 C-1.125 2.25 -1.125 2.25 0 0 Z " fill="#F0E02F" transform="translate(47,94)"/>
<path d="M0 0 C0.99 0.33 1.98 0.66 3 1 C2.34 2.32 1.68 3.64 1 5 C0.34 5 -0.32 5 -1 5 C-1 4.34 -1 3.68 -1 3 C-2.32 2.67 -3.64 2.34 -5 2 C-3.35 2 -1.7 2 0 2 C0 1.34 0 0.68 0 0 Z " fill="#F1DC28" transform="translate(107,314)"/>
<path d="M0 0 C3.37503669 1.1858237 5.64722731 2.27573689 8 5 C6.68 5.33 5.36 5.66 4 6 C4 5.34 4 4.68 4 4 C3.34 4 2.68 4 2 4 C2 3.34 2 2.68 2 2 C1.34 2 0.68 2 0 2 C0 1.34 0 0.68 0 0 Z " fill="#231905" transform="translate(87,309)"/>
<path d="M0 0 C0.6875 1.8125 0.6875 1.8125 1 4 C-0.4375 5.75 -0.4375 5.75 -2 7 C-2.99 6.34 -3.98 5.68 -5 5 C-3.35 3.35 -1.7 1.7 0 0 Z " fill="#1D1606" transform="translate(302,280)"/>
<path d="M0 0 C1.1171875 1.765625 1.1171875 1.765625 2 4 C1.06434658 6.64564072 -0.45014515 8.62963376 -2 11 C-3 9 -3 9 -2.44140625 6.8359375 C-2.15136719 6.02382813 -1.86132812 5.21171875 -1.5625 4.375 C-1.27503906 3.55773437 -0.98757813 2.74046875 -0.69140625 1.8984375 C-0.46324219 1.27195313 -0.23507812 0.64546875 0 0 Z " fill="#ECE65E" transform="translate(316,253)"/>
<path d="M0 0 C3.26460973 1.80412643 4.88929795 2.83394693 7 6 C6.01 6.495 6.01 6.495 5 7 C3.5 5.625 3.5 5.625 2 4 C2 3.34 2 2.68 2 2 C1.01 1.67 0.02 1.34 -1 1 C-0.67 0.67 -0.34 0.34 0 0 Z " fill="#1B1802" transform="translate(266,109)"/>
<path d="M0 0 C2.475 0.495 2.475 0.495 5 1 C5 2.65 5 4.3 5 6 C4.01 6.495 4.01 6.495 3 7 C2.01 4.69 1.02 2.38 0 0 Z " fill="#1F1804" transform="translate(319,104)"/>
<path d="M0 0 C2.31 1.98 4.62 3.96 7 6 C6.67 6.66 6.34 7.32 6 8 C2.57701423 6.85900474 1.85241234 5.99914379 0 3 C0 2.01 0 1.02 0 0 Z " fill="#EEE02F" transform="translate(287,65)"/>
<path d="M0 0 C2.64 0.33 5.28 0.66 8 1 C8 1.66 8 2.32 8 3 C6.35 3.33 4.7 3.66 3 4 C2.01 2.68 1.02 1.36 0 0 Z " fill="#F5E329" transform="translate(239,36)"/>
<path d="M0 0 C-2.5654594 2.5654594 -4.47686668 2.54046087 -8 3 C-8.33 2.34 -8.66 1.68 -9 1 C-5.64919071 -1.10976881 -3.77897651 -1.0497157 0 0 Z " fill="#F0E02B" transform="translate(232,327)"/>
<path d="M0 0 C2.97 0.495 2.97 0.495 6 1 C4 4 4 4 1.375 4.6875 C0.199375 4.8421875 0.199375 4.8421875 -1 5 C-1 4.34 -1 3.68 -1 3 C-0.01 3 0.98 3 2 3 C2 2.34 2 1.68 2 1 C1.34 0.67 0.68 0.34 0 0 Z " fill="#05060C" transform="translate(250,323)"/>
<path d="M0 0 C0 0.66 0 1.32 0 2 C-2.31 2.33 -4.62 2.66 -7 3 C-7 2.34 -7 1.68 -7 1 C-3.375 -1.125 -3.375 -1.125 0 0 Z " fill="#ECDF49" transform="translate(267,254)"/>
<path d="M0 0 C0.33 0.66 0.66 1.32 1 2 C1.99 2.33 2.98 2.66 4 3 C3.01 3 2.02 3 1 3 C0.67 3.99 0.34 4.98 0 6 C-0.33 5.34 -0.66 4.68 -1 4 C-1.99 3.67 -2.98 3.34 -4 3 C-2.68 2.67 -1.36 2.34 0 2 C0 1.34 0 0.68 0 0 Z " fill="#1C1609" transform="translate(252,129)"/>
<path d="M0 0 C-1.98 2.97 -1.98 2.97 -4 6 C-4.66 5.01 -5.32 4.02 -6 3 C-5.34 3 -4.68 3 -4 3 C-4 2.34 -4 1.68 -4 1 C-4.66 0.67 -5.32 0.34 -6 0 C-3 -1 -3 -1 0 0 Z " fill="#262007" transform="translate(50,89)"/>
<path d="M0 0 C1.65 1.65 3.3 3.3 5 5 C4.67 5.66 4.34 6.32 4 7 C2.35 6.01 0.7 5.02 -1 4 C-0.67 2.68 -0.34 1.36 0 0 Z " fill="#EEE154" transform="translate(304,82)"/>
<path d="M0 0 C0.33 1.32 0.66 2.64 1 4 C0.01 4 -0.98 4 -2 4 C-2 4.66 -2 5.32 -2 6 C-3.32 6.33 -4.64 6.66 -6 7 C-4.02 4.69 -2.04 2.38 0 0 Z " fill="#ECDF2E" transform="translate(71,65)"/>
<path d="M0 0 C1.875 0.3125 1.875 0.3125 4 1 C4.66 1.99 5.32 2.98 6 4 C4.68 4 3.36 4 2 4 C1.34 2.68 0.68 1.36 0 0 Z " fill="#1F1604" transform="translate(282,57)"/>
</svg>
