<?xml version="1.0" encoding="UTF-8"?>
<svg version="1.1" xmlns="http://www.w3.org/2000/svg" width="595" height="178">
<path d="M0 0 C196.35 0 392.7 0 595 0 C595 58.74 595 117.48 595 178 C398.65 178 202.3 178 0 178 C0 119.26 0 60.52 0 0 Z " fill="#FEFEFE" transform="translate(0,0)"/>
<path d="M0 0 C23 0 23 0 28.0625 4.4375 C29.01491452 5.99929839 29.96406899 7.5639572 30.859375 9.15917969 C33.19091394 12.92198012 36.20608095 16.19300958 39.0625 19.5625 C40.28129081 21.03688002 41.49750776 22.51339212 42.7109375 23.9921875 C43.28166992 24.68666992 43.85240234 25.38115234 44.44042969 26.09667969 C48.53913204 31.09879045 52.56601959 36.1554961 56.5390625 41.2578125 C61.09163417 47.09696286 65.68538551 52.87393363 70.5 58.5 C74.70620302 63.41605099 78.7460255 68.43688529 82.72119141 73.54101562 C86.38509629 78.23853011 90.11544972 82.87873049 93.875 87.5 C94.41044434 88.15846924 94.94588867 88.81693848 95.49755859 89.49536133 C98.64029736 93.35209013 101.81458637 97.17750364 105 101 C105.33 67.67 105.66 34.34 106 0 C135.7 0 165.4 0 196 0 C196 5.61 196 11.22 196 17 C172.24 17 148.48 17 124 17 C124 25.58 124 34.16 124 43 C143.14 43 162.28 43 182 43 C182 48.61 182 54.22 182 60 C162.86 60 143.72 60 124 60 C124 68.91 124 77.82 124 87 C147.76 87 171.52 87 196 87 C196 92.61 196 98.22 196 104 C181.58757942 104.30177099 167.17591521 104.53247735 152.76097393 104.67355824 C146.06660174 104.74041459 139.37453082 104.83307699 132.68139648 104.98071289 C126.21672742 105.12241003 119.754137 105.19978435 113.28803444 105.23340416 C110.82668143 105.2573476 108.365437 105.3041087 105.90497398 105.37449074 C85.6090551 105.9317448 85.6090551 105.9317448 80.11026001 101.18856812 C77.19692404 98.0761785 75.12469065 94.68365338 73 91 C71.73707391 89.37310997 70.45097964 87.76342242 69.125 86.1875 C68.49464844 85.39214844 67.86429687 84.59679687 67.21484375 83.77734375 C64.3990022 80.24636784 61.54197784 76.74975881 58.6875 73.25 C54.52735423 68.14632838 50.42022334 63.0076568 46.375 57.8125 C42.32713437 52.61735865 38.137676 47.56566037 33.85864258 42.55981445 C30.64051229 38.78637149 27.54482393 34.94104821 24.53515625 31 C22.72391892 28.64032185 20.85826162 26.32282702 19 24 C18.67 50.4 18.34 76.8 18 104 C12.06 104 6.12 104 0 104 C0 69.68 0 35.36 0 0 Z " fill="#050505" transform="translate(12,36)"/>
<path d="M0 0 C19.10470219 -2.20961858 19.10470219 -2.20961858 25.13818359 1.21289062 C28.73543167 4.35123051 31.33046078 8.16927277 33.84912109 12.19628906 C35.45510317 14.71325885 37.33758498 16.96095258 39.25 19.25 C39.86488281 20.02988281 40.47976563 20.80976562 41.11328125 21.61328125 C42.4709545 23.33075197 43.8454501 25.03497306 45.23046875 26.73046875 C45.95878906 27.62378906 46.68710937 28.51710938 47.4375 29.4375 C48.09621094 30.24058594 48.75492187 31.04367188 49.43359375 31.87109375 C51 34 51 34 52 37 C56.21850282 32.94739336 59.92862285 28.59205805 63.625 24.0625 C64.23239014 23.32193359 64.83978027 22.58136719 65.46557617 21.81835938 C70.38824412 15.79654241 75.211838 9.70064055 79.98828125 3.5625 C82 1 82 1 83 0 C84.70772358 -0.08713831 86.41898649 -0.10700007 88.12890625 -0.09765625 C89.68061523 -0.09282227 89.68061523 -0.09282227 91.26367188 -0.08789062 C92.35228516 -0.07951172 93.44089844 -0.07113281 94.5625 -0.0625 C96.2012207 -0.05573242 96.2012207 -0.05573242 97.87304688 -0.04882812 C100.58208495 -0.03699826 103.29101599 -0.02051543 106 0 C104.69282061 2.80549386 103.24247212 5.1164695 101.27734375 7.50390625 C100.74367188 8.15617187 100.21 8.8084375 99.66015625 9.48046875 C99.09167969 10.16753906 98.52320313 10.85460938 97.9375 11.5625 C97.3496875 12.27921875 96.761875 12.9959375 96.15625 13.734375 C94.44057691 15.82546889 92.7204587 17.91284347 91 20 C89.49920281 21.8326808 87.99908771 23.66592062 86.5 25.5 C85.45972656 26.77037109 85.45972656 26.77037109 84.3984375 28.06640625 C81.30262301 31.85298066 78.21233065 35.64400642 75.125 39.4375 C74.56490234 40.12457031 74.00480469 40.81164062 73.42773438 41.51953125 C70.89179718 44.63784041 68.37367587 47.75486971 66 51 C67.3314565 53.878418 68.83298322 56.19196251 70.87109375 58.6171875 C71.43997314 59.29958496 72.00885254 59.98198242 72.5949707 60.68505859 C73.20300537 61.40773926 73.81104004 62.13041992 74.4375 62.875 C78.97198718 68.31824995 83.45872346 73.78592575 87.8125 79.375 C91.81502214 84.508892 95.88632075 89.57424704 100.02734375 94.59765625 C100.67832031 95.39042969 101.32929688 96.18320313 102 97 C102.74378906 97.88558594 103.48757813 98.77117187 104.25390625 99.68359375 C106 102 106 102 106 104 C85.90370785 105.78207229 85.90370785 105.78207229 79.92578125 102.11328125 C78.08115206 99.76269662 76.54055155 97.39815039 75.08886719 94.7890625 C72.93517919 91.25044688 70.1520506 88.17089742 67.5 85 C66.37549668 83.61890077 65.25306183 82.2361145 64.1328125 80.8515625 C61.55861922 77.6829674 58.96927497 74.52718356 56.375 71.375 C52.5440797 66.70211919 48.81281481 61.95628666 45.08984375 57.19750977 C40.80668718 51.73183605 36.41734448 46.3577094 32 41 C27.63874863 35.68869902 23.28597968 30.37232701 19 25 C13.58985285 18.22115029 8.17442056 11.44384285 2.4375 4.9375 C0 2 0 2 0 0 Z " fill="#040404" transform="translate(230,36)"/>
<path d="M0 0 C29.7 0 59.4 0 90 0 C90 5.61 90 11.22 90 17 C78.12 17 66.24 17 54 17 C54 45.71 54 74.42 54 104 C48.39 104 42.78 104 37 104 C37 75.29 37 46.58 37 17 C24.79 17 12.58 17 0 17 C0 11.39 0 5.78 0 0 Z " fill="#040404" transform="translate(356,36)"/>
<path d="M0 0 C4.08332902 1.55466197 6.08208993 4.25087844 8.75 7.625 C9.54921875 8.62789062 10.3484375 9.63078125 11.171875 10.6640625 C11.77515625 11.43492188 12.3784375 12.20578125 13 13 C11.08482677 17.52283847 7.78721514 20.94270358 4.55737305 24.5612793 C1.91749914 27.56651343 -0.36098663 30.47445606 -2.328125 33.96484375 C-6.89822068 41.65738897 -6.89822068 41.65738897 -11 44 C-18.86465056 45.68508828 -27.06658161 44.86886638 -35 44 C-31.42271169 39.14218312 -27.753714 34.44227673 -23.8125 29.875 C-17.99688778 23.07873168 -12.48121115 16.06679301 -7 9 C-6.25878906 8.04867187 -5.51757812 7.09734375 -4.75390625 6.1171875 C-3.16690167 4.07994621 -1.58209011 2.04105823 0 0 Z " fill="#060606" transform="translate(264,96)"/>
<path d="M0 0 C2.375 1.875 2.375 1.875 4 4 C4.25 6.75 4.25 6.75 4 9 C0.75 9.25 0.75 9.25 -3 9 C-3.61875 8.34 -4.2375 7.68 -4.875 7 C-7.82697 4.2216753 -10.05789166 4.5989683 -13.9765625 4.6640625 C-16.22331046 4.83547871 -16.22331046 4.83547871 -18 7 C-18.16681109 10.08347826 -18.16681109 10.08347826 -18 13 C-17.39414062 13.08636719 -16.78828125 13.17273438 -16.1640625 13.26171875 C-9.02044469 14.45964851 -1.33272383 16.407487 3.75390625 21.890625 C5.88484794 25.49786172 5.75129475 28.94862552 5 33 C3.30522251 36.29888788 1.07302505 38.46440774 -2.27734375 40.13671875 C-7.90886965 41.92232452 -14.64013363 42.05710081 -20.296875 40.27734375 C-24.06653648 38.28780019 -26.34393676 35.8966194 -28 32 C-28 30.68 -28 29.36 -28 28 C-25.36 28 -22.72 28 -20 28 C-19.566875 28.9590625 -19.566875 28.9590625 -19.125 29.9375 C-18.17176549 32.15206079 -18.17176549 32.15206079 -16 33 C-14.33654418 33.12082534 -12.66779409 33.1753794 -11 33.1875 C-10.113125 33.20167969 -9.22625 33.21585938 -8.3125 33.23046875 C-5.80480016 33.22713126 -5.80480016 33.22713126 -4 31 C-3.41649495 28.54290625 -3.41649495 28.54290625 -4 26 C-7.71685569 22.66764662 -12.68795315 21.97069319 -17.40234375 20.74609375 C-21.18563104 19.65946537 -23.92902026 18.42797299 -26.3125 15.25 C-27.31516165 11.96856187 -27.35356638 9.41780831 -27 6 C-24.69225212 1.78239181 -22.66734891 -1.21548562 -17.875 -2.625 C-11.20781249 -3.49463315 -5.84402598 -3.80541226 0 0 Z " fill="#0B0B0B" transform="translate(524,98)"/>
<path d="M0 0 C2.64 0 5.28 0 8 0 C8.09958121 4.55315922 8.17179985 9.10567152 8.21972656 13.65966797 C8.23972503 15.20567887 8.26693331 16.75161527 8.30175781 18.29736328 C8.65469967 34.37697905 8.65469967 34.37697905 4 41 C-0.64091306 44.45370274 -5.41130657 44.73113731 -11 44 C-14.72249626 42.6902328 -16.47321984 41.6848142 -18.875 38.5625 C-20 36 -20 36 -20 32 C-14.60948668 31.55815465 -14.60948668 31.55815465 -12 32 C-10.3125 34.5 -10.3125 34.5 -9 37 C-6.5 37.75 -6.5 37.75 -4 37 C-1.01337649 34.13233865 -0.62937672 31.57672844 -0.50764465 27.51544189 C-0.50125473 26.81425232 -0.49486481 26.11306274 -0.48828125 25.390625 C-0.47033005 24.66381531 -0.45237885 23.93700562 -0.43388367 23.18817139 C-0.37986759 20.87550593 -0.3459144 18.56304579 -0.3125 16.25 C-0.27931907 14.6783569 -0.24482868 13.10674086 -0.20898438 11.53515625 C-0.12414672 7.69025254 -0.05729494 3.84540878 0 0 Z " fill="#0A0A0A" transform="translate(481,95)"/>
<path d="M0 0 C1.2375 0.1546875 1.2375 0.1546875 2.5 0.3125 C4.5 3.3125 4.5 3.3125 4.125 6 C3.91875 6.763125 3.7125 7.52625 3.5 8.3125 C0.625 8.9375 0.625 8.9375 -2.5 9.3125 C-4.5 7.3125 -4.5 7.3125 -4.75 4.8125 C-4.40047575 1.3172575 -3.47557682 0.4344471 0 0 Z " fill="#0A0A0A" transform="translate(450.5,129.6875)"/>
</svg>
