<?xml version="1.0" encoding="UTF-8"?>
<svg version="1.1" xmlns="http://www.w3.org/2000/svg" width="843" height="416">
<path d="M0 0 C278.19 0 556.38 0 843 0 C843 137.28 843 274.56 843 416 C564.81 416 286.62 416 0 416 C0 278.72 0 141.44 0 0 Z " fill="#020202" transform="translate(0,0)"/>
<path d="M0 0 C3.20760347 -0.17910619 6.41391222 -0.28707162 9.625 -0.3828125 C10.52863281 -0.4341333 11.43226563 -0.4854541 12.36328125 -0.53833008 C18.99160373 -0.6864997 18.99160373 -0.6864997 21.93574619 1.31782436 C24.52385409 3.93473105 26.6722289 6.80381707 28.49609375 10.00390625 C30.96619293 14.07863238 33.89252637 17.51958829 37.0625 21.0625 C41.37714227 26.01496497 45.46012255 31.09473045 49.4309082 36.32543945 C53.9850321 42.32144467 58.77732138 48.10867037 63.57910156 53.90673828 C69.87904372 61.518119 76.17084785 69.13487779 82.3125 76.875 C82.77446777 77.45161377 83.23643555 78.02822754 83.71240234 78.62231445 C85.65143821 81.08414051 86.99977846 82.99933538 88 86 C88.66 86 89.32 86 90 86 C90 57.62 90 29.24 90 0 C115.41 0 140.82 0 167 0 C167 4.62 167 9.24 167 14 C146.21 14 125.42 14 104 14 C104 21.59 104 29.18 104 37 C121.16 37 138.32 37 156 37 C156 41.62 156 46.24 156 51 C139.17 51 122.34 51 105 51 C105 58.26 105 65.52 105 73 C125.46 73 145.92 73 167 73 C167 77.95 167 82.9 167 88 C154.52615756 88.30183491 142.05318983 88.53250535 129.57643318 88.67355824 C123.78206111 88.74127597 117.99019516 88.83303694 112.19726562 88.98071289 C106.60140452 89.12246459 101.00794553 89.19979255 95.41042709 89.23340416 C93.28033504 89.25733924 91.15036784 89.30408594 89.02130508 89.37449074 C72.77135333 89.89024682 72.77135333 89.89024682 68.14450645 86.73443031 C64.58702172 83.29703212 62.34914453 79.3126617 60 75 C58.82004323 73.47160971 57.61071306 71.96437274 56.34765625 70.50390625 C55.80455811 69.8505127 55.26145996 69.19711914 54.7019043 68.52392578 C54.16090088 67.87665527 53.61989746 67.22938477 53.0625 66.5625 C48.23054563 60.73989941 43.49075456 54.85899265 38.83666992 48.89355469 C33.82632021 42.47807817 28.66822365 36.18557388 23.44140625 29.9453125 C22.61511719 28.95273438 21.78882813 27.96015625 20.9375 26.9375 C20.18339844 26.03902344 19.42929688 25.14054687 18.65234375 24.21484375 C17 22 17 22 17 20 C16.34 20 15.68 20 15 20 C15 42.44 15 64.88 15 88 C10.38 88 5.76 88 1 88 C-0.79988399 86.20011601 -0.11993004 83.75000124 -0.12442017 81.35444641 C-0.12082489 80.54452744 -0.11722961 79.73460846 -0.11352539 78.90014648 C-0.11367142 78.05143982 -0.11381744 77.20273315 -0.1139679 76.32830811 C-0.11326848 73.50921109 -0.10547478 70.69017929 -0.09765625 67.87109375 C-0.09579217 65.92196183 -0.09436822 63.97282945 -0.09336853 62.0236969 C-0.08954255 56.88293168 -0.07971159 51.74219453 -0.06866455 46.60144043 C-0.05845215 41.35994852 -0.05387128 36.1184521 -0.04882812 30.87695312 C-0.03808939 20.58462306 -0.02101201 10.29231386 0 0 Z " fill="#D4D4D4" transform="translate(221,164)"/>
<path d="M0 0 C3.20760347 -0.17910619 6.41391222 -0.28707162 9.625 -0.3828125 C10.52863281 -0.4341333 11.43226563 -0.4854541 12.36328125 -0.53833008 C18.99160373 -0.6864997 18.99160373 -0.6864997 21.93574619 1.31782436 C24.52385409 3.93473105 26.6722289 6.80381707 28.49609375 10.00390625 C30.96619293 14.07863238 33.89252637 17.51958829 37.0625 21.0625 C41.37714227 26.01496497 45.46012255 31.09473045 49.4309082 36.32543945 C53.9850321 42.32144467 58.77732138 48.10867037 63.57910156 53.90673828 C69.87904372 61.518119 76.17084785 69.13487779 82.3125 76.875 C82.77446777 77.45161377 83.23643555 78.02822754 83.71240234 78.62231445 C85.65143821 81.08414051 86.99977846 82.99933538 88 86 C88.66 86 89.32 86 90 86 C90 57.62 90 29.24 90 0 C115.41 0 140.82 0 167 0 C167 4.62 167 9.24 167 14 C166.67 14 166.34 14 166 14 C166 9.71 166 5.42 166 1 C141.25 1 116.5 1 91 1 C91 29.38 91 57.76 91 87 C115.75 87 140.5 87 166 87 C166 82.71 166 78.42 166 74 C145.87 74 125.74 74 105 74 C105 73.67 105 73.34 105 73 C125.46 73 145.92 73 167 73 C167 77.95 167 82.9 167 88 C154.52615756 88.30183491 142.05318983 88.53250535 129.57643318 88.67355824 C123.78206111 88.74127597 117.99019516 88.83303694 112.19726562 88.98071289 C106.60140452 89.12246459 101.00794553 89.19979255 95.41042709 89.23340416 C93.28033504 89.25733924 91.15036784 89.30408594 89.02130508 89.37449074 C72.77135333 89.89024682 72.77135333 89.89024682 68.14450645 86.73443031 C64.58702172 83.29703212 62.34914453 79.3126617 60 75 C58.82004323 73.47160971 57.61071306 71.96437274 56.34765625 70.50390625 C55.80455811 69.8505127 55.26145996 69.19711914 54.7019043 68.52392578 C54.16090088 67.87665527 53.61989746 67.22938477 53.0625 66.5625 C48.23054563 60.73989941 43.49075456 54.85899265 38.83666992 48.89355469 C33.82632021 42.47807817 28.66822365 36.18557388 23.44140625 29.9453125 C22.61511719 28.95273438 21.78882813 27.96015625 20.9375 26.9375 C20.18339844 26.03902344 19.42929688 25.14054687 18.65234375 24.21484375 C17 22 17 22 17 20 C16.34 20 15.68 20 15 20 C15 42.44 15 64.88 15 88 C10.38 88 5.76 88 1 88 C-0.79988399 86.20011601 -0.11993004 83.75000124 -0.12442017 81.35444641 C-0.12082489 80.54452744 -0.11722961 79.73460846 -0.11352539 78.90014648 C-0.11367142 78.05143982 -0.11381744 77.20273315 -0.1139679 76.32830811 C-0.11326848 73.50921109 -0.10547478 70.69017929 -0.09765625 67.87109375 C-0.09579217 65.92196183 -0.09436822 63.97282945 -0.09336853 62.0236969 C-0.08954255 56.88293168 -0.07971159 51.74219453 -0.06866455 46.60144043 C-0.05845215 41.35994852 -0.05387128 36.1184521 -0.04882812 30.87695312 C-0.03808939 20.58462306 -0.02101201 10.29231386 0 0 Z " fill="#C6C6C6" transform="translate(221,164)"/>
<path d="M0 0 C15.83154471 -1.91947226 15.83154471 -1.91947226 20.86669922 1.13085938 C24.13361665 4.08935105 26.5615449 7.63259857 28.92138672 11.33300781 C30.4001679 13.61845777 32.09740333 15.7010419 33.8125 17.8125 C36.90794805 21.85004093 39.9635018 25.91796762 43 30 C46.97368653 28.67543782 48.50262347 26.09527874 50.9375 22.875 C51.42420166 22.26060059 51.91090332 21.64620117 52.41235352 21.01318359 C55.03491344 17.68576084 57.4536961 14.33547775 59.6875 10.734375 C66.20579558 0.7302847 66.20579558 0.7302847 71.48291016 -0.64892578 C77.39559675 -1.28375268 83.1246518 -0.78376681 89 0 C89 2 89 2 86.82421875 4.25 C85.89222656 5.1575 84.96023438 6.065 84 7 C82.24516221 8.98396407 80.51678491 10.97397678 78.8125 13 C78.10130005 13.84268433 78.10130005 13.84268433 77.37573242 14.70239258 C73.22622873 19.65711646 69.2809197 24.75392967 65.37109375 29.8984375 C61.9872846 34.32470515 58.501767 38.66680787 55 43 C56.54444076 46.48509931 58.62475353 49.14322337 61.0625 52.0625 C61.87332031 53.03960937 62.68414062 54.01671875 63.51953125 55.0234375 C64.33808594 56.00570312 65.15664063 56.98796875 66 58 C68.15592704 60.62494956 70.30524347 63.25518305 72.453125 65.88671875 C74.43424613 68.31302656 76.42733235 70.72924761 78.421875 73.14453125 C79.61471142 74.59624893 80.80742016 76.04807153 82 77.5 C82.8647998 78.54256958 82.8647998 78.54256958 83.74707031 79.60620117 C84.28428711 80.26209229 84.82150391 80.9179834 85.375 81.59375 C85.85710937 82.17833984 86.33921875 82.76292969 86.8359375 83.36523438 C88 85 88 85 89 88 C71.60214833 89.95678793 71.60214833 89.95678793 66.0546875 85.78515625 C64.20102853 83.18250961 62.58084161 80.5574684 61.05126953 77.75390625 C59.18862125 74.64632026 56.76534434 72.02110321 54.375 69.3125 C50.7916015 65.14252785 47.3288354 60.91059952 43.984375 56.546875 C41.32855663 53.13822623 38.60306627 49.78845076 35.875 46.4375 C35.3171582 45.75212158 34.75931641 45.06674316 34.18457031 44.3605957 C31.8966773 41.55151363 29.60705174 38.74384966 27.31640625 35.93701172 C25.6683088 33.91712287 24.02131102 31.8963451 22.375 29.875 C21.83987793 29.21838379 21.30475586 28.56176758 20.75341797 27.88525391 C16.65951972 22.84728055 12.6395591 17.75424913 8.68896484 12.60302734 C6.64770333 9.96921859 4.59262103 7.60789775 2.1875 5.29296875 C0 3 0 3 0 0 Z " fill="#D0D0D0" transform="translate(404,164)"/>
<path d="M0 0 C24.75 0 49.5 0 75 0 C75 4.62 75 9.24 75 14 C65.43 14 55.86 14 46 14 C46 38.42 46 62.84 46 88 C41.05 88 36.1 88 31 88 C31 63.58 31 39.16 31 14 C20.77 14 10.54 14 0 14 C0 9.38 0 4.76 0 0 Z " fill="#CDCDCD" transform="translate(504,164)"/>
<path d="M0 0 C3.3287315 1.40691484 5.13167372 3.00691581 7.3125 5.875 C7.84488281 6.55304688 8.37726563 7.23109375 8.92578125 7.9296875 C10 10 10 10 9.91796875 11.94140625 C8.18913245 15.8184136 5.24811985 18.7757322 2.4921875 21.9609375 C-0.05060331 24.9183765 -0.05060331 24.9183765 -1.9296875 28.1640625 C-4.09014073 31.52187535 -5.71359148 33.70169047 -9 36 C-15.25653797 37.31345234 -21.69401405 36.63508912 -28 36 C-26.69282061 33.19450614 -25.24247212 30.8835305 -23.27734375 28.49609375 C-22.74294678 27.84294189 -22.2085498 27.18979004 -21.65795898 26.5168457 C-20.80633179 25.48756958 -20.80633179 25.48756958 -19.9375 24.4375 C-19.06557007 23.37438599 -19.06557007 23.37438599 -18.17602539 22.28979492 C-17.00305155 20.86018754 -15.82850824 19.43186634 -14.65234375 18.00488281 C-12.4066806 15.28009177 -10.17220274 12.54628635 -7.9375 9.8125 C-7.26589844 8.99394531 -6.59429687 8.17539063 -5.90234375 7.33203125 C-3.9189022 4.90058442 -1.95645471 2.45319376 0 0 Z " fill="#D1D1D1" transform="translate(432,215)"/>
<path d="M0 0 C3.1875 2.25 3.1875 2.25 5 5 C5 6.32 5 7.64 5 9 C2.625 9.1875 2.625 9.1875 0 9 C-0.66 8.01 -1.32 7.02 -2 6 C-3.97747122 5.63702064 -3.97747122 5.63702064 -6.125 5.8125 C-7.40375 5.874375 -8.6825 5.93625 -10 6 C-10.33 7.65 -10.66 9.3 -11 11 C-10.33613281 11.18175781 -9.67226563 11.36351562 -8.98828125 11.55078125 C1.55102041 14.55102041 1.55102041 14.55102041 5 18 C5.59259259 25.22962963 5.59259259 25.22962963 3.125 28.4375 C-1.54205502 31.8691581 -6.36276065 31.73105409 -12 31 C-15.1875 28.75 -15.1875 28.75 -17 26 C-17 24.68 -17 23.36 -17 22 C-14.625 21.8125 -14.625 21.8125 -12 22 C-11.34 22.99 -10.68 23.98 -10 25 C-5.34854408 25.38024775 -5.34854408 25.38024775 -1 24 C-0.34786708 21.97536745 -0.34786708 21.97536745 0 20 C-1.08667969 19.76216797 -1.08667969 19.76216797 -2.1953125 19.51953125 C-8.29800599 18.04674789 -12.88633983 16.8919202 -17 12 C-17.75 8.5 -17.75 8.5 -17 5 C-12.46210523 -0.76435282 -7.05986119 -1.35188831 0 0 Z " fill="#C6C7C9" transform="translate(625,221)"/>
<path d="M0 0 C1.65 0 3.3 0 5 0 C5.14509751 4.41632177 5.23400818 8.83203193 5.3125 13.25 C5.35439453 14.50425781 5.39628906 15.75851563 5.43945312 17.05078125 C5.45556641 18.25605469 5.47167969 19.46132812 5.48828125 20.703125 C5.51446533 21.81333008 5.54064941 22.92353516 5.56762695 24.06738281 C5 27 5 27 2.61206055 29.36254883 C-1.32470726 31.83043384 -4.50072753 31.65902544 -9 31 C-12.0625 29.875 -12.0625 29.875 -14 28 C-14.3125 24.8125 -14.3125 24.8125 -14 22 C-11.625 21.8125 -11.625 21.8125 -9 22 C-8.34 22.99 -7.68 23.98 -7 25 C-4.45792029 25.33343551 -4.45792029 25.33343551 -2 25 C-0.28556781 23.28556781 -0.76947033 20.99554759 -0.68359375 18.65234375 C-0.64169922 17.57275391 -0.59980469 16.49316406 -0.55664062 15.38085938 C-0.51732422 14.24455078 -0.47800781 13.10824219 -0.4375 11.9375 C-0.39431641 10.79732422 -0.35113281 9.65714844 -0.30664062 8.48242188 C-0.20017161 5.65507805 -0.09815793 2.82764262 0 0 Z " fill="#CCCCCC" transform="translate(597,221)"/>
<path d="M0 0 C9.89523434 -0.77983458 9.89523434 -0.77983458 14.1875 2.25 C16 5 16 5 16 9 C13.625 9.1875 13.625 9.1875 11 9 C10.34 8.01 9.68 7.02 9 6 C5.93443402 5.26656572 5.93443402 5.26656572 3 5 C3.66 4.67 4.32 4.34 5 4 C5 3.34 5 2.68 5 2 C3.35 1.67 1.7 1.34 0 1 C0 0.67 0 0.34 0 0 Z " fill="#BCBCBC" transform="translate(614,221)"/>
<path d="M0 0 C2.375 -0.1875 2.375 -0.1875 5 0 C5.66 0.99 6.32 1.98 7 3 C9.80561762 3.28056176 11.46578263 3.26710868 14 2 C13.67 2.99 13.34 3.98 13 5 C9.625 6.125 9.625 6.125 6 7 C5.01 7.33 4.02 7.66 3 8 C2.01 7.34 1.02 6.68 0 6 C-0.1875 2.875 -0.1875 2.875 0 0 Z " fill="#A9A9A9" transform="translate(583,243)"/>
<path d="M0 0 C0.515625 0.37125 1.03125 0.7425 1.5625 1.125 C0.125 3.125 0.125 3.125 -2.4375 5.125 C-5.46574418 5.47942445 -8.40235939 5.35847235 -11.4375 5.125 C-10.6484375 3.2109375 -10.6484375 3.2109375 -9.4375 1.125 C-3.54902416 -1.27400867 -3.54902416 -1.27400867 0 0 Z " fill="#CECECE" transform="translate(599.4375,246.875)"/>
<path d="M0 0 C1.65 0 3.3 0 5 0 C5.33 1.65 5.66 3.3 6 5 C1.25 6.125 1.25 6.125 -1 5 C-0.67 3.35 -0.34 1.7 0 0 Z " fill="#B7B7B7" transform="translate(573,246)"/>
<path d="M0 0 C0.33 0.66 0.66 1.32 1 2 C0.04956626 3.33897583 -0.91059147 4.67105427 -1.875 6 C-2.40867187 6.7425 -2.94234375 7.485 -3.4921875 8.25 C-3.98976563 8.8275 -4.48734375 9.405 -5 10 C-5.66 10 -6.32 10 -7 10 C-5.33248852 6.05860922 -2.77289351 3.2107188 0 0 Z " fill="#B5B5B5" transform="translate(411,241)"/>
</svg>
